<?xml version="1.0" encoding="UTF-8" standalone="no"?>
<!-- Created with Inkscape (https://www.inkscape.org/) -->
<!-- ClipArt by Arvin61r58 (https://openclipart.org/user-detail/Arvin61r58) -->
<svg
   xmlns:dc="http://purl.org/dc/elements/1.1/"
   xmlns:cc="http://creativecommons.org/ns#"
   xmlns:rdf="http://www.w3.org/1999/02/22-rdf-syntax-ns#"
   xmlns:svg="http://www.w3.org/2000/svg"
   xmlns="http://www.w3.org/2000/svg"
   id="svg1037"
   version="1.1"
   viewBox="0 0 215.9 279.4"
   height="11in"
   width="8.5in">
  <title
     id="title1898">Border 93 (US size)</title>
  <defs
     id="defs1031" />
  <metadata
     id="metadata1034">
    <rdf:RDF>
      <cc:Work
         rdf:about="">
        <dc:format>image/svg+xml</dc:format>
        <dc:type
           rdf:resource="http://purl.org/dc/dcmitype/StillImage" />
        <dc:title>Border 93 (US size)</dc:title>
        <cc:license
           rdf:resource="http://creativecommons.org/publicdomain/zero/1.0/" />
        <dc:creator>
          <cc:Agent>
            <dc:title>Arvin61r58</dc:title>
          </cc:Agent>
        </dc:creator>
        <dc:publisher>
          <cc:Agent>
            <dc:title>Openclipart.org</dc:title>
          </cc:Agent>
        </dc:publisher>
        <dc:identifier>https://openclipart.org/</dc:identifier>
        <dc:source>https://openclipart.org/user-detail/Arvin61r58</dc:source>
        <dc:subject>
          <rdf:Bag>
            <rdf:li>border</rdf:li>
            <rdf:li>DTP</rdf:li>
            <rdf:li>frame</rdf:li>
            <rdf:li>page</rdf:li>
            <rdf:li>US</rdf:li>
          </rdf:Bag>
        </dc:subject>
        <dc:description>Page frame/border size for US (8.5x11in) paper</dc:description>
      </cc:Work>
      <cc:License
         rdf:about="http://creativecommons.org/publicdomain/zero/1.0/">
        <cc:permits
           rdf:resource="http://creativecommons.org/ns#Reproduction" />
        <cc:permits
           rdf:resource="http://creativecommons.org/ns#Distribution" />
        <cc:permits
           rdf:resource="http://creativecommons.org/ns#DerivativeWorks" />
      </cc:License>
    </rdf:RDF>
  </metadata>
  <g
     transform="translate(0,-17.6)"
     id="layer1">
    <g
       transform="translate(6.35,-6.35)"
       id="g1894">
      <title
         id="title1896">Border 93  --  by Arvin61r58</title>
      <g
         id="g1786">
        <path
           id="path905-1-1"
           transform="matrix(0.26458333,0,0,0.26458333,0,30.3)"
           d="m 14.855469,40.007812 c -0.33264,-0.0075 -0.66771,-0.0061 -1.001953,0.0059 -3.208738,0.115086 -6.4618396,1.140011 -9.1777348,3.283203 -4.50516204,3.950912 -4.8626008,12.913253 -4.60351558,21.830078 H 0 v 8.302735 h 0.00390625 v 13.542968 h 0.09960937 v 9.023438 H 0 V 911.99805 h 0.10351562 v 9.02734 H 0.00390625 v 13.54297 H 0 v 8.30273 h 0.07226562 c -0.25908521,8.91682 0.0983534,17.87919 4.60351558,21.83008 2.7158952,2.14322 5.9689968,3.16831 9.1777348,3.28321 0.334243,0.0151 0.669313,0.0154 1.001953,0.008 v -0.002 c 4.989602,-0.11293 9.723946,-2.39421 11.998047,-6.05468 3.665647,-6.44497 -1.810406,-17.22461 -8.75,-17.22461 -6.121731,0 -10.5905551,8.55006 -6.570313,12.57031 2.049959,2.04998 5.889867,1.7612 7.570313,-0.57031 1.955203,-2.71268 3,-2.5148 3,0.57031 0,3.68039 -2.244521,5.42969 -6.972657,5.42969 -7.9077725,-0.3868 -8.8440627,-7.76264 -9.0273434,-15.8418 -0.1832693,-8.07916 0,-16.84927 0,-22.61328 V 911.9982 h 0.044922 V 95.996094 H 6.1035156 V 83.742188 c 0,-5.764007 -0.1832693,-14.534126 0,-22.613282 0.1832807,-8.079156 1.119571,-15.455 9.0273434,-15.841797 4.728136,0 6.972657,1.749297 6.972657,5.429688 0,3.085115 -1.044797,3.282996 -3,0.570312 -1.680446,-2.331515 -5.520354,-2.62029 -7.570313,-0.570312 -4.0202419,4.020246 0.448582,12.570312 6.570313,12.570312 6.939594,0 12.415647,-10.779645 8.75,-17.224609 -2.274101,-3.660502 -7.008444,-5.941773 -11.998047,-6.054688 z"
           style="fill:#aacc66;stroke-width:0.99999994" />
        <path
           id="path903-7"
           transform="matrix(0.26458333,0,0,0.26458333,0,30.3)"
           d="m 19.970703,68.867188 c -0.240382,-0.01661 -0.486114,-0.01546 -0.736328,0.0078 -0.92387,0.08591 -1.916043,0.463527 -2.976563,1.279297 -2.085579,1.80881 -2.152343,2.576019 -2.152343,24.5 0,4.074349 0.0359,7.507105 0.0918,10.544925 v 2.79883 h -0.08984 v 792.0039 h 0.08984 v 2.79883 c -0.0559,3.0378 -0.0918,6.47055 -0.0918,10.54492 0,21.92398 0.06676,22.6912 2.152343,24.5 1.06052,0.81578 2.052693,1.1935 2.976563,1.2793 4.00343,0.37232 6.742871,-4.73269 8.394531,-3.39258 1.97921,1.64262 3.138704,0.48313 1.496094,-1.49609 -0.78645,-0.94761 -2.946841,-1.52344 -5.712891,-1.52344 -6.01228,0 -7.06307,-0.34201 -7.138671,-6.73633 l -0.05664,-25.97461 h 0.03906 v -792.0039 h -0.03906 l 0.05664,-25.976568 c 0.0756,-6.394329 1.126391,-6.734375 7.138671,-6.734375 2.76605,0 4.926441,-0.575838 5.712891,-1.523437 1.64261,-1.979229 0.483116,-3.138714 -1.496094,-1.496094 -1.548431,1.256343 -4.052466,-3.151243 -7.658203,-3.40039 z"
           style="fill:#aacc66;stroke-width:0.99999994" />
      </g>
      <g
         id="g1800">
        <path
           id="path942-7"
           transform="matrix(0.26458333,0,0,0.26458333,0,30.3)"
           d="M 62.539062,0 V 0.015625 C 54.522263,-0.07875021 46.865569,0.60868736 43.298828,4.6757812 37.583652,11.918169 39.817196,22.972383 46.064453,26.853516 c 6.444964,3.665646 17.224609,-1.810406 17.224609,-8.75 0,-6.121731 -8.55007,-10.5905546 -12.570312,-6.570313 -2.049978,2.049959 -1.761201,5.889867 0.570312,7.570313 2.712681,1.955202 2.514803,3 -0.570312,3 -3.680394,0 -5.429688,-2.244521 -5.429688,-6.972657 0.386797,-7.9077724 7.762641,-8.8440627 15.841797,-9.0273434 8.079156,-0.1832693 16.849275,0 22.613282,0 h 24.251949 v 0.048828 H 660 v -0.048828 h 24.25586 c 5.76401,0 14.53412,-0.1832693 22.61328,0 8.07916,0.1832807 15.455,1.119571 15.8418,9.0273434 0,4.728136 -1.7493,6.972657 -5.42969,6.972657 -3.08511,0 -3.28299,-1.044798 -0.57031,-3 2.33151,-1.680446 2.62029,-5.520354 0.57031,-7.570313 -4.02025,-4.0202416 -12.57031,0.448582 -12.57031,6.570313 0,6.939594 10.77964,12.415646 17.22461,8.75 6.24725,-3.881133 8.4808,-14.935347 2.76562,-22.1777348 C 720.72812,0.14540525 711.6831,-0.19567845 702.71484,0.07226562 V 0 H 691.72461 V 0.00390625 H 681.52148 V 0.10351562 H 660 V 0.00390625 H 107.99609 V 0.10351562 H 86.478516 V 0.00390625 H 75.679688 V 0 Z"
           style="fill:#aacc66;stroke-width:0.99999994" />
        <path
           id="path944-4"
           transform="matrix(0.26458333,0,0,0.26458333,0,30.3)"
           d="m 94.65625,14.103516 c -21.923977,0 -22.69119,0.06676 -24.5,2.152343 -0.815769,1.060521 -1.193388,2.052691 -1.279297,2.976563 -0.37234,4.00343 4.732678,6.74287 3.392578,8.394531 -1.642616,1.97921 -0.483135,3.138703 1.496094,1.496094 0.947603,-0.786452 1.523437,-2.94684 1.523437,-5.712891 0,-6.012279 0.340046,-7.063081 6.734376,-7.138672 l 35.093752,-0.07617 v -0.01172 h 533.76562 v 0.01172 l 35.09375,0.07617 c 6.39432,0.07559 6.73438,1.126393 6.73438,7.138672 0,2.766051 0.57583,4.926439 1.52344,5.712891 1.97922,1.642609 3.13871,0.483116 1.49609,-1.496094 -1.34007,-1.651661 3.76494,-4.391101 3.39258,-8.394531 -0.0858,-0.923872 -0.46353,-1.916042 -1.2793,-2.976563 -1.80881,-2.085581 -2.57602,-2.152343 -24.5,-2.152343 -4.07433,0 -7.50709,0.0359 -10.54492,0.0918 H 660 v -0.01172 H 107.99609 v 0.01172 h -2.79492 c -3.03782,-0.0559 -6.47057,-0.0918 -10.54492,-0.0918 z"
           style="fill:#aacc66;stroke-width:0.99999982" />
      </g>
      <g
         id="g1854">
        <g
           id="g1847">
          <path
             style="fill:#aacc66;stroke-width:0.26458332"
             d="m 0.31471082,38.357017 c -0.5196194,-0.590891 -0.39041164,-1.325039 0.3665927,-2.082961 0.76538938,-0.766308 1.85048118,-0.908695 2.79707658,-0.367024 0.9625231,0.550776 1.9130203,1.49171 1.7110954,1.693873 -0.1044973,0.104624 -0.3308018,0.04923 -0.5029002,-0.123055 -0.5854856,-0.586187 -1.8024026,-0.359949 -2.5869806,0.480954 -0.8111474,0.86938 -1.27880548,0.973714 -1.78488388,0.398213 z"
             id="path899-9" />
          <path
             style="fill:#aacc66;stroke-width:0.26458332"
             d="M 6.4442242,34.960694 C 5.0485357,33.277958 4.9020271,32.048278 5.9698491,30.979175 6.7452486,30.202842 7.4975627,30.088192 8.068097,30.65942 c 0.5545978,0.555259 0.4693581,0.912147 -0.4155288,1.739752 -0.8035169,0.751498 -1.1000329,2.161639 -0.5288539,2.515074 0.3183031,0.19696 0.3517984,0.661864 0.047682,0.661864 -0.1192076,0 -0.4464366,-0.276939 -0.7271749,-0.615416 z"
             id="path852-2" />
          <path
             style="fill:#aacc66;stroke-width:0.26458332"
             d="m 6.8592863,37.875973 c 0,-0.374788 -1.3418713,-1.77038 -1.7022296,-1.77038 -0.120419,0 -0.4113883,-0.210528 -0.6465995,-0.467845 C 4.275246,35.380431 3.4878386,34.880325 2.7606636,34.5264 0.95147611,33.645842 0.51303181,33.230889 0.51303181,32.399172 c 0,-0.870562 0.73781469,-1.58847 1.63250879,-1.58847 0.7848129,0 1.2091185,0.459331 2.0787304,2.250333 0.3535005,0.728045 0.8530077,1.516396 1.1100171,1.751889 0.2570093,0.235494 0.4672893,0.54083 0.4672893,0.678514 0,0.353686 1.4189867,1.673141 1.7993533,1.673141 0.1738354,0 0.3160655,0.238266 0.3160655,0.529483 0,0.352996 -0.176285,0.529493 -0.528855,0.529493 -0.2908703,0 -0.5288549,-0.156415 -0.5288549,-0.347582 z"
             id="path895-3" />
        </g>
        <path
           style="opacity:1;fill:#aacc66;fill-opacity:1;stroke:#aacc66;stroke-width:0.1984375;stroke-linecap:round;stroke-linejoin:round;stroke-miterlimit:4;stroke-dasharray:none;stroke-opacity:1"
           d="m 11.906977,41.437918 c 0.178901,-0.48878 0.528742,-0.63664 1.021081,-0.61179 0.23642,0.0119 0.468161,0.17062 0.60697,0.37059 0.13881,0.19997 0.134311,0.62007 0.0484,0.85479 -0.0859,0.23472 -0.43077,0.6017 -0.670679,0.64299 -0.239911,0.0413 -0.51258,-0.0117 -0.68777,-0.17094 -0.175191,-0.15922 -0.294981,-0.34325 -0.323201,-0.58505 -0.0282,-0.24179 -0.0807,-0.26587 0.005,-0.50059 0,0 0,0 0,0 m -0.7676,0.76769 c 0.48878,-0.17889 0.72079,-0.0136 1.085611,0.31795 0.17519,0.15923 0.21224,0.44788 0.17095,0.68778 -0.0413,0.23991 -0.408251,0.58481 -0.642971,0.67072 -0.23472,0.0859 -0.65481,0.0904 -0.85478,-0.0484 -0.19997,-0.13881 -0.35865,-0.37053 -0.37059,-0.60696 -0.0119,-0.23643 0.0307,-0.44876 0.18014,-0.6409 0.14946,-0.19215 0.19692,-0.29431 0.43164,-0.38022 0,0 0,0 0,0 m -1.2295801,-0.002 c 0.4900101,0.1755 0.5929401,0.53073 0.6178001,1.02306 0.0119,0.23643 -0.16896,0.46737 -0.36847,0.60686 -0.1995101,0.13948 -0.6159501,0.13504 -0.8512598,0.0508 -0.23532,-0.0843 -0.6040297,-0.43144 -0.6464797,-0.67114 -0.0425,-0.2397 -0.007,-0.53074 0.16856,-0.68965 0.1754697,-0.15892 0.3408897,-0.29554 0.5825397,-0.32492 0.2416497,-0.0294 0.2619997,-0.0793 0.4973097,0.005 0,0 0,0 0,0 m -0.7598997,-0.75997 c 0.17549,0.49001 0.0454,0.74895 -0.3199497,1.07987 -0.17547,0.15891 -0.4499397,0.21099 -0.6896397,0.16855 -0.2397,-0.0424 -0.5868197,-0.41118 -0.6710997,-0.6465 -0.0843,-0.23531 -0.0887,-0.65175 0.0508,-0.85127 0.13948,-0.19951 0.3704597,-0.38041 0.6068897,-0.36847 0.23642,0.0119 0.4499797,0.0321 0.6416297,0.18217 0.1916397,0.15011 0.2970997,0.20033 0.3813797,0.43565 0,0 0,0 0,0 m -0.002,-1.22958 c -0.1789,0.48877 -0.5288197,0.63662 -1.0211494,0.61176 -0.23643,-0.0119 -0.4681397,-0.17061 -0.6069497,-0.37059 -0.13882,-0.19996 -0.13426,-0.62004 -0.0483,-0.854759 0.0859,-0.23473 0.4308297,-0.60167 0.6707397,-0.64296 0.23991,-0.0413 0.5285797,-0.005 0.6878097,0.17097 0.1592197,0.17519 0.2949397,0.34322 0.3231597,0.58502 0.0282,0.241789 0.0807,0.265839 -0.005,0.500559 0,0 0,0 0,0 m 0.7677597,-0.767539 c -0.4887797,0.17889 -0.7540897,0.0468 -1.0856694,-0.31804 -0.15922,-0.1752 -0.21222,-0.44786 -0.17093,-0.68777 0.0413,-0.2399 0.4082897,-0.58474 0.6430097,-0.67064 0.2347197,-0.0859 0.6548197,-0.0904 0.8547898,0.0485 0.19997,0.13882 0.38253,0.37057 0.37059,0.607 -0.0119,0.23643 -0.0307,0.44873 -0.18014,0.64087 -0.14946,0.19214 -0.19693,0.29426 -0.4316501,0.38016 0,0 0,0 0,0 m 1.2235701,8e-5 c -0.48878,-0.17889 -0.63664,-0.52878 -0.61178,-1.02111 0.0119,-0.23643 0.17062,-0.46815 0.37059,-0.60696 0.19997,-0.13881 0.62006,-0.13428 0.85478,-0.0484 0.23472,0.0859 0.601681,0.430799 0.642981,0.670709 0.0413,0.23991 0.004,0.52856 -0.17096,0.68778 -0.175191,0.15923 -0.343241,0.29497 -0.585041,0.32319 -0.24179,0.0282 -0.26585,0.0807 -0.50057,-0.005 0,0 0,0 0,0 m 0.76761,0.767679 c -0.17889,-0.488779 -0.0468,-0.754069 0.318001,-1.085639 0.1752,-0.15922 0.44786,-0.21223 0.68777,-0.17094 0.23991,0.0413 0.58477,0.40827 0.67068,0.64299 0.0859,0.234719 0.0904,0.654819 -0.0484,0.854789 -0.13881,0.19997 -0.37054,0.35865 -0.60697,0.37059 -0.23643,0.0119 -0.44875,-0.0307 -0.64089,-0.18015 -0.192151,-0.14946 -0.294281,-0.19692 -0.380191,-0.43164 0,0 0,0 0,0"
           id="path9043-0" />
      </g>
      <path
         style="fill:#aacc66;stroke-width:0.99999994"
         d="m 753.14453,40.007812 c -4.98959,0.112915 -9.72395,2.394186 -11.99805,6.054688 -3.66565,6.444964 1.81038,17.224609 8.75,17.224609 6.12171,0 10.59056,-8.550066 6.57032,-12.570312 -2.04994,-2.049978 -5.88986,-1.761203 -7.57032,0.570312 -1.95518,2.712684 -3,2.514803 -3,-0.570312 0,-3.680391 2.24451,-5.429688 6.97266,-5.429688 7.90779,0.386797 8.84404,7.762641 9.02734,15.841797 0.18331,8.079156 0,16.849275 0,22.613282 v 33.544922 h 3 3 V 86.972656 h 0.0996 V 72.089844 H 768 v -9.734375 h -0.008 c 0.0818,-7.951366 -0.63011,-15.517504 -4.66797,-19.058594 -2.71589,-2.143192 -5.96899,-3.168117 -9.17774,-3.283203 -0.33424,-0.01199 -0.66931,-0.01339 -1.00195,-0.0059 z"
         transform="matrix(0.26458333,0,0,0.26458333,0,30.3)"
         id="path1620" />
      <path
         style="fill:#aacc66;stroke-width:0.26458332"
         d="m 198.11101,48.523347 c 0.24444,0.02273 0.50695,0.122642 0.78755,0.338481 0.55181,0.478581 0.56947,0.681572 0.56947,6.482292 0,1.078005 -0.01,1.986253 -0.0243,2.79001 v 3.15278 h -0.20154 c -0.0124,0.02699 -0.0254,0.04547 -0.0388,0.04547 -0.0142,0 -0.0277,-0.01852 -0.0408,-0.04547 h -0.24805 l -0.02,-9.285166 c -0.02,-1.691833 -0.29818,-1.78186 -1.88893,-1.78186 -0.73185,0 -1.30345,-0.152355 -1.51153,-0.403074 -0.43461,-0.523671 -0.12783,-0.830453 0.39584,-0.395843 0.437,0.354568 1.16181,-0.996135 2.22105,-0.89762 z"
         id="path1622" />
      <g
         id="g1812">
        <g
           id="g1805">
          <path
             id="path1612"
             d="m 202.88529,38.357017 c 0.51962,-0.590891 0.39041,-1.325039 -0.3666,-2.082961 -0.76538,-0.766308 -1.85048,-0.908695 -2.79707,-0.367024 -0.96253,0.550776 -1.91302,1.49171 -1.7111,1.693873 0.1045,0.104624 0.3308,0.04923 0.5029,-0.123055 0.58549,-0.586187 1.80241,-0.359949 2.58698,0.480954 0.81115,0.86938 1.27881,0.973714 1.78489,0.398213 z"
             style="fill:#aacc66;stroke-width:0.26458332" />
          <path
             id="path1614"
             d="m 196.34071,37.875973 c 0,-0.374788 1.34187,-1.77038 1.70223,-1.77038 0.12042,0 0.41139,-0.210528 0.6466,-0.467845 0.23521,-0.257317 1.02262,-0.757423 1.74979,-1.111348 1.80919,-0.880558 2.24764,-1.295511 2.24764,-2.127228 0,-0.870562 -0.73782,-1.58847 -1.63251,-1.58847 -0.78482,0 -1.20912,0.459331 -2.07873,2.250333 -0.3535,0.728045 -0.85301,1.516396 -1.11002,1.751889 -0.25701,0.235494 -0.46729,0.54083 -0.46729,0.678514 0,0.353686 -1.41899,1.673141 -1.79935,1.673141 -0.17384,0 -0.31607,0.238266 -0.31607,0.529483 0,0.352996 0.17629,0.529493 0.52886,0.529493 0.29087,0 0.52885,-0.156415 0.52885,-0.347582 z"
             style="fill:#aacc66;stroke-width:0.26458332" />
          <path
             id="path1616"
             d="m 196.75577,34.960694 c 1.39569,-1.682736 1.5422,-2.912416 0.47438,-3.981519 -0.7754,-0.776333 -1.52771,-0.890983 -2.09825,-0.319755 -0.5546,0.555259 -0.46936,0.912147 0.41553,1.739752 0.80352,0.751498 1.10003,2.161639 0.52885,2.515074 -0.3183,0.19696 -0.35179,0.661864 -0.0477,0.661864 0.11921,0 0.44644,-0.276939 0.72718,-0.615416 z"
             style="fill:#aacc66;stroke-width:0.26458332" />
        </g>
        <path
           id="path1634"
           d="m 191.29302,41.437918 c -0.1789,-0.48878 -0.52874,-0.63664 -1.02108,-0.61179 -0.23642,0.0119 -0.46816,0.17062 -0.60697,0.37059 -0.13881,0.19997 -0.13431,0.62007 -0.0484,0.85479 0.0859,0.23472 0.43077,0.6017 0.67068,0.64299 0.23991,0.0413 0.51258,-0.0117 0.68777,-0.17094 0.17519,-0.15922 0.29498,-0.34325 0.3232,-0.58505 0.0282,-0.24179 0.0807,-0.26587 -0.005,-0.50059 0,0 0,0 0,0 m 0.7676,0.76769 c -0.48878,-0.17889 -0.72079,-0.0136 -1.08561,0.31795 -0.17519,0.15923 -0.21224,0.44788 -0.17095,0.68778 0.0413,0.23991 0.40825,0.58481 0.64297,0.67072 0.23472,0.0859 0.65481,0.0904 0.85478,-0.0484 0.19997,-0.13881 0.35865,-0.37053 0.37059,-0.60696 0.0119,-0.23643 -0.0307,-0.44876 -0.18014,-0.6409 -0.14946,-0.19215 -0.19692,-0.29431 -0.43164,-0.38022 0,0 0,0 0,0 m 1.22958,-0.002 c -0.49001,0.1755 -0.59294,0.53073 -0.6178,1.02306 -0.0119,0.23643 0.16896,0.46737 0.36847,0.60686 0.19951,0.13948 0.61595,0.13504 0.85126,0.0508 0.23532,-0.0843 0.60403,-0.43144 0.64648,-0.67114 0.0425,-0.2397 0.007,-0.53074 -0.16856,-0.68965 -0.17547,-0.15892 -0.34089,-0.29554 -0.58254,-0.32492 -0.24165,-0.0294 -0.262,-0.0793 -0.49731,0.005 0,0 0,0 0,0 m 0.7599,-0.75997 c -0.17549,0.49001 -0.0454,0.74895 0.31995,1.07987 0.17547,0.15891 0.44994,0.21099 0.68964,0.16855 0.2397,-0.0424 0.58682,-0.41118 0.6711,-0.6465 0.0843,-0.23531 0.0887,-0.65175 -0.0508,-0.85127 -0.13948,-0.19951 -0.37046,-0.38041 -0.60689,-0.36847 -0.23642,0.0119 -0.44998,0.0321 -0.64163,0.18217 -0.19164,0.15011 -0.2971,0.20033 -0.38138,0.43565 0,0 0,0 0,0 m 0.002,-1.22958 c 0.1789,0.48877 0.52882,0.63662 1.02115,0.61176 0.23643,-0.0119 0.46814,-0.17061 0.60695,-0.37059 0.13882,-0.19996 0.13426,-0.62004 0.0483,-0.854759 -0.0859,-0.23473 -0.43083,-0.60167 -0.67074,-0.64296 -0.23991,-0.0413 -0.52858,-0.005 -0.68781,0.17097 -0.15922,0.17519 -0.29494,0.34322 -0.32316,0.58502 -0.0282,0.241789 -0.0807,0.265839 0.005,0.500559 0,0 0,0 0,0 m -0.76776,-0.767539 c 0.48878,0.17889 0.75409,0.0468 1.08567,-0.31804 0.15922,-0.1752 0.21222,-0.44786 0.17093,-0.68777 -0.0413,-0.2399 -0.40829,-0.58474 -0.64301,-0.67064 -0.23472,-0.0859 -0.65482,-0.0904 -0.85479,0.0485 -0.19997,0.13882 -0.38253,0.37057 -0.37059,0.607 0.0119,0.23643 0.0307,0.44873 0.18014,0.64087 0.14946,0.19214 0.19693,0.29426 0.43165,0.38016 0,0 0,0 0,0 m -1.22357,8e-5 c 0.48878,-0.17889 0.63664,-0.52878 0.61178,-1.02111 -0.0119,-0.23643 -0.17062,-0.46815 -0.37059,-0.60696 -0.19997,-0.13881 -0.62006,-0.13428 -0.85478,-0.0484 -0.23472,0.0859 -0.60168,0.430799 -0.64298,0.670709 -0.0413,0.23991 -0.004,0.52856 0.17096,0.68778 0.17519,0.15923 0.34324,0.29497 0.58504,0.32319 0.24179,0.0282 0.26585,0.0807 0.50057,-0.005 0,0 0,0 0,0 m -0.76761,0.767679 c 0.17889,-0.488779 0.0468,-0.754069 -0.318,-1.085639 -0.1752,-0.15922 -0.44786,-0.21223 -0.68777,-0.17094 -0.23991,0.0413 -0.58477,0.40827 -0.67068,0.64299 -0.0859,0.234719 -0.0904,0.654819 0.0484,0.854789 0.13881,0.19997 0.37054,0.35865 0.60697,0.37059 0.23643,0.0119 0.44875,-0.0307 0.64089,-0.18015 0.19215,-0.14946 0.29428,-0.19692 0.38019,-0.43164 0,0 0,0 0,0"
           style="opacity:1;fill:#aacc66;fill-opacity:1;stroke:#aacc66;stroke-width:0.1984375;stroke-linecap:round;stroke-linejoin:round;stroke-miterlimit:4;stroke-dasharray:none;stroke-opacity:1" />
      </g>
      <g
         id="g1796">
        <path
           style="fill:#aacc66;stroke-width:0.26458332"
           d="m 16.546793,296.99997 v -0.004 c -2.121111,0.025 -4.146945,-0.15692 -5.090645,-1.233 -1.5121402,-1.91622 -0.921182,-4.84098 0.731738,-5.86786 1.70523,-0.96987 4.557345,0.479 4.557345,2.3151 0,1.61971 -2.262206,2.80209 -3.325895,1.7384 -0.54239,-0.54239 -0.465985,-1.55836 0.150895,-2.00298 0.71773,-0.51732 0.665375,-0.79375 -0.150895,-0.79375 -0.973771,0 -1.436605,0.59386 -1.436605,1.84485 0.10234,2.09226 2.053865,2.33999 4.191475,2.38848 2.13761,0.0485 4.458038,0 5.983098,0 h 6.416661 v -0.0129 H 174.625 v 0.0129 h 6.41769 c 1.52506,0 3.84549,0.0485 5.9831,0 2.13761,-0.0485 4.08914,-0.29622 4.19148,-2.38848 0,-1.25099 -0.46284,-1.84485 -1.43661,-1.84485 -0.81627,0 -0.86862,0.27643 -0.15089,0.79375 0.61688,0.44462 0.69328,1.46059 0.15089,2.00298 -1.06369,1.06369 -3.32589,-0.11869 -3.32589,-1.7384 0,-1.8361 2.85211,-3.28497 4.55734,-2.3151 1.65292,1.02688 2.24388,3.95164 0.73174,5.86786 -1.0512,1.19866 -3.44437,1.2889 -5.81722,1.21801 V 297 h -2.90783 v -10e-4 h -2.69958 v -0.0264 H 174.625 v 0.0264 H 28.573965 v -0.0264 h -5.693191 v 0.0264 h -2.85719 V 297 Z"
           id="path1737" />
        <path
           style="fill:#aacc66;stroke-width:0.26458329"
           d="m 25.044466,293.26841 c -5.800719,0 -6.003711,-0.0177 -6.482292,-0.56947 -0.215839,-0.2806 -0.31575,-0.54311 -0.33848,-0.78755 -0.09851,-1.05924 1.252187,-1.78405 0.897619,-2.22105 -0.434609,-0.52367 -0.127829,-0.83045 0.395842,-0.39585 0.25072,0.20808 0.403076,0.77969 0.403076,1.51154 0,1.59075 0.08997,1.86877 1.781803,1.88877 l 9.285222,0.0202 v 0.003 H 172.21274 v -0.003 l 9.28522,-0.0202 c 1.69183,-0.02 1.78181,-0.29802 1.78181,-1.88877 0,-0.73185 0.15235,-1.30346 0.40307,-1.51154 0.52367,-0.4346 0.83045,-0.12782 0.39584,0.39585 -0.35456,0.437 0.99614,1.16181 0.89762,2.22105 -0.0227,0.24444 -0.12264,0.50695 -0.33848,0.78755 -0.47858,0.55181 -0.68157,0.56947 -6.48229,0.56947 -1.078,0 -1.98625,-0.01 -2.79001,-0.0243 H 174.625 v 0.003 H 28.573965 v -0.003 h -0.739489 c -0.803757,0.0148 -1.712005,0.0243 -2.79001,0.0243 z"
           id="path1739" />
      </g>
      <g
         id="g1828">
        <g
           id="g1821">
          <path
             id="path1727"
             d="m 0.31471082,288.94295 c -0.5196194,0.59089 -0.39041164,1.32504 0.3665927,2.08296 0.76538938,0.76631 1.85048118,0.90869 2.79707658,0.36702 0.9625231,-0.55077 1.9130203,-1.49171 1.7110954,-1.69387 -0.1044973,-0.10462 -0.3308018,-0.0492 -0.5029002,0.12306 -0.5854856,0.58618 -1.8024026,0.35995 -2.5869806,-0.48096 -0.8111474,-0.86938 -1.27880548,-0.97371 -1.78488388,-0.39821 z"
             style="fill:#aacc66;stroke-width:0.26458332" />
          <path
             id="path1729"
             d="m 6.8592863,289.42399 c 0,0.37479 -1.3418713,1.77038 -1.7022296,1.77038 -0.120419,0 -0.4113883,0.21053 -0.6465995,0.46785 -0.2352112,0.25731 -1.0226186,0.75742 -1.7497936,1.11135 -1.80918749,0.88055 -2.24763179,1.29551 -2.24763179,2.12722 0,0.87057 0.73781469,1.58847 1.63250879,1.58847 0.7848129,0 1.2091185,-0.45933 2.0787304,-2.25033 0.3535005,-0.72804 0.8530077,-1.5164 1.1100171,-1.75189 0.2570093,-0.23549 0.4672893,-0.54083 0.4672893,-0.67851 0,-0.35369 1.4189867,-1.67314 1.7993533,-1.67314 0.1738354,0 0.3160655,-0.23827 0.3160655,-0.52949 0,-0.35299 -0.176285,-0.52949 -0.528855,-0.52949 -0.2908703,0 -0.5288549,0.15642 -0.5288549,0.34758 z"
             style="fill:#aacc66;stroke-width:0.26458332" />
          <path
             id="path1731"
             d="m 6.4442242,292.33927 c -1.3956885,1.68274 -1.5421971,2.91242 -0.4743751,3.98152 0.7753995,0.77633 1.5277136,0.89098 2.0982479,0.31976 0.5545978,-0.55526 0.4693581,-0.91215 -0.4155288,-1.73976 -0.8035169,-0.75149 -1.1000329,-2.16164 -0.5288539,-2.51507 0.3183031,-0.19696 0.3517984,-0.66186 0.047682,-0.66186 -0.1192076,0 -0.4464366,0.27693 -0.7271749,0.61541 z"
             style="fill:#aacc66;stroke-width:0.26458332" />
        </g>
        <path
           id="path1741"
           d="m 11.906977,285.86205 c 0.178901,0.48878 0.528742,0.63664 1.021081,0.61179 0.23642,-0.0119 0.468161,-0.17062 0.60697,-0.37059 0.13881,-0.19997 0.134311,-0.62007 0.0484,-0.85479 -0.0859,-0.23472 -0.43077,-0.6017 -0.670679,-0.64299 -0.239911,-0.0413 -0.51258,0.0117 -0.68777,0.17094 -0.175191,0.15922 -0.294981,0.34325 -0.323201,0.58505 -0.0282,0.24179 -0.0807,0.26587 0.005,0.50059 0,0 0,0 0,0 m -0.7676,-0.76769 c 0.48878,0.17889 0.72079,0.0136 1.085611,-0.31795 0.17519,-0.15923 0.21224,-0.44788 0.17095,-0.68778 -0.0413,-0.23991 -0.408251,-0.58481 -0.642971,-0.67072 -0.23472,-0.0859 -0.65481,-0.0904 -0.85478,0.0484 -0.19997,0.13881 -0.35865,0.37053 -0.37059,0.60696 -0.0119,0.23643 0.0307,0.44876 0.18014,0.6409 0.14946,0.19215 0.19692,0.29431 0.43164,0.38022 0,0 0,0 0,0 m -1.2295801,0.002 c 0.4900101,-0.1755 0.5929401,-0.53073 0.6178001,-1.02306 0.0119,-0.23643 -0.16896,-0.46737 -0.36847,-0.60686 -0.1995101,-0.13948 -0.6159501,-0.13504 -0.8512598,-0.0508 -0.23532,0.0843 -0.6040297,0.43144 -0.6464797,0.67114 -0.0425,0.2397 -0.007,0.53074 0.16856,0.68965 0.1754697,0.15892 0.3408897,0.29554 0.5825397,0.32492 0.2416497,0.0294 0.2619997,0.0793 0.4973097,-0.005 0,0 0,0 0,0 m -0.7598997,0.75997 c 0.17549,-0.49001 0.0454,-0.74895 -0.3199497,-1.07987 -0.17547,-0.15891 -0.4499397,-0.21099 -0.6896397,-0.16855 -0.2397,0.0424 -0.5868197,0.41118 -0.6710997,0.6465 -0.0843,0.23531 -0.0887,0.65175 0.0508,0.85127 0.13948,0.19951 0.3704597,0.38041 0.6068897,0.36847 0.23642,-0.0119 0.4499797,-0.0321 0.6416297,-0.18217 0.1916397,-0.15011 0.2970997,-0.20033 0.3813797,-0.43565 0,0 0,0 0,0 m -0.002,1.22958 c -0.1789,-0.48877 -0.5288197,-0.63662 -1.0211494,-0.61176 -0.23643,0.0119 -0.4681397,0.17061 -0.6069497,0.37059 -0.13882,0.19996 -0.13426,0.62004 -0.0483,0.85476 0.0859,0.23473 0.4308297,0.60167 0.6707397,0.64296 0.23991,0.0413 0.5285797,0.005 0.6878097,-0.17097 0.1592197,-0.17519 0.2949397,-0.34322 0.3231597,-0.58502 0.0282,-0.24179 0.0807,-0.26584 -0.005,-0.50056 0,0 0,0 0,0 m 0.7677597,0.76754 c -0.4887797,-0.17889 -0.7540897,-0.0468 -1.0856694,0.31804 -0.15922,0.1752 -0.21222,0.44786 -0.17093,0.68777 0.0413,0.2399 0.4082897,0.58474 0.6430097,0.67064 0.2347197,0.0859 0.6548197,0.0904 0.8547898,-0.0485 0.19997,-0.13882 0.38253,-0.37057 0.37059,-0.607 -0.0119,-0.23643 -0.0307,-0.44873 -0.18014,-0.64087 -0.14946,-0.19214 -0.19693,-0.29426 -0.4316501,-0.38016 0,0 0,0 0,0 m 1.2235701,-8e-5 c -0.48878,0.17889 -0.63664,0.52878 -0.61178,1.02111 0.0119,0.23643 0.17062,0.46815 0.37059,0.60696 0.19997,0.13881 0.62006,0.13428 0.85478,0.0484 0.23472,-0.0859 0.601681,-0.4308 0.642981,-0.67071 0.0413,-0.23991 0.004,-0.52856 -0.17096,-0.68778 -0.175191,-0.15923 -0.343241,-0.29497 -0.585041,-0.32319 -0.24179,-0.0282 -0.26585,-0.0807 -0.50057,0.005 0,0 0,0 0,0 m 0.76761,-0.76768 c -0.17889,0.48878 -0.0468,0.75407 0.318001,1.08564 0.1752,0.15922 0.44786,0.21223 0.68777,0.17094 0.23991,-0.0413 0.58477,-0.40827 0.67068,-0.64299 0.0859,-0.23472 0.0904,-0.65482 -0.0484,-0.85479 -0.13881,-0.19997 -0.37054,-0.35865 -0.60697,-0.37059 -0.23643,-0.0119 -0.44875,0.0307 -0.64089,0.18015 -0.192151,0.14946 -0.294281,0.19692 -0.380191,0.43164 0,0 0,0 0,0"
           style="opacity:1;fill:#aacc66;fill-opacity:1;stroke:#aacc66;stroke-width:0.1984375;stroke-linecap:round;stroke-linejoin:round;stroke-miterlimit:4;stroke-dasharray:none;stroke-opacity:1" />
      </g>
      <g
         id="g1840">
        <g
           id="g1833">
          <path
             style="fill:#aacc66;stroke-width:0.26458332"
             d="m 202.88529,288.94295 c 0.51962,0.59089 0.39041,1.32504 -0.3666,2.08296 -0.76538,0.76631 -1.85048,0.90869 -2.79707,0.36702 -0.96253,-0.55077 -1.91302,-1.49171 -1.7111,-1.69387 0.1045,-0.10462 0.3308,-0.0492 0.5029,0.12306 0.58549,0.58618 1.80241,0.35995 2.58698,-0.48096 0.81115,-0.86938 1.27881,-0.97371 1.78489,-0.39821 z"
             id="path1743" />
          <path
             style="fill:#aacc66;stroke-width:0.26458332"
             d="m 196.34071,289.42399 c 0,0.37479 1.34187,1.77038 1.70223,1.77038 0.12042,0 0.41139,0.21053 0.6466,0.46785 0.23521,0.25731 1.02262,0.75742 1.74979,1.11135 1.80919,0.88055 2.24764,1.29551 2.24764,2.12722 0,0.87057 -0.73782,1.58847 -1.63251,1.58847 -0.78482,0 -1.20912,-0.45933 -2.07873,-2.25033 -0.3535,-0.72804 -0.85301,-1.5164 -1.11002,-1.75189 -0.25701,-0.23549 -0.46729,-0.54083 -0.46729,-0.67851 0,-0.35369 -1.41899,-1.67314 -1.79935,-1.67314 -0.17384,0 -0.31607,-0.23827 -0.31607,-0.52949 0,-0.35299 0.17629,-0.52949 0.52886,-0.52949 0.29087,0 0.52885,0.15642 0.52885,0.34758 z"
             id="path1745" />
          <path
             style="fill:#aacc66;stroke-width:0.26458332"
             d="m 196.75577,292.33927 c 1.39569,1.68274 1.5422,2.91242 0.47438,3.98152 -0.7754,0.77633 -1.52771,0.89098 -2.09825,0.31976 -0.5546,-0.55526 -0.46936,-0.91215 0.41553,-1.73976 0.80352,-0.75149 1.10003,-2.16164 0.52885,-2.51507 -0.3183,-0.19696 -0.35179,-0.66186 -0.0477,-0.66186 0.11921,0 0.44644,0.27693 0.72718,0.61541 z"
             id="path1747" />
        </g>
        <path
           style="opacity:1;fill:#aacc66;fill-opacity:1;stroke:#aacc66;stroke-width:0.1984375;stroke-linecap:round;stroke-linejoin:round;stroke-miterlimit:4;stroke-dasharray:none;stroke-opacity:1"
           d="m 191.29302,285.86205 c -0.1789,0.48878 -0.52874,0.63664 -1.02108,0.61179 -0.23642,-0.0119 -0.46816,-0.17062 -0.60697,-0.37059 -0.13881,-0.19997 -0.13431,-0.62007 -0.0484,-0.85479 0.0859,-0.23472 0.43077,-0.6017 0.67068,-0.64299 0.23991,-0.0413 0.51258,0.0117 0.68777,0.17094 0.17519,0.15922 0.29498,0.34325 0.3232,0.58505 0.0282,0.24179 0.0807,0.26587 -0.005,0.50059 0,0 0,0 0,0 m 0.7676,-0.76769 c -0.48878,0.17889 -0.72079,0.0136 -1.08561,-0.31795 -0.17519,-0.15923 -0.21224,-0.44788 -0.17095,-0.68778 0.0413,-0.23991 0.40825,-0.58481 0.64297,-0.67072 0.23472,-0.0859 0.65481,-0.0904 0.85478,0.0484 0.19997,0.13881 0.35865,0.37053 0.37059,0.60696 0.0119,0.23643 -0.0307,0.44876 -0.18014,0.6409 -0.14946,0.19215 -0.19692,0.29431 -0.43164,0.38022 0,0 0,0 0,0 m 1.22958,0.002 c -0.49001,-0.1755 -0.59294,-0.53073 -0.6178,-1.02306 -0.0119,-0.23643 0.16896,-0.46737 0.36847,-0.60686 0.19951,-0.13948 0.61595,-0.13504 0.85126,-0.0508 0.23532,0.0843 0.60403,0.43144 0.64648,0.67114 0.0425,0.2397 0.007,0.53074 -0.16856,0.68965 -0.17547,0.15892 -0.34089,0.29554 -0.58254,0.32492 -0.24165,0.0294 -0.262,0.0793 -0.49731,-0.005 0,0 0,0 0,0 m 0.7599,0.75997 c -0.17549,-0.49001 -0.0454,-0.74895 0.31995,-1.07987 0.17547,-0.15891 0.44994,-0.21099 0.68964,-0.16855 0.2397,0.0424 0.58682,0.41118 0.6711,0.6465 0.0843,0.23531 0.0887,0.65175 -0.0508,0.85127 -0.13948,0.19951 -0.37046,0.38041 -0.60689,0.36847 -0.23642,-0.0119 -0.44998,-0.0321 -0.64163,-0.18217 -0.19164,-0.15011 -0.2971,-0.20033 -0.38138,-0.43565 0,0 0,0 0,0 m 0.002,1.22958 c 0.1789,-0.48877 0.52882,-0.63662 1.02115,-0.61176 0.23643,0.0119 0.46814,0.17061 0.60695,0.37059 0.13882,0.19996 0.13426,0.62004 0.0483,0.85476 -0.0859,0.23473 -0.43083,0.60167 -0.67074,0.64296 -0.23991,0.0413 -0.52858,0.005 -0.68781,-0.17097 -0.15922,-0.17519 -0.29494,-0.34322 -0.32316,-0.58502 -0.0282,-0.24179 -0.0807,-0.26584 0.005,-0.50056 0,0 0,0 0,0 m -0.76776,0.76754 c 0.48878,-0.17889 0.75409,-0.0468 1.08567,0.31804 0.15922,0.1752 0.21222,0.44786 0.17093,0.68777 -0.0413,0.2399 -0.40829,0.58474 -0.64301,0.67064 -0.23472,0.0859 -0.65482,0.0904 -0.85479,-0.0485 -0.19997,-0.13882 -0.38253,-0.37057 -0.37059,-0.607 0.0119,-0.23643 0.0307,-0.44873 0.18014,-0.64087 0.14946,-0.19214 0.19693,-0.29426 0.43165,-0.38016 0,0 0,0 0,0 m -1.22357,-8e-5 c 0.48878,0.17889 0.63664,0.52878 0.61178,1.02111 -0.0119,0.23643 -0.17062,0.46815 -0.37059,0.60696 -0.19997,0.13881 -0.62006,0.13428 -0.85478,0.0484 -0.23472,-0.0859 -0.60168,-0.4308 -0.64298,-0.67071 -0.0413,-0.23991 -0.004,-0.52856 0.17096,-0.68778 0.17519,-0.15923 0.34324,-0.29497 0.58504,-0.32319 0.24179,-0.0282 0.26585,-0.0807 0.50057,0.005 0,0 0,0 0,0 m -0.76761,-0.76768 c 0.17889,0.48878 0.0468,0.75407 -0.318,1.08564 -0.1752,0.15922 -0.44786,0.21223 -0.68777,0.17094 -0.23991,-0.0413 -0.58477,-0.40827 -0.67068,-0.64299 -0.0859,-0.23472 -0.0904,-0.65482 0.0484,-0.85479 0.13881,-0.19997 0.37054,-0.35865 0.60697,-0.37059 0.23643,-0.0119 0.44875,0.0307 0.64089,0.18015 0.19215,0.14946 0.29428,0.19692 0.38019,0.43164 0,0 0,0 0,0"
           id="path1753" />
      </g>
      <g
         id="g1792"
         transform="matrix(-1,0,0,1,203.2,0)">
        <path
           style="fill:#aacc66;stroke-width:0.99999994"
           d="m 14.855469,40.007812 c -0.33264,-0.0075 -0.66771,-0.0061 -1.001953,0.0059 -3.208738,0.115086 -6.4618396,1.140011 -9.1777348,3.283203 -4.50516204,3.950912 -4.8626008,12.913253 -4.60351558,21.830078 H 0 v 8.302735 h 0.00390625 v 13.542968 h 0.09960937 v 9.023438 H 0 V 911.99805 h 0.10351562 v 9.02734 H 0.00390625 v 13.54297 H 0 v 8.30273 h 0.07226562 c -0.25908521,8.91682 0.0983534,17.87919 4.60351558,21.83008 2.7158952,2.14322 5.9689968,3.16831 9.1777348,3.28321 0.334243,0.0151 0.669313,0.0154 1.001953,0.008 v -0.002 c 4.989602,-0.11293 9.723946,-2.39421 11.998047,-6.05468 3.665647,-6.44497 -1.810406,-17.22461 -8.75,-17.22461 -6.121731,0 -10.5905551,8.55006 -6.570313,12.57031 2.049959,2.04998 5.889867,1.7612 7.570313,-0.57031 1.955203,-2.71268 3,-2.5148 3,0.57031 0,3.68039 -2.244521,5.42969 -6.972657,5.42969 -7.9077725,-0.3868 -8.8440627,-7.76264 -9.0273434,-15.8418 -0.1832693,-8.07916 0,-16.84927 0,-22.61328 V 911.9982 h 0.044922 V 95.996094 H 6.1035156 V 83.742188 c 0,-5.764007 -0.1832693,-14.534126 0,-22.613282 0.1832807,-8.079156 1.119571,-15.455 9.0273434,-15.841797 4.728136,0 6.972657,1.749297 6.972657,5.429688 0,3.085115 -1.044797,3.282996 -3,0.570312 -1.680446,-2.331515 -5.520354,-2.62029 -7.570313,-0.570312 -4.0202419,4.020246 0.448582,12.570312 6.570313,12.570312 6.939594,0 12.415647,-10.779645 8.75,-17.224609 -2.274101,-3.660502 -7.008444,-5.941773 -11.998047,-6.054688 z"
           transform="matrix(0.26458333,0,0,0.26458333,0,30.3)"
           id="path1788" />
        <path
           style="fill:#aacc66;stroke-width:0.99999994"
           d="m 19.970703,68.867188 c -0.240382,-0.01661 -0.486114,-0.01546 -0.736328,0.0078 -0.92387,0.08591 -1.916043,0.463527 -2.976563,1.279297 -2.085579,1.80881 -2.152343,2.576019 -2.152343,24.5 0,4.074349 0.0359,7.507105 0.0918,10.544925 v 2.79883 h -0.08984 v 792.0039 h 0.08984 v 2.79883 c -0.0559,3.0378 -0.0918,6.47055 -0.0918,10.54492 0,21.92398 0.06676,22.6912 2.152343,24.5 1.06052,0.81578 2.052693,1.1935 2.976563,1.2793 4.00343,0.37232 6.742871,-4.73269 8.394531,-3.39258 1.97921,1.64262 3.138704,0.48313 1.496094,-1.49609 -0.78645,-0.94761 -2.946841,-1.52344 -5.712891,-1.52344 -6.01228,0 -7.06307,-0.34201 -7.138671,-6.73633 l -0.05664,-25.97461 h 0.03906 v -792.0039 h -0.03906 l 0.05664,-25.976568 c 0.0756,-6.394329 1.126391,-6.734375 7.138671,-6.734375 2.76605,0 4.926441,-0.575838 5.712891,-1.523437 1.64261,-1.979229 0.483116,-3.138714 -1.496094,-1.496094 -1.548431,1.256343 -4.052466,-3.151243 -7.658203,-3.40039 z"
           transform="matrix(0.26458333,0,0,0.26458333,0,30.3)"
           id="path1790" />
      </g>
    </g>
  </g>
</svg>
