<?xml version="1.0" encoding="UTF-8" standalone="no"?>
<!-- Created with Inkscape (http://www.inkscape.org/) -->
<!-- ClipArt by Arvin61r58 (http://openclipart.org/user-detail/Arvin61r58) -->
<svg id="svg2" xmlns:rdf="http://www.w3.org/1999/02/22-rdf-syntax-ns#" xmlns="http://www.w3.org/2000/svg" height="11in" width="8.5in" version="1.1" xmlns:cc="http://creativecommons.org/ns#" xmlns:dc="http://purl.org/dc/elements/1.1/" viewBox="0 0 765 990">
 <title id="title4168">Border 34</title>
 <metadata id="metadata7">
  <rdf:RDF>
   <cc:Work rdf:about="">
    <dc:format>image/svg+xml</dc:format>
    <dc:type rdf:resource="http://purl.org/dc/dcmitype/StillImage"/>
    <dc:title>Border 34</dc:title>
    <dc:creator>
     <cc:Agent>
      <dc:title>Arvin61r58</dc:title>
     </cc:Agent>
    </dc:creator>
    <dc:publisher>
     <cc:Agent>
      <dc:title>Openclipart.org</dc:title>
     </cc:Agent>
    </dc:publisher>
    <dc:identifier>https://openclipart.org/</dc:identifier>
    <dc:source>https://openclipart.org/user-detail/Arvin61r58</dc:source>
    <dc:subject>
     <rdf:Bag>
      <rdf:li>frame</rdf:li>
      <rdf:li>border</rdf:li>
      <rdf:li>back and white</rdf:li>
      <rdf:li>monochrome</rdf:li>
     </rdf:Bag>
    </dc:subject>
    <dc:description>border/frame</dc:description>
    <cc:license rdf:resource="http://creativecommons.org/publicdomain/zero/1.0/"/>
   </cc:Work>
   <cc:License rdf:about="http://creativecommons.org/publicdomain/zero/1.0/">
    <cc:permits rdf:resource="http://creativecommons.org/ns#Reproduction"/>
    <cc:permits rdf:resource="http://creativecommons.org/ns#Distribution"/>
    <cc:permits rdf:resource="http://creativecommons.org/ns#DerivativeWorks"/>
   </cc:License>
  </rdf:RDF>
 </metadata>
 <g id="layer1" transform="translate(0 -62.362)">
  <path id="path4147" d="m87.5 1009.9v-20h-5-5v15 15h-22.5-22.5v-22.5-22.5h15 15v-5-5h-20-20v-407.5-407.5h20 20v-5-5h-15-15v-22.5-22.5h22.5 22.5v15 15h5 5v-20-20h295 295v20 20h5 5v-15-15h22.5 22.5v22.5 22.5h-15-15v5 5h20 20v407.5 407.5h-20-20v5 5h15 15v22.5 22.5h-22.5-22.5v-15-15h-5-5v20 20h-295-295v-20zm585 12.5v-2.5h-290-290v2.5 2.5h290 290v-2.5zm-600-20v-12.5h-2.5-2.5v10 10h-12.5-12.5v-12.5-12.5h10 10v-2.5-2.5h-12.5-12.5v17.5 17.5h17.5 17.5v-12.5zm600 10v-2.5h-290-290v2.5 2.5h290 290v-2.5zm55-15v-17.5h-12.5-12.5v2.5 2.5h10 10v12.5 12.5h-12.5-12.5v-10-10h-2.5-2.5v12.5 12.5h17.5 17.5v-17.5zm-55-2.5v-10h7.5 7.5v-5-5h5 5v-7.5-7.5h10 10v-402.5-402.5h-10-10v-7.5-7.5h-5-5v-5-5h-7.5-7.5v-10-10h-290-290v10 10h-7.5-7.5v5 5h-5-5v7.5 7.5h-10-10v402.5 402.5h10 10v7.5 7.5h5 5v5 5h7.5 7.5v10 10h290 290v-10zm-600-12.5v-2.5h-2.5-2.5v2.5 2.5h2.5 2.5v-2.5zm625 0v-2.5h-2.5-2.5v2.5 2.5h2.5 2.5v-2.5zm-665-425.04v-402.5h-2.5-2.5v402.5 402.5h2.5 2.5v-402.5zm10 0v-402.5h-2.5-2.5v402.5 402.5h2.5 2.5v-402.5zm685 0v-402.5h-2.5-2.5v402.5 402.5h2.5 2.5v-402.5zm10 0v-402.5h-2.5-2.5v402.5 402.5h2.5 2.5v-402.5zm-675-425v-2.5h-10-10v-12.5-12.5h12.5 12.5v10 10h2.5 2.5v-12.5-12.5h-17.5-17.5v17.5 17.5h12.5 12.5v-2.5zm10 0v-2.5h-2.5-2.5v2.5 2.5h2.5 2.5v-2.5zm625 0v-2.5h-2.5-2.5v2.5 2.5h2.5 2.5v-2.5zm30-15v-17.5h-17.5-17.5v12.5 12.5h2.5 2.5v-10-10h12.5 12.5v12.5 12.5h-10-10v2.5 2.5h12.5 12.5v-17.5zm-55-15v-2.5h-290-290v2.5 2.5h290 290v-2.5zm0-10v-2.5h-290-290v2.5 2.5h290 290v-2.5z">
   <title id="title4170">Border 34  --  by Arvin61r58</title>
  </path>
 </g>
</svg>
