<?xml version="1.0" encoding="utf-8"?>

<!DOCTYPE svg PUBLIC "-//W3C//DTD SVG 1.1//EN" "http://www.w3.org/Graphics/SVG/1.1/DTD/svg11.dtd">
<svg version="1.1" id="Layer_1" xmlns="http://www.w3.org/2000/svg" xmlns:xlink="http://www.w3.org/1999/xlink" x="0px" y="0px"
	 viewBox="0 0 2644.75 604.667" enable-background="new 0 0 2644.75 604.667" xml:space="preserve">
<g id="Layer_x0020_1">
	<g id="_635827488">
		<path d="M729.991,426.962H624.046l40.467,15.048h96.184c-7.727-3.864-15.658-7.727-23.385-11.591L729.991,426.962z"/>
		<path d="M729.991,177.705H624.046l40.467-15.048h96.184c-7.727,3.864-15.658,7.727-23.385,11.591L729.991,177.705z"/>
		<path d="M665.732,453.397L543.519,408.05c-31.519-13.014-66.292-29.282-101.878-44.94c-6.1,2.847-12.201,6.304-18.098,10.167
			c8.337,3.864,16.878,7.727,25.418,11.591c51.448,23.182,103.098,45.55,155.359,64.665l96.591,33.756v1.83
			c0.61,12.607,32.536,19.115,32.333,2.44C733.244,472.918,688.304,461.124,665.732,453.397z"/>
		<path d="M665.732,151.27l-122.213,45.347c-31.519,13.014-66.292,29.282-101.878,44.94c-6.1-2.847-12.201-6.304-18.098-10.167
			c8.337-3.864,16.878-7.727,25.418-11.591c51.448-23.182,103.098-45.55,155.359-64.665l96.591-33.756v-1.83
			c0.61-12.607,32.536-19.115,32.333-2.44C733.244,131.748,688.304,143.543,665.732,151.27z"/>
		<path d="M373.52,442.009h182.404c-12.201-4.88-24.402-9.964-36.399-15.048H379.213
			C376.773,431.842,374.943,436.925,373.52,442.009z"/>
		<path d="M373.52,162.658h182.404c-12.201,4.88-24.402,9.964-36.399,15.048H379.213
			C376.773,172.825,374.943,167.741,373.52,162.658z"/>
		<path d="M1183.053,344.808c-30.706-3.864-74.222,7.32-82.764,32.943c-5.286,16.471,13.422,27.656,29.689,18.301
			c10.574-5.897,16.472-19.318,21.149-29.892c30.502-6.507,77.883,1.83,81.136,47.177c4.27,61.615-43.517,101.065-101.675,110.825
			c-76.052,13.014-183.015-19.928-231.005-82.966c-5.897-7.727-10.371-14.845-13.828-21.962c-3.457-6.914-5.897-14.031-7.727-21.352
			c-1.83-7.931-2.847-15.861-2.644-23.792c0.203-6.711,1.22-13.421,3.661-19.522c2.44-6.507,6.304-12.404,11.387-17.285
			c4.88-4.677,10.981-8.541,18.098-11.184c7.523-2.643,16.064-4.067,24.402-4.27c8.338,0,16.269,1.017,22.775,3.05
			c3.66,11.184,7.32,21.758,13.015,26.842c2.44,2.44,5.49,3.66,8.134,4.067c2.847,0.407,5.694-0.203,7.931-1.423
			c2.237-1.423,4.067-3.254,5.287-5.897c1.424-2.643,1.83-5.897,1.22-9.557c-0.813-5.491-4.271-11.998-10.371-17.895
			c-4.677-4.27-10.777-8.337-18.708-11.184c-8.337-3.05-18.708-4.474-29.283-4.474c-10.37,0.203-20.742,1.83-29.892,5.287
			c-9.558,3.457-17.488,8.541-24.199,14.844c-6.914,6.711-11.998,14.641-15.251,23.182c-3.05,7.931-4.474,16.471-4.677,25.012
			c-0.203,9.557,0.814,18.911,3.05,27.859c2.034,8.541,4.88,16.675,8.947,25.012c3.05,6.1,6.507,12.201,10.981,18.505
			c-64.665-38.433-156.173-88.863-219.617-110.012c-97.405-32.536-238.732-32.129-302.178,63.648
			c-64.868,98.218,33.756,203.146,128.314,158.206c81.95-38.84,43.313-88.254,18.708-73.612c-12.201,7.32-9.557,25.825-6.914,42.703
			c-13.218,9.151-28.875,18.098-46.973,20.131c-83.78,10.371-139.701-99.845-39.857-173.457
			c26.029-19.115,52.261-27.045,88.051-27.859c122.416-3.254,311.735,120.789,432.727,168.983
			c81.34,32.333,227.548,63.038,293.23-19.522C1262.968,449.533,1273.543,355.993,1183.053,344.808z"/>
		<path d="M1183.053,259.858c-30.706,3.864-74.222-7.32-82.764-32.942c-5.286-16.471,13.422-27.656,29.689-18.302
			c10.574,5.897,16.472,19.318,21.149,29.892c30.502,6.507,77.883-1.83,81.136-47.177c4.27-61.615-43.517-101.065-101.675-110.825
			c-76.052-13.014-183.015,19.928-231.005,82.966c-5.897,7.727-10.371,14.845-13.828,21.962c-3.457,6.914-5.897,14.031-7.727,21.352
			c-1.83,7.931-2.847,15.861-2.644,23.792c0.203,6.711,1.22,13.421,3.661,19.522c2.44,6.507,6.304,12.404,11.387,17.285
			c4.88,4.677,10.981,8.541,18.098,11.184c7.523,2.643,16.064,4.067,24.402,4.27c8.338,0,16.269-1.017,22.775-3.05
			c3.66-11.184,7.32-21.758,13.015-26.842c2.44-2.44,5.49-3.66,8.134-4.067c2.847-0.407,5.694,0.203,7.931,1.423
			c2.237,1.423,4.067,3.254,5.287,5.897c1.424,2.643,1.83,5.897,1.22,9.557c-0.813,5.491-4.271,11.998-10.371,17.895
			c-4.677,4.27-10.777,8.337-18.708,11.184c-8.337,3.05-18.708,4.474-29.283,4.474c-10.37-0.203-20.742-1.83-29.892-5.287
			c-9.558-3.457-17.488-8.541-24.199-14.844c-6.914-6.711-11.998-14.641-15.251-23.182c-3.05-7.931-4.474-16.471-4.677-25.012
			c-0.203-9.557,0.814-18.911,3.05-27.859c2.034-8.541,4.88-16.675,8.947-25.012c3.05-6.1,6.507-12.201,10.981-18.505
			c-64.665,38.433-156.173,88.863-219.617,110.012c-97.405,32.536-238.732,32.129-302.178-63.648
			C295.23,107.753,393.854,2.825,488.412,47.765c81.95,38.84,43.313,88.254,18.708,73.612c-12.201-7.32-9.557-25.825-6.914-42.703
			c-13.218-9.151-28.875-18.098-46.973-20.131c-83.78-10.371-139.701,99.845-39.857,173.457
			c26.029,19.115,52.261,27.045,88.051,27.859c122.416,3.254,311.735-120.789,432.727-168.983
			c81.34-32.333,227.548-63.038,293.23,19.522C1262.968,155.134,1273.543,248.674,1183.053,259.858z"/>
		<path d="M907.718,434.892c1.83,2.44,3.864,4.881,5.897,7.117h302.176v-15.048H902.024
			C903.854,429.808,905.685,432.452,907.718,434.892z"/>
		<path d="M907.718,169.775c1.83-2.44,3.864-4.881,5.897-7.117h302.176v15.048H902.024
			C903.854,174.858,905.685,172.215,907.718,169.775z"/>
		<polygon points="1268.052,434.689 1322.347,524.772 1376.641,434.689 1322.347,344.605 		"/>
		<polygon points="1268.052,169.978 1322.347,79.894 1376.641,169.978 1322.347,260.062 		"/>
		<path d="M206.479,302.333c-54.262,2.845-108.446,20.138-139.61,60.166c-47.787,61.005-23.995,165.933,56.938,171.22
			c109.808,7.117,125.67-109.808,72.392-150.478c-36.806-28.062-72.799,0.61-48.601,16.065c9.151,5.897,20.335,3.457,31.113-0.407
			c8.947-3.05,6.914-4.473,14.031,3.457c12.811,14.031,17.691,35.586,15.658,54.905c-6.711,63.038-80.12,68.529-110.622,53.074
			C42.264,482.069,24.572,338.301,192.742,320c69.342-7.524,132.99,11.998,195.622,38.026c4.881-4.067,9.964-7.727,15.251-11.184
			c-42.703-17.895-85.203-33.146-123.23-39.857c-12.976-2.333-26.69-3.934-40.724-4.652c14.034-0.718,27.748-2.319,40.724-4.652
			c38.026-6.711,80.526-21.962,123.23-39.857c-5.287-3.457-10.37-7.117-15.251-11.184c-62.632,26.029-126.279,45.55-195.622,38.026
			C24.572,266.366,42.264,122.598,97.778,94.332c30.502-15.455,103.911-9.964,110.622,53.074
			c2.033,19.318-2.847,40.873-15.658,54.905c-7.117,7.93-5.084,6.507-14.031,3.457c-10.777-3.864-21.962-6.304-31.113-0.407
			c-24.198,15.454,11.795,44.127,48.601,16.065c53.278-40.67,37.416-157.595-72.392-150.478
			c-80.933,5.287-104.725,110.215-56.938,171.22C98.033,282.196,152.216,299.488,206.479,302.333z"/>
		<path d="M235.852,442.009h95.371c1.017-5.084,2.237-9.964,3.864-15.048H233.819C234.835,431.842,235.649,436.925,235.852,442.009z
			"/>
		<path d="M235.852,162.658h95.371c1.017,5.084,2.237,9.964,3.864,15.048H233.819C234.835,172.825,235.649,167.741,235.852,162.658z
			"/>
		<path d="M69.716,442.009h128.517c-0.407-5.084-1.423-10.167-3.05-15.048H69.512C69.106,431.842,69.106,436.925,69.716,442.009z"/>
		<path d="M69.716,162.658h128.517c-0.407,5.084-1.423,10.167-3.05,15.048H69.512C69.106,172.825,69.106,167.741,69.716,162.658z"/>
		<path d="M2405.033,302.333c-14.035,0.718-27.749,2.319-40.725,4.652c-38.026,6.711-80.323,21.962-123.026,39.857
			c5.287,3.457,10.167,7.117,15.048,11.184c62.632-26.029,126.28-45.55,195.825-38.026
			c167.966,18.301,150.478,162.069,94.761,190.335c-30.502,15.455-103.912,9.964-110.622-53.074
			c-2.034-19.318,2.847-40.873,15.658-54.905c7.321-7.93,5.084-6.507,14.234-3.457c10.574,3.864,21.759,6.304,31.113,0.407
			c24.198-15.454-11.794-44.127-48.601-16.065c-53.48,40.67-37.619,157.595,72.189,150.478
			c80.933-5.287,104.725-110.215,57.141-171.22c-31.302-40.029-85.53-57.321-139.807-60.166
			c54.276-2.845,108.504-20.138,139.807-60.166c47.584-61.005,23.792-165.933-57.141-171.22
			c-109.808-7.117-125.67,109.808-72.189,150.478c36.807,28.062,72.799-0.61,48.601-16.065c-9.354-5.897-20.538-3.457-31.113,0.407
			c-9.15,3.05-6.913,4.473-14.234-3.457c-12.811-14.031-17.691-35.586-15.658-54.905c6.71-63.038,80.12-68.529,110.622-53.074
			c55.717,28.265,73.206,172.033-94.761,190.335c-69.545,7.524-133.194-11.997-195.825-38.026
			c-4.88,4.067-9.761,7.727-15.048,11.184c42.703,17.895,85,33.146,123.026,39.857
			C2377.284,300.014,2390.998,301.615,2405.033,302.333z"/>
		<path d="M2313.674,442.009h95.168c0.406-5.084,1.017-10.167,2.033-15.048H2309.81
			C2311.234,432.045,2312.657,436.925,2313.674,442.009z"/>
		<path d="M2313.674,162.658h95.168c0.406,5.084,1.017,10.167,2.033,15.048H2309.81
			C2311.234,172.622,2312.657,167.741,2313.674,162.658z"/>
		<path d="M2446.461,442.009h128.72c0.407-5.084,0.407-10.167,0-15.048h-125.467
			C2448.088,431.842,2447.071,436.925,2446.461,442.009z"/>
		<path d="M2446.461,162.658h128.72c0.407,5.084,0.407,10.167,0,15.048h-125.467
			C2448.088,172.825,2447.071,167.741,2446.461,162.658z"/>
		<path d="M2221.354,373.277c-6.101-3.864-12.201-7.32-18.302-10.167c-35.383,15.658-70.359,31.926-101.878,44.94l-122.213,45.347
			c-22.369,7.727-67.309,19.522-67.512,34.163c-0.204,16.675,31.926,10.167,32.332-2.44v-1.83l96.591-33.756
			c52.261-19.115,103.911-41.483,155.359-64.665C2204.272,381.004,2212.813,377.141,2221.354,373.277z"/>
		<path d="M2221.354,231.39c-6.101,3.864-12.201,7.32-18.302,10.167c-35.383-15.658-70.359-31.926-101.878-44.94l-122.213-45.347
			c-22.369-7.727-67.309-19.522-67.512-34.163c-0.204-16.675,31.926-10.167,32.332,2.44v1.83l96.591,33.756
			c52.261,19.115,103.911,41.483,155.359,64.665C2204.272,223.662,2212.813,227.526,2221.354,231.39z"/>
		<path d="M2020.648,426.962h-105.946l-7.117,3.457c-7.93,3.864-15.658,7.727-23.588,11.591h96.185L2020.648,426.962z"/>
		<path d="M2020.648,177.705h-105.946l-7.117-3.457c-7.93-3.864-15.658-7.727-23.588-11.591h96.185L2020.648,177.705z"/>
		<path d="M1428.902,442.009h302.38c2.034-2.237,3.864-4.677,5.694-7.117c2.033-2.44,3.864-5.084,5.694-7.93h-313.768V442.009z"/>
		<path d="M1428.902,162.658h302.38c2.034,2.237,3.864,4.677,5.694,7.117c2.033,2.44,3.864,5.084,5.694,7.93h-313.768V162.658z"/>
		<path d="M2265.48,426.962h-140.107c-12.201,5.084-24.402,10.167-36.603,15.048h182.607
			C2269.954,436.925,2267.921,431.842,2265.48,426.962z"/>
		<path d="M2265.48,177.705h-140.107c-12.201-5.084-24.402-10.167-36.603-15.048h182.607
			C2269.954,167.741,2267.921,172.825,2265.48,177.705z"/>
		<path d="M1982.418,335.048c-63.445,21.148-154.749,71.579-219.618,110.012c4.474-6.304,8.134-12.404,11.185-18.505
			c3.864-8.337,6.914-16.471,8.744-25.012c2.237-8.947,3.457-18.302,3.254-27.859c-0.407-8.541-1.831-17.081-4.677-25.012
			c-3.457-8.541-8.541-16.471-15.455-23.182c-6.507-6.304-14.641-11.387-23.995-14.844c-9.151-3.457-19.725-5.084-29.892-5.287
			c-10.574,0-20.945,1.423-29.485,4.474c-7.728,2.847-14.031,6.914-18.708,11.184c-6.101,5.897-9.558,12.404-10.371,17.895
			c-0.61,3.66,0,6.914,1.22,9.557c1.22,2.643,3.05,4.474,5.287,5.897c2.44,1.22,5.084,1.83,7.931,1.423
			c2.847-0.407,5.694-1.627,8.134-4.067c5.694-5.084,9.558-15.658,13.218-26.842c6.304-2.034,14.437-3.05,22.572-3.05
			c8.337,0.203,17.082,1.627,24.402,4.27c7.117,2.643,13.218,6.507,18.302,11.184c5.083,4.881,8.947,10.778,11.387,17.285
			c2.237,6.101,3.457,12.811,3.661,19.522c0.203,7.931-0.814,15.861-2.847,23.792c-1.626,7.32-4.067,14.438-7.524,21.352
			c-3.457,7.117-8.134,14.234-13.828,21.962c-48.194,63.038-154.952,95.981-231.005,82.966
			c-58.158-9.761-106.148-49.21-101.674-110.825c3.05-45.347,50.43-53.684,80.932-47.177c4.881,10.574,10.778,23.995,21.149,29.892
			c16.471,9.354,35.179-1.83,29.689-18.301c-8.541-25.622-51.854-36.806-82.56-32.943c-90.694,11.184-79.916,104.725-44.33,149.462
			c65.478,82.56,211.687,51.854,293.229,19.522c120.789-48.194,310.108-172.237,432.523-168.983
			c35.79,0.814,62.021,8.744,88.051,27.859c99.844,73.612,43.923,183.828-39.857,173.457c-17.894-2.034-33.552-10.981-46.973-20.131
			c2.643-16.878,5.287-35.383-6.914-42.703c-24.605-14.641-63.038,34.773,18.708,73.612
			c94.761,44.94,193.385-59.988,128.313-158.206C2221.15,302.918,2079.822,302.512,1982.418,335.048z"/>
		<path d="M1982.418,269.619c-63.445-21.148-154.749-71.579-219.618-110.012c4.474,6.304,8.134,12.404,11.185,18.505
			c3.864,8.337,6.914,16.471,8.744,25.012c2.237,8.947,3.457,18.302,3.254,27.859c-0.407,8.541-1.831,17.081-4.677,25.012
			c-3.457,8.541-8.541,16.471-15.455,23.182c-6.507,6.304-14.641,11.387-23.995,14.844c-9.151,3.457-19.725,5.084-29.892,5.287
			c-10.574,0-20.945-1.423-29.485-4.474c-7.728-2.847-14.031-6.914-18.708-11.184c-6.101-5.897-9.558-12.404-10.371-17.895
			c-0.61-3.66,0-6.914,1.22-9.557c1.22-2.643,3.05-4.474,5.287-5.897c2.44-1.22,5.084-1.83,7.931-1.423
			c2.847,0.407,5.694,1.627,8.134,4.067c5.694,5.084,9.558,15.658,13.218,26.842c6.304,2.034,14.437,3.05,22.572,3.05
			c8.337-0.203,17.082-1.627,24.402-4.27c7.117-2.643,13.218-6.507,18.302-11.184c5.083-4.881,8.947-10.778,11.387-17.285
			c2.237-6.101,3.457-12.811,3.661-19.522c0.203-7.931-0.814-15.861-2.847-23.792c-1.626-7.32-4.067-14.438-7.524-21.352
			c-3.457-7.117-8.134-14.234-13.828-21.962c-48.194-63.038-154.952-95.981-231.005-82.966
			c-58.158,9.761-106.148,49.21-101.674,110.825c3.05,45.347,50.43,53.684,80.932,47.177c4.881-10.574,10.778-23.995,21.149-29.892
			c16.471-9.354,35.179,1.83,29.689,18.302c-8.541,25.622-51.854,36.806-82.56,32.942c-90.694-11.184-79.916-104.725-44.33-149.462
			c65.478-82.56,211.687-51.854,293.229-19.522c120.789,48.194,310.108,172.237,432.523,168.983
			c35.79-0.813,62.021-8.744,88.051-27.859c99.844-73.612,43.923-183.828-39.857-173.457c-17.894,2.034-33.552,10.981-46.973,20.131
			c2.643,16.878,5.287,35.383-6.914,42.703c-24.605,14.641-63.038-34.773,18.708-73.612
			c94.761-44.94,193.385,59.988,128.313,158.206C2221.15,301.748,2079.822,302.155,1982.418,269.619z"/>
	</g>
</g>
</svg>
