<?xml version="1.0" encoding="utf-8"?>

<!DOCTYPE svg PUBLIC "-//W3C//DTD SVG 1.1//EN" "http://www.w3.org/Graphics/SVG/1.1/DTD/svg11.dtd">
<svg version="1.1" id="Layer_1" xmlns="http://www.w3.org/2000/svg" xmlns:xlink="http://www.w3.org/1999/xlink" x="0px" y="0px"
	 viewBox="0 0 2610.241 727.774" enable-background="new 0 0 2610.241 727.774" xml:space="preserve">
<g>
	<rect x="2514.613" y="636.262" fill="none" width="57.292" height="48.477"/>
	<rect x="38.336" y="636.262" fill="none" width="57.292" height="48.477"/>
	<rect x="2514.613" y="43.035" fill="none" width="57.292" height="48.477"/>
	<rect x="38.336" y="43.035" fill="none" width="57.292" height="48.477"/>
	<rect x="2397.82" y="466.014" fill="none" width="55.64" height="33.623"/>
	<rect x="156.781" y="466.014" fill="none" width="55.64" height="33.623"/>
	<rect x="2397.82" y="228.137" fill="none" width="55.64" height="33.623"/>
	<rect x="156.781" y="228.137" fill="none" width="55.64" height="33.623"/>
	<rect x="2397.824" y="512.859" fill="none" width="55.636" height="42.401"/>
	<rect x="156.781" y="512.859" fill="none" width="55.636" height="42.401"/>
	<rect x="2397.824" y="172.514" fill="none" width="55.636" height="42.401"/>
	<rect x="156.781" y="172.514" fill="none" width="55.636" height="42.401"/>
	<rect x="2337.771" y="512.859" fill="none" width="46.828" height="42.401"/>
	<rect x="225.642" y="512.859" fill="none" width="46.828" height="42.401"/>
	<rect x="2337.771" y="172.514" fill="none" width="46.828" height="42.401"/>
	<rect x="225.642" y="172.514" fill="none" width="46.828" height="42.401"/>
	<rect x="2282.68" y="571.787" fill="none" width="38.564" height="49.581"/>
	<rect x="288.997" y="571.787" fill="none" width="38.564" height="49.581"/>
	<rect x="2282.68" y="106.407" fill="none" width="38.564" height="49.581"/>
	<rect x="288.997" y="106.407" fill="none" width="38.564" height="49.581"/>
	<rect x="2469.984" y="395.497" fill="none" width="40.765" height="53.99"/>
	<rect x="99.492" y="395.497" fill="none" width="40.765" height="53.99"/>
	<rect x="2469.984" y="278.287" fill="none" width="40.765" height="53.99"/>
	<rect x="99.492" y="278.287" fill="none" width="40.765" height="53.99"/>
	<rect x="2337.771" y="466.014" fill="none" width="46.828" height="33.623"/>
	<rect x="225.642" y="466.014" fill="none" width="46.828" height="33.623"/>
	<rect x="2337.771" y="228.137" fill="none" width="46.828" height="33.623"/>
	<rect x="225.642" y="228.137" fill="none" width="46.828" height="33.623"/>
	<rect x="2397.824" y="571.787" fill="none" width="55.636" height="51.254"/>
	<rect x="156.781" y="571.787" fill="none" width="55.636" height="51.254"/>
	<rect x="2397.824" y="104.734" fill="none" width="55.636" height="51.254"/>
	<rect x="156.781" y="104.734" fill="none" width="55.636" height="51.254"/>
	<rect x="2469.987" y="571.787" fill="none" width="31.408" height="51.254"/>
	<rect x="108.846" y="571.787" fill="none" width="31.408" height="51.254"/>
	<rect x="2469.987" y="104.734" fill="none" width="31.408" height="51.254"/>
	<rect x="108.846" y="104.734" fill="none" width="31.408" height="51.254"/>
	<rect x="2469.987" y="512.859" fill="none" width="31.408" height="42.401"/>
	<rect x="108.846" y="512.859" fill="none" width="31.408" height="42.401"/>
	<rect x="2469.987" y="172.514" fill="none" width="31.408" height="42.401"/>
	<rect x="108.846" y="172.514" fill="none" width="31.408" height="42.401"/>
	<path fill="none" d="M1948.28,676.687v-0.232c0.033,0,505.18,0,505.18,0v-40.194h-68.861v-64.475h-46.828v66.108h-71.621V555.26
		h55.094v-42.401h-88.694v123.403h-154.246v-13.222h141.025V499.637h101.915v-50.15h63.355v-171.2h-63.355v-50.15h-101.915V104.734
		h-141.025V91.512h154.246v123.403h88.694v-42.401h-55.094V89.88h71.621v66.108h46.828V91.512h68.861V51.319c0,0-505.147,0-505.18,0
		v-0.232H661.961v0.232c-0.033,0-505.18,0-505.18,0v40.194h68.861v64.475h46.828V89.88h71.621v82.635h-55.094v42.401h88.694V91.512
		h154.246v13.222H390.912v123.403H288.997v50.15h-63.355v171.2h63.355v50.15h101.915v123.403h141.025v13.222H377.691V512.859
		h-88.694v42.401h55.094v82.635H272.47v-66.108h-46.828v64.475h-68.861v40.194c0,0,505.147,0,505.18,0v0.232H1948.28z"/>
	<polygon fill="none" points="2397.82,449.487 2453.46,449.487 2453.46,378.97 2527.276,378.97 2527.276,466.014 2469.987,466.014 
		2469.987,499.637 2514.616,499.637 2514.616,555.26 2568.042,555.26 2568.042,172.514 2514.616,172.514 2514.616,228.137 
		2469.987,228.137 2469.987,261.76 2527.276,261.76 2527.276,348.804 2453.46,348.804 2453.46,278.287 2397.82,278.287 	"/>
	<polygon fill="none" points="212.421,449.487 156.781,449.487 156.781,378.97 82.965,378.97 82.965,466.014 140.254,466.014 
		140.254,499.637 95.625,499.637 95.625,555.26 42.2,555.26 42.2,172.514 95.625,172.514 95.625,228.137 140.254,228.137 
		140.254,261.76 82.965,261.76 82.965,348.804 156.781,348.804 156.781,278.287 212.421,278.287 	"/>
	<path d="M1961.343,693.214v-0.231h508.644v-56.721h31.408v61.698h83.726v-74.92h-70.504v-51.254h69.952v-415.8h-69.952v-51.254
		h70.504v-74.92h-83.726v61.699h-31.408V34.791h-508.644V34.56H648.899v0.231H140.254v56.721h-31.408V29.814H25.121v74.92h70.504
		v51.254H25.673v415.8h69.952v51.254H25.121v74.92h83.726v-61.698h31.408v56.721h508.644v0.231H1961.343z M2571.906,636.262v48.477
		h-57.292v-48.477H2571.906z M95.628,636.262v48.477H38.336v-48.477H95.628z M2514.613,91.512V43.035h57.292v48.477H2514.613z
		 M38.336,91.512V43.035h57.292v48.477H38.336z M1948.28,51.087v0.232c0.033,0,505.18,0,505.18,0v40.194h-68.861v64.475h-46.828
		V89.88h-71.621v82.635h55.094v42.401h-88.694V91.512h-154.246v13.222h141.025v123.403h101.915v50.15h63.355v171.2h-63.355v50.15
		h-101.915v123.403h-141.025v13.222h154.246V512.859h88.694v42.401h-55.094v82.635h71.621v-66.108h46.828v64.475h68.861v40.194
		c0,0-505.147,0-505.18,0v0.232H661.961v-0.232c-0.033,0-505.18,0-505.18,0v-40.194h68.861v-64.475h46.828v66.108h71.621V555.26
		h-55.094v-42.401h88.694v123.403h154.246v-13.222H390.912V499.637H288.997v-50.15h-63.355v-171.2h63.355v-50.15h101.915V104.734
		h141.025V91.512H377.691v123.403h-88.694v-42.401h55.094V89.88H272.47v66.108h-46.828V91.512h-68.861V51.319
		c0,0,505.147,0,505.18,0v-0.232H1948.28z M2568.042,555.26h-53.425v-55.623h-44.629v-33.623h57.289V378.97h-73.816v70.517h-55.64
		v-171.2h55.64v70.517h73.816V261.76h-57.289v-33.623h44.629v-55.623h53.425V555.26z M42.2,172.514h53.425v55.623h44.63v33.623
		H82.965v87.044h73.816v-70.517h55.64v171.2h-55.64V378.97H82.965v87.044h57.289v33.623h-44.63v55.623H42.2V172.514z
		 M2321.244,571.787v49.581h-38.564v-49.581H2321.244z M327.561,571.787v49.581h-38.564v-49.581H327.561z M2282.68,155.987v-49.581
		h38.564v49.581H2282.68z M288.997,155.987v-49.581h38.564v49.581H288.997z M2384.599,466.014v33.623h-46.828v-33.623H2384.599z
		 M272.47,466.014v33.623h-46.828v-33.623H272.47z M2337.771,261.76v-33.623h46.828v33.623H2337.771z M225.642,261.76v-33.623
		h46.828v33.623H225.642z M2469.984,449.487v-53.99h40.766v53.99H2469.984z M99.492,449.487v-53.99h40.765v53.99H99.492z
		 M2510.749,278.287v53.99h-40.766v-53.99H2510.749z M140.258,278.287v53.99H99.492v-53.99H140.258z M2397.82,466.014h55.64v33.623
		h-55.64V466.014z M212.421,499.637h-55.64v-33.623h55.64V499.637z M2397.82,228.137h55.64v33.623h-55.64V228.137z M212.421,261.76
		h-55.64v-33.623h55.64V261.76z M2384.599,512.859v42.401h-46.828v-42.401H2384.599z M272.47,512.859v42.401h-46.828v-42.401H272.47
		z M2337.771,214.916v-42.401h46.828v42.401H2337.771z M225.642,214.916v-42.401h46.828v42.401H225.642z M2397.824,512.859h55.636
		v42.401h-55.636V512.859z M212.418,555.26h-55.636v-42.401h55.636V555.26z M2397.824,172.514h55.636v42.401h-55.636V172.514z
		 M212.418,214.916h-55.636v-42.401h55.636V214.916z M2453.46,571.787v51.254h-55.636v-51.254H2453.46z M212.418,571.787v51.254
		h-55.636v-51.254H212.418z M2397.824,155.987v-51.254h55.636v51.254H2397.824z M156.781,155.987v-51.254h55.636v51.254H156.781z
		 M2469.987,555.26v-42.401h31.408v42.401H2469.987z M108.846,555.26v-42.401h31.408v42.401H108.846z M2501.395,172.514v42.401
		h-31.408v-42.401H2501.395z M140.254,172.514v42.401h-31.408v-42.401H140.254z M2469.987,571.787h31.408v51.254h-31.408V571.787z
		 M140.254,623.041h-31.408v-51.254h31.408V623.041z M2469.987,104.734h31.408v51.254h-31.408V104.734z M140.254,155.987h-31.408
		v-51.254h31.408V155.987z"/>
</g>
</svg>
