<?xml version="1.0" encoding="UTF-8" standalone="no"?>
<!-- Created with Inkscape (https://www.inkscape.org/) -->
<!-- ClipArt by Arvin61r58 (https://openclipart.org/user-detail/Arvin61r58) -->
<svg
   xmlns:dc="http://purl.org/dc/elements/1.1/"
   xmlns:cc="http://creativecommons.org/ns#"
   xmlns:rdf="http://www.w3.org/1999/02/22-rdf-syntax-ns#"
   xmlns:svg="http://www.w3.org/2000/svg"
   xmlns="http://www.w3.org/2000/svg"
   xmlns:xlink="http://www.w3.org/1999/xlink"
   id="svg9"
   version="1.1"
   viewBox="0 0 8.5 11"
   height="11in"
   width="8.5in">
  <title
     id="title3477">Border 97 (US size)</title>
  <defs
     id="defs2" />
  <metadata
     id="metadata6">
    <rdf:RDF>
      <cc:Work
         rdf:about="">
        <dc:format>image/svg+xml</dc:format>
        <dc:type
           rdf:resource="http://purl.org/dc/dcmitype/StillImage" />
        <dc:title>Border 97 (US size)</dc:title>
        <cc:license
           rdf:resource="http://creativecommons.org/publicdomain/zero/1.0/" />
        <dc:creator>
          <cc:Agent>
            <dc:title>Arvin61r58</dc:title>
          </cc:Agent>
        </dc:creator>
        <dc:publisher>
          <cc:Agent>
            <dc:title>Openclipart.org</dc:title>
          </cc:Agent>
        </dc:publisher>
        <dc:identifier>https://openclipart.org/</dc:identifier>
        <dc:source>https://openclipart.org/user-detail/Arvin61r58</dc:source>
        <dc:subject>
          <rdf:Bag>
            <rdf:li>border</rdf:li>
            <rdf:li>DTP</rdf:li>
            <rdf:li>frame</rdf:li>
            <rdf:li>page US</rdf:li>
          </rdf:Bag>
        </dc:subject>
        <dc:description>Page frame/border sized for US (8.5x11in) paper</dc:description>
      </cc:Work>
      <cc:License
         rdf:about="http://creativecommons.org/publicdomain/zero/1.0/">
        <cc:permits
           rdf:resource="http://creativecommons.org/ns#Reproduction" />
        <cc:permits
           rdf:resource="http://creativecommons.org/ns#Distribution" />
        <cc:permits
           rdf:resource="http://creativecommons.org/ns#DerivativeWorks" />
      </cc:License>
    </rdf:RDF>
  </metadata>
  <g
     id="layer1">
    <g
       transform="translate(0.24999872,-0.25)"
       id="g2907">
      <title
         id="title3475">Border 97  --  by Arvin61r58</title>
      <path
         style="fill:#000000;stroke-width:3.77952766"
         d="M 21.919922,0 18.972656,0.94140625 16.025391,1.8808594 9.3535156,1.8359375 2.6816406,1.7890625 2.2363281,2.234375 1.7910156,2.6816406 1.8359375,9.3515625 1.8828125,16.023438 0.94140625,18.972656 0,21.919922 l 1.6933594,1.693359 1.6953125,1.695313 7.0664061,-0.09375 7.064453,-0.0918 0.253907,1.074219 0.253906,1.076172 -2.154297,5.951171 -2.154297,5.951172 -2.195312,4.853516 -2.1972661,4.855469 -1.6015625,1.599609 -1.5996094,1.601563 2.1210938,2.121093 2.1210942,2.121094 1.060546,-1.060547 1.060547,-1.060547 11.314453,11.314453 11.314454,11.3125 2.474609,-2.474609 2.474609,-2.474609 -11.117187,-11.15625 -11.119141,-11.15625 2.615234,-6.839844 2.613282,-6.839844 0.757812,-3.957031 0.757813,-3.955078 1.705078,-1.705078 1.705078,-1.705079 3.955078,-0.755859 3.955078,-0.757812 6.839844,-2.613282 6.839844,-2.615234 11.15625,11.119141 L 71.886719,40.06445 72,39.951172 V 40.125 h 624 v -0.173828 l 0.11523,0.115234 11.15625,-11.117187 11.15625,-11.119141 6.83985,2.613281 6.83984,2.615235 3.95703,0.757812 3.95508,0.75586 1.70508,1.705078 1.70508,1.705078 0.75586,3.955078 0.75781,3.957031 2.61328,6.839844 2.61524,6.839844 -11.11915,11.15625 -11.11718,11.154297 2.47461,2.476562 2.47461,2.47461 11.31445,-11.314454 11.3125,-11.314453 1.06055,1.060547 1.06054,1.060547 2.1211,-2.121094 2.12109,-2.121093 -1.59961,-1.601563 -1.60156,-1.599609 -2.19727,-4.855469 -2.19531,-4.855469 -2.1543,-5.949219 -2.15429,-5.951171 0.2539,-1.076172 0.25391,-1.074219 7.06641,0.0918 7.06445,0.09375 1.69531,-1.695313 1.69336,-1.693359 -0.94141,-2.947266 -0.93945,-2.949218 0.0449,-6.6718755 0.0469,-6.671875 -0.44532,-0.4453125 -0.44726,-0.4453125 -6.66992,0.046875 -6.67188,0.044922 L 749.02734,0.94140625 746.08008,0 l -1.69336,1.6933594 -1.69531,1.6953125 0.0938,7.0664061 0.0918,7.064453 -1.07422,0.253907 -1.07617,0.253906 -5.95117,-2.154297 -5.95117,-2.154297 -4.85352,-2.195312 -4.85547,-2.1972661 -1.59961,-1.6015625 -1.60156,-1.5996094 -2.12109,2.1210938 -2.12109,2.1210942 1.06054,1.060546 1.06055,1.060547 L 702.47852,23.802734 691.2207,35.0625 H 76.783203 L 65.521484,23.800781 54.207031,12.488281 55.267578,11.427734 56.330078,10.367188 54.207031,8.2460938 52.085938,6.125 l -1.59961,1.5996094 -1.601562,1.6015625 -4.855469,2.1972661 -4.853516,2.195312 -5.951172,2.154297 -5.951171,2.154297 -1.076172,-0.253906 -1.074219,-0.253907 0.0918,-7.066406 0.09375,-7.0644531 -1.69336,-1.6953125 z M 10.431641,8.1816406 h 3.470703 3.470703 l 0.771484,0.7714844 0.771485,0.7714844 v 3.4707026 3.470704 l -1.3125,1.226562 -1.3125,1.226563 L 13,19.009766 9.7089844,18.902344 8.9453125,18.138672 8.1816406,17.373047 v -3.470703 -3.470703 l 1.125,-1.1250004 z m 740.195309,0 h 3.47071 3.47265 l 1.125,1.1230469 1.125,1.1250005 v 3.472656 3.470703 l -0.77343,0.771484 -0.77149,0.771485 h -3.4707 -3.47071 l -1.22656,-1.314454 -1.22461,-1.3125 L 748.99023,13 749.09961,9.7089844 749.86328,8.9453125 Z M 46.429688,23.09375 l -1.392579,1.392578 -1.392578,1.394531 -3.93164,1.103516 -3.933594,1.103516 -3.845703,3.845703 -3.845703,3.845703 -1.103516,3.931641 -1.103516,3.933593 -1.392578,1.392578 -1.392578,1.392579 1.257813,1.257812 1.257812,1.257812 2.433594,-0.394531 2.433594,-0.394531 5.5,5.5 5.501953,5.501953 -1.060547,1.060547 -1.060547,1.060547 1.414063,1.414062 1.414062,1.414063 1.257812,-1.257813 1.257813,-1.257812 2.433594,0.394531 2.433593,0.392578 0.75,-0.748047 0.748047,-0.748047 -0.394531,-2.433593 -0.394531,-2.433594 0.904297,-0.904297 0.904297,-0.904297 -1.414063,-1.414062 -1.414062,-1.414063 -0.707032,0.707032 -0.707031,0.707031 -6.365234,-6.363281 -6.363281,-6.365235 2.474609,-2.474609 2.474609,-2.47461 6.365235,6.363282 6.363281,6.365234 -0.707031,0.707031 -0.708985,0.707031 1.414063,1.414063 1.414062,1.414063 0.904297,-0.904297 0.904297,-0.904297 2.433594,0.394531 2.433593,0.394531 0.75,-0.748047 0.748047,-0.748047 -0.394531,-2.433593 -0.394531,-2.433594 1.257812,-1.257813 1.257813,-1.259765 -1.414063,-1.414063 -1.414062,-1.414062 -1.060547,1.060547 -1.060547,1.060547 -5.5,-5.5 -5.501953,-5.5 0.394531,-2.433594 0.394531,-2.433594 -1.257812,-1.257812 z m 675.140622,0.002 -1.25781,1.257813 -1.25781,1.257812 0.39453,2.433594 0.39453,2.433594 -5.5,5.5 -5.50195,5.501953 -1.06055,-1.060547 -1.06055,-1.060547 -1.41406,1.414063 -1.41406,1.414062 1.25781,1.257812 1.25781,1.257813 -0.39453,2.433594 -0.39258,2.433593 0.74805,0.75 0.74805,0.748047 2.43359,-0.394531 2.4336,-0.394531 0.90429,0.904297 0.9043,0.904297 1.41406,-1.414063 1.41406,-1.414062 -0.70703,-0.707032 -0.70703,-0.708984 6.36328,-6.363281 6.36524,-6.363281 2.47461,2.474609 2.47461,2.474609 -6.36329,6.363282 -6.36523,6.365234 -0.70703,-0.708984 -0.70703,-0.707032 -1.41407,1.414063 -1.41406,1.414062 0.9043,0.904297 0.9043,0.904297 -0.39454,2.433594 -0.39453,2.433593 0.74805,0.75 0.74805,0.748047 2.43359,-0.394531 2.4336,-0.394531 1.25781,1.257812 1.25976,1.257813 1.41407,-1.414063 1.41406,-1.414062 -1.06055,-1.060547 -1.06055,-1.060547 5.5,-5.5 5.5,-5.501953 2.4336,0.394531 2.43359,0.394531 1.25781,-1.257812 1.25977,-1.257812 -1.39258,-1.392579 -1.39258,-1.392578 -1.10547,-3.93164 -1.10351,-3.933594 -3.8457,-3.845703 -3.84571,-3.845703 -3.93164,-1.103516 -3.93164,-1.103516 -1.39258,-1.392578 z"
         transform="matrix(0.01041667,0,0,0.01041667,0,0.5)"
         id="path906" />
      <use
         x="0"
         y="0"
         xlink:href="#path906"
         id="use2891"
         transform="matrix(1,0,0,-1,0,11.5)"
         width="100%"
         height="100%" />
      <path
         style="color:#000000;font-style:normal;font-variant:normal;font-weight:normal;font-stretch:normal;font-size:medium;line-height:normal;font-family:sans-serif;font-variant-ligatures:normal;font-variant-position:normal;font-variant-caps:normal;font-variant-numeric:normal;font-variant-alternates:normal;font-feature-settings:normal;text-indent:0;text-align:start;text-decoration:none;text-decoration-line:none;text-decoration-style:solid;text-decoration-color:#000000;letter-spacing:normal;word-spacing:normal;text-transform:none;writing-mode:lr-tb;direction:ltr;text-orientation:mixed;dominant-baseline:auto;baseline-shift:baseline;text-anchor:start;white-space:normal;shape-padding:0;clip-rule:nonzero;display:inline;overflow:visible;visibility:visible;opacity:1;isolation:auto;mix-blend-mode:normal;color-interpolation:sRGB;color-interpolation-filters:linearRGB;solid-color:#000000;solid-opacity:1;vector-effect:none;fill:#000000;fill-opacity:1;fill-rule:nonzero;stroke:none;stroke-width:0.05208334;stroke-linecap:butt;stroke-linejoin:miter;stroke-miterlimit:4;stroke-dasharray:none;stroke-dashoffset:0;stroke-opacity:1;color-rendering:auto;image-rendering:auto;shape-rendering:auto;text-rendering:auto;enable-background:accumulate"
         d="m 0.36523438,1.25 v 9 h 0.0527344 v -9 z"
         id="path2897" />
      <use
         x="0"
         y="0"
         xlink:href="#path2897"
         id="use2901"
         transform="translate(7.2155129)"
         width="100%"
         height="100%" />
    </g>
  </g>
</svg>
