<?xml version="1.0" encoding="UTF-8" standalone="no"?>
<!-- Created with Inkscape (http://www.inkscape.org/) -->
<!-- ClipArt by Arvin61r58 (http://openclipart.org/user-detail/Arvin61r58) -->
<svg id="svg2" xmlns:rdf="http://www.w3.org/1999/02/22-rdf-syntax-ns#" xmlns="http://www.w3.org/2000/svg" height="11in" width="8.5in" version="1.1" xmlns:cc="http://creativecommons.org/ns#" xmlns:dc="http://purl.org/dc/elements/1.1/" viewBox="0 0 765 990">
 <title id="title4170">Border 46</title>
 <metadata id="metadata7">
  <rdf:RDF>
   <cc:Work rdf:about="">
    <dc:format>image/svg+xml</dc:format>
    <dc:type rdf:resource="http://purl.org/dc/dcmitype/StillImage"/>
    <dc:title>Border 46</dc:title>
    <dc:description>frame/border</dc:description>
    <dc:subject>
     <rdf:Bag>
      <rdf:li>frame</rdf:li>
      <rdf:li>border</rdf:li>
      <rdf:li>Art Deco</rdf:li>
      <rdf:li>black and white</rdf:li>
      <rdf:li>monochrome</rdf:li>
     </rdf:Bag>
    </dc:subject>
    <dc:creator>
     <cc:Agent>
      <dc:title>Arvin61r58</dc:title>
     </cc:Agent>
    </dc:creator>
    <dc:publisher>
     <cc:Agent>
      <dc:title>Openclipart.org</dc:title>
     </cc:Agent>
    </dc:publisher>
    <dc:identifier>https://openclipart.org/</dc:identifier>
    <dc:source>https://openclipart.org/user-detail/Arvin61r58</dc:source>
   </cc:Work>
  </rdf:RDF>
 </metadata>
 <g id="layer1" transform="translate(0 -62.362)">
  <path id="path4149" d="m52.5 1027.4v-2.5h-12.5-12.5v-12.5-12.5h-2.5-2.5v-442.5-442.5h2.5 2.5v-12.5-12.5h12.5 12.5v-2.5-2.5h330 330v2.5 2.5h12.5 12.5v12.5 12.5h2.5 2.5v442.5 442.5h-2.5-2.5v12.5 12.5h-12.5-12.5v2.5 2.5h-330-330v-2.5zm0-10v-2.5h-7.5-7.5v-7.5-7.5h-2.5-2.5v10 10h10 10v-2.5zm680-7.5v-10h-2.5-2.5v7.5 7.5h-7.5-7.5v2.5 2.5h10 10v-10zm-32.5-5v-12.5h-3.75-3.75v8.75 8.75h-310-310v-8.75-8.75h-3.75-3.75v12.5 12.5h317.5 317.5v-12.5zm-12.5-8.75v-8.75h6.25 6.25v-6.25-6.25h8.75 8.75v-417.5-417.5h-8.75-8.75v-6.25-6.25h-6.25-6.25v-8.75-8.75h-305-305v8.75 8.75h-6.25-6.25v6.25 6.25h-8.75-8.75v417.5 417.5h8.75 8.75v6.25 6.25h6.25 6.25v8.75 8.75h305 305v-8.75zm-627.5 1.25v-5h-5-5v5 5h5 5v-5zm655 0v-5h-5-5v5 5h5 5v-5zm-655-13.75v-3.75h-8.75-8.75v-422.5-422.5h8.75 8.75v-3.75-3.75h-12.5-12.5v430 430h12.5 12.5v-3.75zm670-426.29v-430h-12.5-12.5v3.75 3.75h8.75 8.75v422.5 422.5h-8.75-8.75v3.75 3.75h12.5 12.5v-430zm-670-440v-5h-5-5v5 5h5 5v-5zm12.5-3.75v-8.75h310 310v8.75 8.75h3.75 3.75v-12.5-12.5h-317.5-317.5v12.5 12.5h3.75 3.75v-8.75zm642.5 3.75v-5h-5-5v5 5h5 5v-5zm-677.5-10v-7.5h7.5 7.5v-2.5-2.5h-10-10v10 10h2.5 2.5v-7.5zm695-2.5v-10h-10-10v2.5 2.5h7.5 7.5v7.5 7.5h2.5 2.5v-10z">
   <title id="title4172">Border 46  --  by Arvin61r58</title>
  </path>
 </g>
</svg>
