<?xml version="1.0" standalone="no"?>
<!DOCTYPE svg PUBLIC "-//W3C//DTD SVG 20010904//EN"
 "http://www.w3.org/TR/2001/REC-SVG-20010904/DTD/svg10.dtd">
<svg version="1.0" xmlns="http://www.w3.org/2000/svg"
 width="260.000000pt" height="260.000000pt" viewBox="0 0 260.000000 260.000000"
 preserveAspectRatio="xMidYMid meet">
<metadata>
Created by potrace 1.14, written by Peter Selinger 2001-2017
</metadata>
<g transform="translate(0.000000,260.000000) scale(0.100000,-0.100000)"
fill="#000000" stroke="none">
<path d="M626 2493 c-1 -1 -18 -5 -37 -8 -81 -11 -154 -30 -174 -45 -5 -4 -27
-13 -47 -19 -49 -16 -53 -45 -5 -34 17 4 68 7 112 8 75 0 85 -3 139 -35 56
-34 100 -76 142 -135 35 -49 96 -165 87 -165 -4 0 -1 -5 7 -10 13 -9 13 -11 0
-20 -8 -5 -11 -10 -6 -10 5 0 4 -6 -2 -12 -6 -7 -11 -16 -12 -20 0 -4 -7 -23
-15 -41 -8 -19 -15 -40 -17 -48 -2 -8 -7 -17 -11 -20 -5 -3 -9 -12 -11 -20 -1
-8 -12 -34 -23 -59 -39 -82 -83 -181 -83 -185 0 -2 -10 -25 -22 -52 -11 -26
-22 -54 -24 -62 -1 -8 -8 -17 -14 -21 -7 -4 -10 -9 -9 -11 2 -2 -6 -26 -18
-54 -12 -27 -22 -54 -24 -60 -1 -5 -13 -30 -26 -54 -12 -24 -23 -47 -23 -52 0
-4 -14 -38 -31 -76 -17 -37 -30 -70 -30 -73 0 -3 -6 -14 -13 -25 -7 -11 -20
-38 -28 -60 -9 -22 -29 -67 -44 -100 -15 -33 -28 -62 -29 -65 -6 -28 -18 -50
-26 -50 -6 0 -8 -4 -5 -9 7 -11 -76 -88 -107 -100 -13 -5 -41 -12 -62 -15 -41
-7 -52 -12 -43 -22 3 -3 102 -5 219 -5 331 0 315 -1 300 14 -6 6 -20 13 -29
13 -34 3 -61 17 -76 38 -12 20 -22 62 -16 76 1 3 3 12 5 20 1 8 11 33 20 55
10 22 19 42 19 45 1 3 14 34 31 70 16 36 30 70 31 75 5 24 24 64 33 69 15 10
563 9 571 -1 5 -4 15 -28 23 -53 18 -53 88 -228 114 -285 31 -69 116 -215 125
-215 4 0 8 -6 8 -13 0 -8 9 -22 20 -32 11 -10 20 -24 20 -32 0 -7 5 -13 10
-13 6 0 15 -11 22 -25 6 -13 15 -22 19 -19 5 3 9 1 9 -4 0 -26 164 -165 227
-192 17 -8 30 -17 27 -21 -2 -4 6 -9 19 -13 13 -3 41 -13 63 -23 21 -9 45 -16
52 -14 6 1 12 -2 12 -7 0 -9 17 -14 105 -28 72 -12 234 -8 265 7 8 4 44 17 80
29 36 12 71 27 77 32 19 15 6 28 -20 21 -61 -15 -194 -4 -251 21 -17 8 -41 17
-53 21 -13 3 -23 11 -23 16 0 6 -4 8 -9 5 -5 -3 -11 1 -15 9 -3 8 -11 15 -18
15 -13 0 -138 114 -138 125 0 4 -13 20 -30 38 -16 18 -30 37 -30 43 0 6 -7 17
-15 24 -18 15 -111 180 -107 192 1 4 -2 8 -6 8 -14 0 -80 148 -190 420 -39 96
-78 193 -88 215 -10 22 -19 45 -20 50 -2 9 -59 149 -87 215 -6 14 -11 27 -12
30 -1 3 -9 22 -18 44 -9 21 -17 45 -17 52 0 8 -5 14 -11 14 -5 0 -8 4 -5 8 3
5 -1 19 -7 33 -7 13 -19 40 -26 59 -26 67 -116 245 -133 264 -10 11 -18 26
-18 33 0 7 -4 13 -10 13 -5 0 -10 4 -10 10 0 10 -20 37 -52 72 -10 10 -18 23
-18 28 0 6 -3 10 -7 10 -5 0 -35 25 -67 55 -33 30 -61 53 -64 50 -2 -2 -11 2
-18 10 -8 7 -35 21 -61 30 -27 10 -55 20 -63 23 -30 10 -147 22 -154 15z m309
-653 c-3 -5 -1 -10 4 -10 6 0 10 -3 9 -7 -3 -10 32 -115 42 -128 5 -5 9 -14
10 -20 5 -21 12 -41 21 -57 5 -10 9 -22 9 -27 0 -5 8 -26 17 -47 9 -22 18 -43
19 -49 7 -31 10 -40 14 -45 9 -8 51 -122 57 -152 3 -16 9 -28 13 -28 5 0 7 -8
6 -17 -2 -14 -14 -18 -52 -18 -27 -1 -56 2 -65 6 -9 5 -20 5 -23 1 -10 -9
-117 -10 -137 0 -9 4 -20 4 -23 0 -10 -10 -118 -10 -138 0 -10 5 -20 4 -24 -3
-11 -18 -24 11 -13 30 23 41 86 200 81 205 -3 3 0 6 6 6 7 0 12 6 12 14 0 8
16 52 36 98 20 45 43 97 50 115 8 17 14 36 14 43 0 6 5 8 12 4 6 -4 8 -3 5 3
-8 13 23 93 35 93 5 0 6 -4 3 -10z"/>
</g>
</svg>
