<?xml version="1.0" encoding="utf-8"?>

<!DOCTYPE svg PUBLIC "-//W3C//DTD SVG 1.1//EN" "http://www.w3.org/Graphics/SVG/1.1/DTD/svg11.dtd">
<svg version="1.1" id="Layer_1" xmlns="http://www.w3.org/2000/svg" xmlns:xlink="http://www.w3.org/1999/xlink" x="0px" y="0px"
	 viewBox="0 0 1642 1642" enable-background="new 0 0 1642 1642" xml:space="preserve">
<g>
	<path d="M1592.4873,49.5127l-231.9929-0.1187l-372.2285,0.1904c-4.6915,13.0833-10.8343,21.4407-21.183,32.2959
		c-9.4971-5.6827-19.5841-9.3116-29.7564-11.3279c-13.5667-2.6894-27.2841-2.5103-39.9507-0.5099
		c4.5685-6.6158,5.5533-13.4895,4.6519-20.4089c-3.5812-33.0502-34.3242-18.9053-44.9053-12.9716
		C840.4277,25.1057,836.5302,21.2644,821,21c-15.5302,0.2644-19.4277,4.1057-36.1224,15.662
		c-10.5811-5.9337-41.324-20.0786-44.9053,12.9716c-0.9014,6.9195,0.0834,13.7931,4.6519,20.4089
		c-12.6666-2.0003-26.384-2.1794-39.9507,0.5099c-10.1723,2.0163-20.2593,5.6453-29.7564,11.3279
		c-10.3487-10.8552-16.4915-19.2127-21.183-32.2959L281.5056,49.394L49.5127,49.5127L49.394,281.5056l0.1904,372.2285
		c13.0833,4.6915,21.4407,10.8343,32.2959,21.183c-5.6827,9.4971-9.3116,19.5841-11.3279,29.7564
		c-2.6894,13.5667-2.5103,27.2841-0.5099,39.9507c-6.6158-4.5685-13.4895-5.5533-20.4089-4.6519
		c-33.0502,3.5812-18.9053,34.3242-12.9716,44.9053C25.1057,801.5723,21.2644,805.4698,21,821
		c0.2644,15.5302,4.1057,19.4277,15.662,36.1224c-5.9337,10.5811-20.0786,41.324,12.9716,44.9053
		c6.9195,0.9014,13.7931-0.0834,20.4089-4.6519c-2.0003,12.6666-2.1794,26.384,0.5099,39.9507
		c2.0163,10.1723,5.6453,20.2593,11.3279,29.7564c-10.8552,10.3487-19.2127,16.4915-32.2959,21.183l-0.1904,372.2285
		l0.1187,231.9929l231.9929,0.1187l372.2285-0.1904c4.6915-13.0833,10.8343-21.4407,21.183-32.2959
		c9.4971,5.6826,19.5841,9.3116,29.7564,11.3279c13.5667,2.6893,27.2841,2.5103,39.9507,0.51
		c-4.5685,6.6157-5.5533,13.4894-4.6519,20.4088c3.5812,33.0503,34.3242,18.9053,44.9053,12.9717
		c16.6948,11.5563,20.5923,15.3976,36.1224,15.662c15.5302-0.2644,19.4277-4.1057,36.1224-15.662
		c10.5811,5.9336,41.324,20.0786,44.9053-12.9717c0.9014-6.9194-0.0834-13.7931-4.6519-20.4088
		c12.6666,2.0002,26.384,2.1793,39.9507-0.51c10.1723-2.0162,20.2593-5.6453,29.7564-11.3279
		c10.3487,10.8552,16.4915,19.2126,21.183,32.2959l372.2285,0.1904l231.9929-0.1187l0.1187-231.9929l-0.1904-372.2285
		c-13.0833-4.6915-21.4407-10.8343-32.2959-21.183c5.6826-9.4971,9.3116-19.5841,11.3279-29.7564
		c2.6893-13.5667,2.5103-27.2841,0.51-39.9507c6.6157,4.5685,13.4894,5.5533,20.4088,4.6519
		c33.0503-3.5812,18.9053-34.3242,12.9717-44.9053c11.5563-16.6948,15.3976-20.5923,15.662-36.1224
		c-0.2644-15.5302-4.1057-19.4277-15.662-36.1224c5.9336-10.5811,20.0786-41.324-12.9717-44.9053
		c-6.9194-0.9014-13.7931,0.0834-20.4088,4.6519c2.0002-12.6666,2.1793-26.384-0.51-39.9507
		c-2.0162-10.1723-5.6453-20.2593-11.3279-29.7564c10.8552-10.3487,19.2126-16.4915,32.2959-21.183l0.1904-372.2285
		L1592.4873,49.5127z M821,58.4379c15.3832,1.0161,27.546,13.8155,27.5463,29.4558c0,0.0005,0,0.001,0,0.0015
		c0.0004,15.6407-12.1628,28.4408-27.5463,29.4569c-15.3835-1.0162-27.5468-13.8162-27.5463-29.4569c0-0.0005,0-0.001,0-0.0015
		C793.454,72.2535,805.6168,59.4541,821,58.4379z M1583.562,821c-1.0161,15.3832-13.8154,27.546-29.4558,27.5463
		c-0.0005,0-0.001,0-0.0015,0c-15.6407,0.0004-28.4408-12.1628-29.4569-27.5463c1.0161-15.3835,13.8162-27.5468,29.4569-27.5463
		c0.0005,0,0.001,0,0.0015,0C1569.7466,793.454,1582.5459,805.6168,1583.562,821z M821,1583.562
		c-15.3832-1.0161-27.546-13.8154-27.5463-29.4558c0-0.0005,0-0.001,0-0.0015c-0.0004-15.6407,12.1628-28.4408,27.5463-29.4569
		c15.3835,1.0161,27.5468,13.8162,27.5463,29.4569c0,0.0005,0,0.001,0,0.0015C848.546,1569.7466,836.3832,1582.5459,821,1583.562z
		 M58.4379,821c1.0161-15.3832,13.8155-27.546,29.4558-27.5463c0.0005,0,0.001,0,0.0015,0
		c15.6407-0.0004,28.4408,12.1628,29.4569,27.5463c-1.0162,15.3835-13.8162,27.5468-29.4569,27.5463c-0.0005,0-0.001,0-0.0015,0
		C72.2535,848.546,59.4541,836.3832,58.4379,821z M955.9956,90.9742c-10.4706,9.7014-17.1951,12.7503-29.4276,12.4203
		c-15.057-0.4061-31.015-6.4629-37.6412-14.0304c4.6179-6.7252,14.6949-9.0965,25.7879-8.9826
		C930.9271,80.5484,949.3096,86.024,955.9956,90.9742z M90.9742,686.0044c9.7014,10.4706,12.7503,17.1951,12.4203,29.4276
		c-0.4061,15.057-6.4629,31.015-14.0304,37.6412c-6.7252-4.6179-9.0965-14.6949-8.9826-25.7879
		C80.5484,711.0729,86.024,692.6904,90.9742,686.0044z M686.0044,1551.0258c10.4706-9.7014,17.1951-12.7502,29.4276-12.4203
		c15.057,0.4061,31.015,6.4629,37.6412,14.0304c-4.6179,6.7252-14.6949,9.0966-25.7879,8.9827
		C711.0729,1561.4517,692.6904,1555.9761,686.0044,1551.0258z M1551.0258,955.9956c-9.7014-10.4706-12.7502-17.1951-12.4203-29.4276
		c0.4061-15.057,6.4629-31.015,14.0304-37.6412c6.7252,4.6179,9.0966,14.6949,8.9827,25.7879
		C1561.4517,930.9271,1555.9761,949.3096,1551.0258,955.9956z M1561.6185,727.2853c0.1139,11.093-2.2574,21.17-8.9827,25.7879
		c-7.5675-6.6263-13.6243-22.5842-14.0304-37.6412c-0.33-12.2325,2.7189-18.957,12.4203-29.4276
		C1555.9761,692.6904,1561.4517,711.0729,1561.6185,727.2853z M727.2853,80.3815c11.093-0.114,21.17,2.2574,25.7879,8.9826
		c-6.6263,7.5675-22.5842,13.6244-37.6412,14.0304c-12.2325,0.3299-18.957-2.7189-29.4276-12.4203
		C692.6904,86.024,711.0729,80.5484,727.2853,80.3815z M80.3815,914.7147c-0.114-11.093,2.2574-21.17,8.9826-25.7879
		c7.5675,6.6263,13.6244,22.5842,14.0304,37.6412c0.3299,12.2325-2.7189,18.957-12.4203,29.4276
		C86.024,949.3096,80.5484,930.9271,80.3815,914.7147z M914.7147,1561.6185c-11.093,0.1139-21.17-2.2574-25.7879-8.9827
		c6.6263-7.5675,22.5842-13.6243,37.6412-14.0304c12.2325-0.33,18.957,2.7189,29.4276,12.4203
		C949.3096,1555.9761,930.9271,1561.4517,914.7147,1561.6185z M1488.2589,153.7411h-452.8644
		c-6.7216-17.1081-15.1885-29.8994-23.2484-35.7c5.4932-6.9657,12.7606-21.1802,12.4355-29.143h528.5201v528.5202
		c-7.9628-0.325-22.1772,6.9424-29.1429,12.4355c-5.8005-8.0599-18.5919-16.5269-35.7-23.2484V153.7411z M1488.2589,1488.2589
		v-452.8644c17.108-6.7216,29.8994-15.1885,35.7-23.2484c6.9657,5.4932,21.1802,12.7606,29.1429,12.4355v528.5201h-528.5201
		c0.3251-7.9628-6.9424-22.1772-12.4355-29.1429c8.0599-5.8005,16.5269-18.5919,23.2484-35.7H1488.2589z M153.7411,1488.2589
		h452.8643c6.7216,17.108,15.1885,29.8994,23.2484,35.7c-5.4932,6.9657-12.7606,21.1802-12.4355,29.1429H88.8982v-528.5201
		c7.9628,0.3251,22.1773-6.9424,29.143-12.4355c5.8006,8.0599,18.5919,16.5269,35.7,23.2484V1488.2589z M153.7411,153.7411v452.8643
		c-17.1081,6.7216-29.8994,15.1885-35.7,23.2484c-6.9657-5.4932-21.1802-12.7606-29.143-12.4355V88.8982h528.5202
		c-0.325,7.9628,6.9424,22.1773,12.4355,29.143c-8.0599,5.8006-16.5269,18.5919-23.2484,35.7H153.7411z M821,163.9776
		c23.5647-0.088,45.2054-15.825,58.2294-26.9902c15.1577,8.6065,30.4236,16.1496,46.9814,16.135
		c27.4355-0.0239,58.9155-12.0085,77.7964-26.8675c5.8588,2.6421,23.1149,22.5343,25.4023,39.1481h447.1875v447.1876
		c16.6138,2.2873,36.506,19.5434,39.1481,25.4022c-14.859,18.8809-26.8436,50.3608-26.8674,77.7964
		c-0.0146,16.5578,7.5284,31.8237,16.135,46.9814c-11.1653,13.024-26.9022,34.6647-26.9902,58.2294
		c0.088,23.5647,15.825,45.2054,26.9902,58.2294c-8.6066,15.1577-16.1497,30.4236-16.135,46.9814
		c0.0238,27.4355,12.0084,58.9155,26.8674,77.7964c-2.6421,5.8588-22.5343,23.1149-39.1481,25.4023v447.1875h-447.1875
		c-2.2874,16.6138-19.5435,36.506-25.4023,39.1481c-18.8809-14.859-50.3608-26.8436-77.7964-26.8674
		c-16.5578-0.0146-31.8237,7.5284-46.9814,16.135c-13.024-11.1653-34.6647-26.9022-58.2294-26.9902
		c-23.5647,0.088-45.2054,15.825-58.2294,26.9902c-15.1577-8.6066-30.4236-16.1497-46.9814-16.135
		c-27.4355,0.0238-58.9155,12.0084-77.7964,26.8674c-5.8588-2.6421-23.1149-22.5343-25.4022-39.1481H165.403v-447.1875
		c-16.6137-2.2874-36.5059-19.5435-39.1481-25.4023c14.859-18.8809,26.8436-50.3608,26.8675-77.7964
		c0.0146-16.5578-7.5285-31.8237-16.135-46.9814c11.1652-13.024,26.9022-34.6647,26.9902-58.2294
		c-0.088-23.5647-15.825-45.2054-26.9902-58.2294c8.6065-15.1577,16.1496-30.4236,16.135-46.9814
		c-0.0239-27.4355-12.0085-58.9155-26.8675-77.7964c2.6421-5.8588,22.5343-23.1149,39.1481-25.4022V165.403h447.1876
		c2.2873-16.6137,19.5434-36.5059,25.4022-39.1481c18.8809,14.859,50.3608,26.8436,77.7964,26.8675
		c16.5578,0.0146,31.8237-7.5285,46.9814-16.135C775.7946,148.1526,797.4353,163.8896,821,163.9776z"/>
</g>
</svg>
