<?xml version="1.0" encoding="utf-8"?>
<svg version="1.1" id="Layer_1" xmlns="http://www.w3.org/2000/svg" xmlns:xlink="http://www.w3.org/1999/xlink" x="0px" y="0px"
	 viewBox="0 0 2654.285 189.531" enable-background="new 0 0 2654.285 189.531" xml:space="preserve">

<g>
	<path style="fill:#e3e3e0" d="M381.7729,124.595c-2.3572,0.1122-4.7103,0.5463-7.0108,1.0464c8.023,24.642-22.3727,42.7595-42.0322,47.2576
		c-24.0579,5.5045-49.5474-2.5091-66.9494-19.7899c17.189-11.1334,33.4472-24.1566,51.7349-33.4765
		c8.8325-4.5013,18.5211-8.8015,28.5279-9.5358c4.8259-0.3541,9.6955,0.3591,14.217,2.0885
		c2.2597,0.8643,4.0662,2.4202,6.2935,2.296c2.7006-0.1506,5.9818-1.8252,8.6792-2.3908
		c-11.7797-12.0741-30.765-8.2176-44.473-2.213c-15.1325,6.6286-29.0923,15.5059-42.8669,24.5445
		c-6.9041,4.5303-13.9005,8.8883-21.1553,12.8387c-3.5525,1.9344-3.5679,2.9105-5.5275-0.5594
		c-2.1037-3.725-3.5309-7.8942-4.0491-12.1444c-0.8141-6.6764,0.2963-15.4143,6.3238-19.5038
		c4.95-3.3584,10.5081-2.8328,15.2708,0.2289c-2.6895,0.2151-6.7156,0.241-7.0533,3.7637
		c-0.5025,5.2419,6.7676,4.9882,9.9308,3.6656c4.7654-1.9926,6.5152-7.019,3.7312-11.505
		c-2.6629-4.2908-8.0531-5.7137-12.8102-5.4786c-23.2061,1.1472-22.149,30.8405-13.7322,45.6547
		c-10.8807,5.5295-22.8885,10.3405-35.0773,11.7774c-11.4077,1.3448-25.7658-0.0532-35.129-7.4153
		c-8.0854-6.3573-12.3201-19.9268-6.8682-29.21c5.6938-9.6954,19.4182-4.7756,16.907,6.3268
		c-2.1049-2.3107-5.8193-5.0531-8.2549-1.3817c-3.7758,5.6918,4.34,8.3597,8.3725,7.5826
		c13.7631-2.6525,4.2274-19.9142-5.401-21.5001c-13.9922-2.3045-21.2248,11.1227-20.121,23.2752
		c1.0814,11.9045,8.7451,22.0457,19.2997,27.358c11.932,6.0056,25.7686,5.7228,38.3561,2.1015
		c5.8651-1.6873,11.5139-4.0518,16.952-6.809c2.7598-1.3992,11.4886-8.0322,14.051-7.5013c1.2648,0.262,4.3207,5.0577,5.412,6.1317
		c2.2503,2.2147,4.6649,4.2528,7.2164,6.1127c5.2026,3.7924,10.9636,6.8423,16.9495,9.1989
		c12.1974,4.8019,25.777,7.0941,38.8332,5.3123c25.5896-3.4923,57.2363-28.3461,51.6142-57.2552
		C381.9043,125.2559,381.8563,124.9727,381.7729,124.595z"/>
	<path style="fill:#e3e3e0" d="M390.9144,114.4227c-17.8198-2.0074-34.819,6.9246-48.826,17.0084c-15.7106,11.3103-29.7467,24.7657-44.7592,36.9553
		c1.4627,0.4388,3.1874,1.2335,4.7308,1.3464c2.4413,0.1786,2.4962-0.3752,4.4797-2.0794c2.8749-2.4701,5.7261-4.9676,8.5825-7.459
		c5.2402-4.5706,10.4868-9.1375,15.893-13.512c10.1415-8.2062,20.931-16.0543,33.1024-20.9706
		c11.666-4.7122,28.6491-7.9443,38.7448,1.8228c5.6654,5.4811,14.5594,28.8185,0.5709,30.1263
		c0.5323-5.6219-11.727,5.73-1.6084,5.6214c6.9518-0.0746,13.8077-7.5452,15.63-13.6786
		C422.7058,131.9309,407.5437,116.2961,390.9144,114.4227z"/>
	<path style="fill:#e3e3e0" d="M280.1694,181.2905c-4.5162,3.0908-9.1349,6.0479-13.9515,8.6517c-9.3837,5.0728-19.4257,8.6575-30.0846,9.7092
		c-21.4088,2.1125-44.0842-3.7177-63.2812-12.9403c-38.1548-18.3303-68.3839-55.5909-112.2559-61.0502
		c-9.6636-1.2025-20.474-1.2672-29.4689,2.9626c-4.0952,1.9257-7.6448,4.7571-9.9675,8.6892
		c-1.3086,2.2153-5.5948,10.5933-1.2812,12.1863c1.6184,0.5977,3.1584-0.677,3.4008-2.2498
		c0.2293-1.4877-1.5535-2.4786-1.6481-3.5577c-0.1988-2.2679,2.22-5.5155,3.8998-7.0836c5.8713-5.4813,16.658-6.1931,24.2037-5.8054
		c20.849,1.071,40.7971,13.5926,58.031,24.3663c18.5168,11.5757,36.0269,24.7648,54.9128,35.7502
		c20.2218,11.7624,41.3915,17.6122,64.868,15.0119c22.7963-2.525,44.8874-11.6792,63.1903-25.4063
		c-1.4333-0.5658-4.407-2.6023-5.8598-2.5114C283.5354,178.0972,281.2494,180.5515,280.1694,181.2905z"/>
	<path style="fill:#e3e3e0" d="M427.6675,91.7606c2.115,3.7476,3.676,8.2313,4.3845,12.4821c1.0112-6.0673,3.6238-13.5701,8.4235-17.684
		c-2.6907-7.037-9.6884-11.707-14.857-3.9006c-0.9648,1.4572-1.9073,2.9766-1.4396,4.3889
		C424.6542,88.4819,426.8595,90.3287,427.6675,91.7606z"/>
	<path style="fill:#e3e3e0" d="M432.0521,170.27c0,2.6741-1.8058,6.4899-3.0165,8.8526c-0.7045,1.3747-1.8922,2.5955-2.5555,3.946
		c-0.9847,2.0049-1.1904,1.8491,0.2036,4.0325c3.9553,6.1959,9.4476,3.4042,11.8932-2.166
		c0.0813-0.1656,0.1708-0.3663,0.2767-0.6436C435.6592,181.2969,432.0521,174.8177,432.0521,170.27z"/>
	<path style="fill:#e3e3e0" d="M602.7969,155.8821c1.4635-0.2777,7.0081,4.1434,8.4692,4.9507c3.2831,1.814,6.6221,3.5316,10.0486,5.0599
		c12.0627,5.3802,25.6065,8.7593,38.8015,6.1562c11.9305-2.3537,23.0497-9.471,28.0656-20.8669
		c4.5779-10.4008,4.4998-26.5795-7.298-32.1525c-6.0673-2.8661-13.736-2.1202-18.4164,2.9431
		c-3.7316,4.0368-6.368,11.8774-0.9141,15.6212c3.8852,2.6669,13.2283,2.6533,12.8412-3.8739
		c-0.364-6.1367-6.3736-3.7677-8.9449-0.8583c-0.9841-6.3362,1.9664-12.4545,9.2596-11.457
		c9.2988,1.2719,11.0572,12.3571,9.4087,19.9737c-4.2544,19.6568-27.5682,23.9515-44.6871,21.6536
		c-9.7727-1.3118-19.0856-4.8008-28.0382-8.8109c-1.1485-0.5145-4.9086-1.4474-5.4303-2.5244
		c-0.5947-1.2275-0.1673-0.0863,0.173-1.8506c0.3204-1.6608,1.7586-3.4565,2.3751-5.0731c0.9861-2.5858,1.7012-5.2756,2.1468-8.0056
		c2.4475-14.9947-5.5946-34.8845-24.1699-30.6329c-8.8752,2.0314-13.2861,14.1929-2.483,17.089
		c3.0955,0.8298,9.5664,0.1075,8.3548-4.6973c-0.7728-3.0648-4.4299-3.0374-6.9585-3.2438
		c4.751-3.0543,10.2887-3.5737,15.2184-0.2289c6.0448,4.1013,7.1188,12.8098,6.3271,19.5038
		c-0.4559,3.8544-1.6176,7.6206-3.4256,11.0549c-1.7,3.229-1.4697,4.1489-4.5536,2.5131
		c-7.5391-3.9989-14.7885-8.4895-21.9263-13.1598c-13.8434-9.0577-27.7435-17.8956-42.8602-24.7136
		c-13.8508-6.2471-33.2928-10.4781-45.3094,1.8389c2.6182,0.549,5.1349,1.4744,7.7316,2.061
		c2.8153,0.636,3.6891-0.4694,6.4302-1.6185c4.4576-1.8687,9.3055-2.7154,14.1317-2.4857
		c10.3105,0.4907,20.3564,4.9641,29.4241,9.5853c18.2896,9.3208,34.5403,22.3485,51.735,33.4765
		c-16.1921,17.5519-43.0435,24.9764-66.0655,19.9775c-19.5363-4.242-51.5276-22.6092-42.8638-47.4453
		c-1.3943-0.3031-3.9395-1.2006-5.3627-0.9025c-0.5668-0.048-1.1336-0.0959-1.7004-0.1439c-0.2449,1.1951-0.42,2.4004-0.5251,3.6158
		c-0.2676,3.0193-0.0989,6.0678,0.4058,9.0538c1.042,6.1652,3.5398,12.069,6.9208,17.3094
		c6.7927,10.5284,17.3619,18.8024,28.8085,23.7203c24.4753,10.5159,55.7111,3.8497,75.679-13.2654
		C595.9834,163.0034,600.5038,156.3171,602.7969,155.8821z"/>
	<path style="fill:#e3e3e0" d="M445.8874,166.9116c-2.0114-0.7062-3.1588,1.1053-4.4702-0.0424c-2.1776-1.9058-2.5541-7.9827-3.0869-10.7778
		c-0.929-4.8746-1.5856-9.8157-2.0635-14.7541c-1.5341-15.855,0.4494-37.4879,12.4965-49.3842
		c4.9141-4.8527,14.0768-7.7969,19.8077-2.4645c4.1246,3.8378,3.3589,13.9888-3.9763,11.5103
		c0.2906-0.3392,0.59-0.8253,0.9417-1.0987c2.9359-3.4252-1.556-6.7382-4.5518-3.7147c-2.7178,2.7429-0.7678,7.0522,1.7355,9.1837
		c8.0791,6.8793,16.4628-4.3352,14.9734-12.1948c-1.7418-9.1918-11.8015-12.9984-20.1805-10.899
		c-8.9074,2.2319-15.2545,10.033-18.8195,18.1095c-1.8565,4.2059-3.1255,8.6727-4.093,13.1586
		c-0.3586,1.6631-0.8737,10.5357-2.1708,10.9468c-2.2149,0.702-1.9425-5.7548-2.2055-7.2574
		c-0.9034-5.1605-2.1185-10.3508-4.0945-15.2158c-3.2589-8.0233-8.8582-15.9106-17.2596-19.0504
		c-8.2261-3.0742-19.2507-0.4801-22.0975,8.7062c-2.6155,8.4401,6.6331,21.5165,15.0974,13.2375
		c2.5345-2.479,4.1833-8.0017-0.1987-9.6895c-4.4831-1.7267-4.4568,3.4086-2.1623,5.7778
		c-7.303,2.4667-8.1185-7.6769-3.9763-11.5103c5.7576-5.3283,14.9357-2.3902,19.855,2.4645
		c11.993,11.8352,14.0347,33.611,12.468,49.3842c-0.4904,4.9366-1.1555,9.8799-2.0823,14.7541
		c-0.5132,2.6991-0.914,8.8871-3.0869,10.7778c-1.2932,1.1254-2.4754-0.6606-4.4546,0.0424
		c-2.6621,0.9456-2.9763,4.3631-2.326,6.7667c1.0188,3.7656,4.3711,4.9601,7.6177,2.8177c2.8107-1.8547,4.3479-5.6381,5.437-8.6866
		c1.6948-4.744,2.2896-9.8021,3.0911-14.7526c0.8037,4.9642,1.4575,9.9871,3.1393,14.7526c1.0927,3.0963,2.5988,6.7777,5.441,8.6866
		c3.1819,2.1369,6.554,0.9315,7.5918-2.8177C448.8844,171.2933,448.5558,167.8485,445.8874,166.9116z"/>
	<path style="fill:#e3e3e0" d="M845.0794,141.7311c-3.2643-9.2075-11.5082-14.0391-20.7208-15.7864c-44.6018-8.4593-81.3735,29.5487-115.6807,51.1219
		c-20.2665,12.7441-42.8936,21.2589-66.9291,22.7559c-24.0085,1.4954-43.3513-8.4265-62.4695-21.8093
		c-1.9459,0.894-3.9204,1.7251-5.9121,2.5114c31.103,23.3272,75.3193,34.6497,112.1724,18.6365
		c39.2029-17.0342,69.7738-50.0546,110.4473-64.4161c9.6203-3.3969,19.5759-4.9456,29.7096-3.2446
		c3.5074,0.5887,7.1506,1.3716,10.2609,3.1743c2.4624,1.4272,6.6872,5.2257,6.5809,8.4545
		c-0.0565,1.7158-2.5985,2.9258-1.3865,5.1535c0.8094,1.4877,2.6577,1.7049,3.839,0.6278
		C846.8058,147.2554,845.7502,143.6232,845.0794,141.7311z"/>
	<path style="fill:#e3e3e0" d="M538.9648,151.5228c4.3372,3.6713,8.601,7.4278,12.8812,11.165c2.2836,1.994,4.61,4.5557,7.1567,6.1981
		c2.5889,1.6696,4.7606,0.4041,7.7723-0.4994c-14.7686-11.9916-28.5574-25.2695-43.9874-36.4301
		c-14.2335-10.2951-31.4056-19.5757-49.5783-17.5336c-16.5034,1.8545-31.1048,16.8752-26.7519,34.3828
		c1.6078,6.4667,8.5836,14.3719,15.8471,14.4769c4.1403,0.0599,4.5638-3.6251,1.9765-6.197
		c-1.3353-1.3273-3.9245-2.3656-3.5577,0.5756c-7.4891-0.8564-7.9545-10.2981-6.8346-16.1069
		c1.4039-7.2813,5.7911-14.3664,12.5904-17.6533c14.1129-6.8223,31.726-0.0338,44.314,7.0772
		C520.8829,136.8255,530.08,144.0022,538.9648,151.5228z"/>
</g>
</svg>
