<?xml version="1.0" encoding="utf-8"?>

<!DOCTYPE svg PUBLIC "-//W3C//DTD SVG 1.1//EN" "http://www.w3.org/Graphics/SVG/1.1/DTD/svg11.dtd">
<svg version="1.1" id="Layer_1" xmlns="http://www.w3.org/2000/svg" xmlns:xlink="http://www.w3.org/1999/xlink" x="0px" y="0px"
	 viewBox="0 0 2600.777 366.113" enable-background="new 0 0 2600.777 366.113" xml:space="preserve">
<g>
	<path style="fill:#e3e3e0" d="M1557.883,317.261c4.475-1.108,9.434,1.004,11.923,4.846c7.921,11.492-9.194,24.699-18.353,13.308
		C1545.923,328.533,1550.138,318.918,1557.883,317.261z M1042.894,48.852c-4.475,1.108-9.434-1.004-11.923-4.846
		c-7.921-11.492,9.194-24.699,18.353-13.308C1054.854,37.581,1050.639,47.196,1042.894,48.852z M1049.324,335.415
		c-9.159,11.391-26.274-1.816-18.353-13.308c2.489-3.841,7.448-5.954,11.923-4.846
		C1050.639,318.918,1054.854,328.533,1049.324,335.415z M1551.453,30.698c9.159-11.391,26.274,1.816,18.353,13.308
		c-2.489,3.841-7.448,5.954-11.923,4.846C1550.138,47.196,1545.923,37.581,1551.453,30.698z M2182.085,339.148
		c-9.497,2.741-16.76-6.098-14.335-13.937c2.289-7.999,12.442-11.057,18.611-5.176
		C2192.93,326.051,2190.177,336.646,2182.085,339.148z M418.692,26.965c9.497-2.741,16.759,6.098,14.335,13.937
		c-2.289,7.999-12.442,11.057-18.611,5.176C407.847,40.062,410.6,29.467,418.692,26.965z M414.416,320.035
		c6.168-5.881,16.321-2.822,18.611,5.176c2.425,7.839-4.838,16.677-14.335,13.937C410.6,336.646,407.847,326.051,414.416,320.035z
		 M2186.361,46.078c-6.168,5.881-16.321,2.822-18.611-5.176c-2.425-7.839,4.838-16.677,14.335-13.937
		C2190.177,29.467,2192.93,40.062,2186.361,46.078z M1300.388,231.61c17.285-25.341,52.211-47.285,82.623-47.528
		c61.681-6.471,102.984,47.898,105.384,94.868c-23.813,12.167-49.973,14.048-76.357,10.918c2.457-6.29,6.873-11.701,12.203-15.796
		c9.354-6.985,20.559-3.303,30.475,2.742c-11.361-25.616-44.169-26.19-61.515-14.063c16.071-86.211-79.159-65.182-52.742-20.394
		c4.58,7.744,22.12,16.941,33.135,2.231c-16.732,7.488-18.391-7.746-14.909-13.873c7.229-12.65,28.175-8.613,31.629,12.923
		c2.52,15.714-5.922,28.825-9.176,39.271c-29.491-9.208-56.781-24.732-80.75-44.131c-23.968,19.399-51.258,34.924-80.75,44.131
		c-3.255-10.446-11.696-23.557-9.176-39.271c3.454-21.536,24.4-25.573,31.629-12.923c3.482,6.127,1.823,21.362-14.909,13.873
		c11.016,14.711,28.556,5.513,33.135-2.231c26.417-44.788-68.813-65.817-52.741,20.394c-17.347-12.127-50.155-11.553-61.515,14.063
		c9.916-6.045,21.121-9.727,30.475-2.742c5.33,4.095,9.746,9.507,12.203,15.796c-26.383,3.129-52.543,1.249-76.357-10.918
		c2.4-46.97,43.702-101.339,105.383-94.868C1248.178,184.326,1283.104,206.269,1300.388,231.61z M1300.388,134.503
		c-17.284,25.341-52.211,47.285-82.623,47.528c-61.681,6.471-102.984-47.898-105.383-94.868
		c23.813-12.167,49.973-14.048,76.357-10.918c-2.457,6.29-6.873,11.701-12.203,15.796c-9.354,6.985-20.559,3.303-30.475-2.742
		c11.361,25.616,44.169,26.19,61.515,14.063c-16.072,86.211,79.159,65.182,52.741,20.394c-4.58-7.744-22.12-16.941-33.135-2.231
		c16.732-7.488,18.391,7.746,14.909,13.873c-7.229,12.65-28.175,8.613-31.629-12.923c-2.52-15.714,5.922-28.825,9.176-39.271
		c29.491,9.208,56.781,24.732,80.75,44.131c23.968-19.399,51.258-34.924,80.75-44.131c3.254,10.446,11.696,23.557,9.176,39.271
		c-3.454,21.536-24.4,25.573-31.629,12.923c-3.482-6.127-1.823-21.362,14.909-13.873c-11.016-14.711-28.556-5.513-33.135,2.231
		c-26.417,44.788,68.813,65.817,52.742-20.394c17.347,12.127,50.155,11.553,61.515-14.063c-9.916,6.045-21.121,9.727-30.475,2.742
		c-5.33-4.095-9.747-9.507-12.203-15.796c26.383-3.129,52.543-1.249,76.357,10.918c-2.4,46.97-43.702,101.339-105.384,94.868
		C1352.599,181.788,1317.673,159.844,1300.388,134.503z M1353.152,243.145c-4.695-7.151-6.414-14.594-0.982-21.249
		c7.813-9.713,21.551-10.252,30.959,0.348C1365.533,212.465,1349.084,223.416,1353.152,243.145z M1247.625,122.969
		c4.695,7.151,6.414,14.594,0.982,21.249c-7.813,9.713-21.551,10.252-30.959-0.348
		C1235.243,153.649,1251.693,142.698,1247.625,122.969z M1217.648,222.244c9.408-10.601,23.146-10.062,30.959-0.348
		c5.432,6.655,3.713,14.098-0.982,21.249C1251.693,223.416,1235.243,212.465,1217.648,222.244z M1383.129,143.869
		c-9.408,10.601-23.146,10.062-30.959,0.348c-5.432-6.655-3.713-14.098,0.982-21.249
		C1349.084,142.698,1365.533,153.649,1383.129,143.869z M1412.405,260.117c9.724-2,20.814-1.113,28.882,5.168
		c-36.498-4.064-61.07,55.264-9.755,78.429C1370.874,349.428,1367.089,269.953,1412.405,260.117z M1188.372,105.996
		c-9.724,2-20.814,1.113-28.882-5.168c36.498,4.064,61.07-55.264,9.756-78.429C1229.903,16.686,1233.688,96.161,1188.372,105.996z
		 M1169.245,343.714c51.315-23.165,26.742-82.493-9.756-78.429c8.068-6.281,19.158-7.167,28.882-5.168
		C1233.688,269.953,1229.903,349.428,1169.245,343.714z M1431.531,22.4c-51.315,23.165-26.742,82.493,9.755,78.429
		c-8.068,6.281-19.158,7.167-28.882,5.168C1367.089,96.161,1370.874,16.686,1431.531,22.4z M1411.988,314.153
		c24.841,2.846,50.556,1.05,74.112-7.715C1474.962,346.777,1424.923,346.335,1411.988,314.153z M1188.788,51.96
		c-24.841-2.846-50.556-1.05-74.112,7.715C1125.815,19.337,1175.853,19.778,1188.788,51.96z M1114.676,306.438
		c23.556,8.765,49.271,10.561,74.112,7.715C1175.853,346.335,1125.815,346.777,1114.676,306.438z M1486.101,59.675
		c-23.556-8.765-49.271-10.561-74.112-7.715C1424.923,19.778,1474.962,19.337,1486.101,59.675z M1490.608,304.651
		c-1.425,0.548-2.851,1.086-4.276,1.638c2.041-8.9,2.724-18.09,2.244-27.199c1.208-0.661,2.421-1.303,3.615-1.968
		C1492.938,286.302,1492.698,295.642,1490.608,304.651z M1110.169,61.463c1.425-0.548,2.851-1.086,4.276-1.638
		c-2.041,8.9-2.724,18.09-2.244,27.199c-1.208,0.661-2.421,1.303-3.615,1.968C1107.839,79.811,1108.079,70.472,1110.169,61.463z
		 M1108.585,277.122c1.195,0.665,2.407,1.308,3.615,1.968c-0.48,9.109,0.204,18.298,2.244,27.199
		c-1.425-0.552-2.851-1.09-4.276-1.638C1108.079,295.642,1107.839,286.302,1108.585,277.122z M1492.191,88.992
		c-1.194-0.665-2.407-1.308-3.615-1.968c0.48-9.109-0.203-18.298-2.244-27.199c1.425,0.552,2.851,1.09,4.276,1.638
		C1492.698,70.472,1492.938,79.811,1492.191,88.992z M1514.544,291.642c-4.382-5.623-11.127-18.079-11.977-20.769
		c-0.394-0.013-0.787,0.005-1.172,0.059c-2.774,2.371-6.004,4.136-9.117,6.027c-1.405-17.05-6.039-31.004-6.493-33.76
		c5.534,8.941,11.104,17.887,16.045,27.176c0.222,0.023,0.67,0.059,0.896,0.081c0.729-0.647,1.457-1.294,2.204-1.891
		c3.991,7.068,7.633,14.38,12.353,21.013C1516.372,290.262,1515.458,290.941,1514.544,291.642z M1086.233,74.472
		c4.382,5.623,11.127,18.079,11.977,20.769c0.394,0.013,0.787-0.005,1.172-0.059c2.774-2.371,6.004-4.136,9.118-6.027
		c1.404,17.05,6.039,31.004,6.493,33.76c-5.534-8.941-11.104-17.887-16.045-27.176c-0.222-0.023-0.67-0.059-0.896-0.081
		c-0.729,0.647-1.457,1.294-2.204,1.891c-3.991-7.068-7.633-14.38-12.353-21.013C1084.405,75.852,1085.319,75.173,1086.233,74.472z
		 M1083.495,289.579c4.719-6.634,8.362-13.946,12.353-21.013c0.747,0.597,1.475,1.244,2.204,1.891
		c0.226-0.022,0.674-0.059,0.896-0.081c4.941-9.29,10.511-18.235,16.045-27.176c-0.454,2.756-5.089,16.71-6.493,33.76
		c-3.113-1.891-6.344-3.656-9.118-6.027c-0.385-0.054-0.778-0.072-1.172-0.059c-0.851,2.69-7.595,15.146-11.977,20.769
		C1085.319,290.941,1084.405,290.262,1083.495,289.579z M1517.281,76.535c-4.719,6.634-8.362,13.946-12.353,21.013
		c-0.747-0.597-1.475-1.244-2.204-1.891c-0.226,0.022-0.674,0.059-0.896,0.081c-4.941,9.29-10.511,18.235-16.045,27.176
		c0.454-2.756,5.089-16.71,6.493-33.76c3.113,1.891,6.344,3.656,9.117,6.027c0.385,0.054,0.778,0.072,1.172,0.059
		c0.851-2.69,7.595-15.146,11.977-20.769C1515.458,75.173,1516.372,75.852,1517.281,76.535z M1505.11,268.353
		c-17.534-34.762-39.016-67.832-74.981-81.429c32.94,4.916,70.947,36.878,94.356,60.777
		C1519.078,255.484,1512.548,262.475,1505.11,268.353z M1095.667,97.761c17.534,34.762,39.016,67.832,74.981,81.429
		c-32.94-4.916-70.947-36.878-94.357-60.777C1081.699,110.629,1088.228,103.639,1095.667,97.761z M1076.292,247.701
		c23.409-23.9,61.416-55.862,94.357-60.777c-35.965,13.596-57.447,46.667-74.981,81.429
		C1088.228,262.475,1081.699,255.484,1076.292,247.701z M1524.485,118.412c-23.409,23.9-61.416,55.862-94.356,60.777
		c35.965-13.596,57.447-46.667,74.981-81.429C1512.548,103.639,1519.078,110.629,1524.485,118.412z M1544.955,260.991
		c10.357-15.068,17.135-32.475,20.421-50.425c13.344,9.434,29.158,15.995,45.628,16.629c0.097,31.64,16.944,67.3,47.167,91.461
		C1610.822,318.866,1579.855,295.834,1544.955,260.991z M1055.821,105.123c-10.357,15.068-17.135,32.475-20.421,50.425
		c-13.344-9.434-29.158-15.995-45.628-16.629c-0.097-31.64-16.944-67.3-47.167-91.461
		C989.954,47.248,1020.922,70.279,1055.821,105.123z M942.605,318.655c30.223-24.161,47.07-59.821,47.167-91.461
		c16.47-0.633,32.285-7.194,45.628-16.629c3.285,17.95,10.063,35.357,20.421,50.425
		C1020.922,295.834,989.954,318.866,942.605,318.655z M1658.171,47.458c-30.223,24.161-47.07,59.821-47.167,91.461
		c-16.47,0.633-32.285,7.194-45.628,16.629c-3.285-17.95-10.063-35.357-20.421-50.425
		C1579.855,70.279,1610.822,47.248,1658.171,47.458z M1666.619,320.841c9.158-1.412,18.543-2.679,26.986-6.738
		c13.784-6.746,27.22-18.155,29.982-33.687c5.734-27.767-27.643-43.323-37.036-14.824c-4.489-14.532,5.262-27.27,15.516-28.787
		c35.608-6.628,52.896,47.015,7.186,72.954C1694.344,318.311,1673.953,321.296,1666.619,320.841z M934.157,45.273
		c-9.158,1.412-18.543,2.679-26.986,6.738c-13.784,6.746-27.22,18.155-29.982,33.687c-5.734,27.767,27.643,43.323,37.036,14.824
		c4.489,14.532-5.262,27.27-15.516,28.787c-35.607,6.628-52.896-47.015-7.186-72.954C906.432,47.802,926.824,44.818,934.157,45.273z
		 M891.524,309.759c-45.71-25.939-28.422-79.582,7.186-72.954c10.254,1.517,20.004,14.255,15.516,28.787
		c-9.393-28.499-42.77-12.943-37.036,14.824c2.762,15.533,16.198,26.942,29.982,33.687c8.444,4.059,17.828,5.326,26.986,6.738
		C926.824,321.296,906.432,318.311,891.524,309.759z M1709.252,56.354c45.71,25.939,28.422,79.582-7.186,72.954
		c-10.254-1.517-20.004-14.255-15.516-28.787c9.393,28.499,42.77,12.943,37.036-14.824c-2.762-15.533-16.198-26.942-29.982-33.687
		c-8.443-4.059-17.828-5.326-26.986-6.738C1673.953,44.818,1694.344,47.802,1709.252,56.354z M1705.705,314.895
		c15.516-6.925,26.812-19.297,31.47-30.579c1.701-4.824,2.529-9.928,2.787-15.018c86.348-0.032,172.7,0.023,259.047-0.027
		c1.163,22.147,16.475,37.721,34.267,45.624C2006.048,323.567,1722.031,320.024,1705.705,314.895z M895.072,51.219
		c-15.516,6.925-26.812,19.297-31.47,30.579c-1.701,4.824-2.529,9.928-2.787,15.018c-86.348,0.032-172.7-0.023-259.047,0.027
		c-1.163-22.147-16.475-37.721-34.267-45.624C594.728,42.547,878.746,46.089,895.072,51.219z M567.5,314.895
		c17.791-7.902,33.104-23.477,34.267-45.624c86.348,0.05,172.7-0.005,259.047,0.027c0.258,5.09,1.086,10.194,2.787,15.018
		c4.659,11.282,15.955,23.654,31.47,30.579C878.746,320.024,594.728,323.567,567.5,314.895z M2033.276,51.219
		c-17.791,7.902-33.104,23.477-34.267,45.624c-86.348-0.05-172.7,0.005-259.047-0.027c-0.258-5.09-1.086-10.194-2.787-15.018
		c-4.659-11.282-15.955-23.654-31.47-30.579C1722.031,46.089,2006.048,42.547,2033.276,51.219z M2019.326,302.438
		c-27.21-23.512-20.024-59.343,5.751-65.253c21.359-5.066,32.068,13.329,27.339,28.307c-4.464-13.446-18.946-19.76-28.217-11.339
		c-22.086,18.614-2.919,54.276,29.959,63.194c5.927,1.715,12.068,2.493,18.145,3.488
		C2064.085,321.416,2036.788,317.613,2019.326,302.438z M581.451,63.675c27.21,23.512,20.024,59.343-5.751,65.253
		c-21.359,5.066-32.068-13.329-27.339-28.307c4.464,13.446,18.946,19.76,28.217,11.339c22.086-18.614,2.919-54.276-29.959-63.194
		c-5.928-1.715-12.068-2.493-18.145-3.489C536.692,44.697,563.988,48.5,581.451,63.675z M528.474,320.836
		c6.077-0.995,12.217-1.774,18.145-3.488c32.878-8.918,52.045-44.581,29.959-63.194c-9.271-8.421-23.753-2.107-28.217,11.339
		c-4.729-14.978,5.98-33.373,27.339-28.307c25.775,5.91,32.962,41.741,5.751,65.253
		C563.988,317.613,536.692,321.416,528.474,320.836z M2072.303,45.277c-6.077,0.995-12.217,1.774-18.145,3.489
		c-32.878,8.918-52.045,44.58-29.959,63.194c9.271,8.421,23.753,2.107,28.217-11.339c4.729,14.978-5.98,33.373-27.339,28.307
		c-25.775-5.91-32.962-41.741-5.751-65.253C2036.788,48.5,2064.085,44.697,2072.303,45.277z M2080.891,318.66
		c1.787-1.747,3.842-3.181,5.679-4.864c28.173-25.617,41.52-59.022,41.398-86.601c16.498-0.597,32.267-7.24,45.683-16.579
		c3.308,17.923,10,35.357,20.42,50.371C2143.719,311.048,2113.886,318.676,2080.891,318.66z M519.886,47.454
		c-1.787,1.747-3.842,3.181-5.679,4.864c-28.173,25.616-41.52,59.022-41.398,86.601c-16.498,0.597-32.267,7.24-45.683,16.579
		c-3.308-17.923-10-35.357-20.42-50.371C457.058,55.066,486.891,47.437,519.886,47.454z M406.706,260.986
		c10.421-15.014,17.113-32.448,20.42-50.371c13.416,9.339,29.185,15.982,45.683,16.579c-0.122,27.579,13.225,60.985,41.398,86.601
		c1.837,1.683,3.891,3.117,5.679,4.864C486.891,318.676,457.058,311.048,406.706,260.986z M2194.071,105.127
		c-10.421,15.014-17.113,32.448-20.42,50.371c-13.416-9.339-29.185-15.982-45.683-16.579c0.122-27.579-13.225-60.985-41.398-86.601
		c-1.837-1.683-3.891-3.117-5.679-4.864C2113.886,47.437,2143.719,55.066,2194.071,105.127z M2214.555,247.751
		c18.915-19.646,44.76-41.184,69.501-52.832c7.869-3.665,16.145-6.652,24.737-8.032c-23.389,9.206-48.431,27.852-74.823,81.416
		C2226.401,262.606,2220.003,255.47,2214.555,247.751z M386.222,118.362c-18.915,19.646-44.76,41.184-69.502,52.832
		c-7.869,3.665-16.144,6.652-24.737,8.032c23.389-9.206,48.431-27.852,74.823-81.416
		C374.376,103.507,380.774,110.643,386.222,118.362z M366.806,268.303c-26.391-53.564-51.433-72.209-74.823-81.416
		c8.593,1.38,16.869,4.366,24.737,8.032c24.741,11.648,50.587,33.186,69.502,52.832C380.774,255.47,374.376,262.606,366.806,268.303
		z M2233.971,97.811c26.391,53.564,51.433,72.209,74.823,81.416c-8.593-1.38-16.869-4.366-24.737-8.032
		c-24.741-11.648-50.586-33.186-69.501-52.832C2220.003,110.643,2226.401,103.507,2233.971,97.811z M2224.419,291.633
		c-0.909-0.697-1.814-1.376-2.719-2.032c4.729-6.634,8.371-13.937,12.344-21.022c0.896,0.728,1.81,1.457,2.733,2.195
		C2232.953,277.882,2229.378,285.221,2224.419,291.633z M376.358,74.481c0.91,0.697,1.814,1.376,2.72,2.032
		c-4.729,6.634-8.371,13.937-12.344,21.022c-0.896-0.728-1.81-1.457-2.733-2.195C367.824,88.232,371.398,80.892,376.358,74.481z
		 M364,270.773c0.923-0.738,1.837-1.466,2.733-2.195c3.973,7.086,7.615,14.389,12.344,21.022c-0.905,0.656-1.81,1.335-2.72,2.032
		C371.398,285.221,367.824,277.882,364,270.773z M2236.776,95.34c-0.923,0.738-1.837,1.466-2.733,2.195
		c-3.973-7.086-7.615-14.389-12.344-21.022c0.905-0.656,1.81-1.335,2.719-2.032C2229.378,80.892,2232.953,88.232,2236.776,95.34z
		 M2248.853,250.267c1.538-2.344,2.796-4.873,4.543-7.073c-3.321,10.986-5.643,22.294-6.688,33.733
		c-3.385-1.919-6.701-3.982-9.76-6.376C2240.799,263.724,2244.722,256.932,2248.853,250.267z M351.923,115.846
		c-1.538,2.344-2.796,4.873-4.543,7.073c3.321-10.986,5.642-22.294,6.688-33.733c3.385,1.919,6.701,3.982,9.76,6.376
		C359.978,102.39,356.055,109.182,351.923,115.846z M363.828,270.552c-3.059,2.394-6.376,4.457-9.76,6.376
		c-1.045-11.439-3.366-22.747-6.688-33.733c1.747,2.199,3.005,4.728,4.543,7.073C356.055,256.932,359.978,263.724,363.828,270.552z
		 M2236.948,95.562c3.059-2.394,6.376-4.457,9.76-6.376c1.045,11.439,3.366,22.747,6.688,33.733
		c-1.747-2.199-3.005-4.728-4.543-7.073C2244.722,109.182,2240.799,102.39,2236.948,95.562z M2248.36,304.633
		c-2.113-8.987-2.154-18.307-1.57-27.47c1.186,0.611,2.375,1.235,3.579,1.869c-0.358,9.118,0.203,18.321,2.326,27.222
		C2251.229,305.723,2249.79,305.203,2248.36,304.633z M352.417,61.481c2.113,8.987,2.154,18.307,1.57,27.47
		c-1.186-0.611-2.376-1.235-3.579-1.869c0.358-9.118-0.203-18.321-2.326-27.222C349.548,60.39,350.987,60.911,352.417,61.481z
		 M348.082,306.253c2.122-8.901,2.683-18.104,2.326-27.222c1.204-0.633,2.394-1.258,3.579-1.869
		c0.584,9.163,0.543,18.484-1.57,27.47C350.987,305.203,349.548,305.723,348.082,306.253z M2252.695,59.861
		c-2.122,8.901-2.683,18.104-2.326,27.222c-1.204,0.633-2.394,1.258-3.579,1.869c-0.584-9.163-0.543-18.484,1.57-27.47
		C2249.79,60.911,2251.229,60.39,2252.695,59.861z M2252.853,306.416c23.552,8.792,49.284,10.597,74.126,7.729
		C2314.042,346.776,2264.4,346.523,2252.853,306.416z M347.923,59.698c-23.552-8.792-49.284-10.597-74.126-7.729
		C286.735,19.337,336.376,19.59,347.923,59.698z M273.798,314.144c24.841,2.869,50.574,1.063,74.126-7.729
		C336.376,346.523,286.735,346.776,273.798,314.144z M2326.979,51.969c-24.841-2.869-50.574-1.063-74.126,7.729
		C2264.4,19.59,2314.042,19.337,2326.979,51.969z M2307.427,343.718c51.817-22.026,26.25-82.632-9.71-78.433
		c5.882-4.692,13.656-6.312,21.045-6.077C2370.635,259.312,2372.65,349.822,2307.427,343.718z M293.349,22.395
		c-51.817,22.026-26.25,82.632,9.71,78.433c-5.882,4.692-13.656,6.312-21.045,6.077C230.141,106.802,228.126,16.291,293.349,22.395z
		 M282.015,259.208c7.389-0.235,15.163,1.385,21.045,6.077c-35.961-4.199-61.528,56.408-9.71,78.433
		C228.126,349.822,230.141,259.312,282.015,259.208z M2318.762,106.906c-7.389,0.235-15.163-1.385-21.045-6.077
		c35.961,4.199,61.528-56.408,9.71-78.433C2372.65,16.291,2370.635,106.802,2318.762,106.906z M2357.947,282.95
		c-2.389-7.452-6.317-14.339-8.127-21.986c-5.011-19.689,3.206-32.864,12.33-36.452c22.14-8.415,28.712,30.978,3.244,20.077
		c12.028,14.982,31.344,6.499,35.941-8.719c12.082-43.891-71.71-52.078-55.529,26.905c-16.822-11.861-50.185-11.818-61.502,14.041
		c20.483-12.773,35.464-5.277,42.66,13.04c-26.285,3.446-52.988,0.939-76.361-10.887c1.437-29.889,18.582-59.65,41.018-76.94
		c44.578-34.371,115.888-19.577,150.026,34.199C2412.694,260.565,2386.708,273.008,2357.947,282.95z M242.83,83.164
		c2.389,7.452,6.317,14.339,8.127,21.986c5.011,19.689-3.205,32.864-12.33,36.452c-22.14,8.415-28.712-30.978-3.244-20.077
		c-12.028-14.983-31.344-6.499-35.941,8.719c-12.082,43.891,71.71,52.078,55.529-26.905c16.822,11.861,50.185,11.818,61.502-14.041
		c-20.483,12.773-35.464,5.277-42.66-13.04c26.285-3.446,52.988-0.939,76.361,10.887c-1.436,29.889-18.582,59.65-41.018,76.94
		c-44.578,34.371-115.888,19.577-150.026-34.199C188.083,105.548,214.069,93.105,242.83,83.164z M159.129,236.226
		c34.138-53.775,105.448-68.57,150.026-34.199c22.436,17.291,39.581,47.051,41.018,76.94
		c-23.373,11.825-50.076,14.333-76.361,10.887c7.196-18.317,22.177-25.813,42.66-13.04c-11.317-25.858-44.679-25.902-61.502-14.041
		c16.181-78.983-67.611-70.796-55.529-26.905c4.596,15.219,23.913,23.702,35.941,8.719c-25.468,10.901-18.895-28.491,3.244-20.077
		c9.125,3.588,17.341,16.764,12.33,36.452c-1.81,7.647-5.738,14.534-8.127,21.986C214.069,273.008,188.083,260.565,159.129,236.226z
		 M2441.648,129.887c-34.138,53.775-105.448,68.57-150.026,34.199c-22.436-17.291-39.581-47.051-41.018-76.94
		c23.373-11.825,50.076-14.333,76.361-10.887c-7.196,18.317-22.177,25.813-42.66,13.04c11.317,25.858,44.679,25.902,61.502,14.041
		c-16.182,78.983,67.611,70.796,55.529,26.905c-4.597-15.219-23.913-23.702-35.941-8.719c25.468-10.901,18.896,28.491-3.244,20.077
		c-9.125-3.588-17.341-16.764-12.33-36.452c1.81-7.647,5.738-14.534,8.127-21.986
		C2386.708,93.105,2412.694,105.548,2441.648,129.887z M2356.137,222.005c2.063-2.443,4.742-4.33,7.606-5.719
		c13.604-6.629,34.993,6.184,22.235,26.773c-0.118,0.036-0.353,0.113-0.471,0.149
		C2391.655,229.942,2377.85,210.994,2356.137,222.005z M244.64,144.109c-2.063,2.443-4.742,4.33-7.606,5.719
		c-13.604,6.629-34.993-6.184-22.235-26.773c0.118-0.036,0.353-0.113,0.471-0.149C209.122,136.171,222.926,155.12,244.64,144.109z
		 M215.269,243.208c-0.118-0.036-0.353-0.113-0.471-0.149c-12.758-20.59,8.632-33.403,22.235-26.773
		c2.864,1.389,5.543,3.276,7.606,5.719C222.926,210.994,209.122,229.942,215.269,243.208z M2385.508,122.905
		c0.118,0.036,0.353,0.113,0.471,0.149c12.758,20.59-8.632,33.403-22.235,26.773c-2.864-1.389-5.543-3.276-7.606-5.719
		C2377.85,155.12,2391.655,136.171,2385.508,122.905z M1057.346,183.057c-0.462-19.425,4.459-41.468,16.131-60.337
		c11.932,11.67,24.366,22.873,37.787,32.819c17.796,13.111,38.525,22.573,60.022,27.518c-21.498,4.945-42.227,14.407-60.022,27.518
		c-13.421,9.946-25.855,21.149-37.787,32.819C1061.805,224.525,1056.884,202.481,1057.346,183.057z M1543.431,183.057
		c0.462,19.425-4.459,41.468-16.131,60.337c-11.932-11.67-24.366-22.873-37.787-32.819c-17.796-13.111-38.525-22.573-60.022-27.518
		c21.498-4.945,42.227-14.407,60.022-27.518c13.421-9.946,25.855-21.149,37.787-32.819
		C1538.972,141.588,1543.893,163.632,1543.431,183.057z M432.051,183.057c17.247-12.833,39.683-21.405,65.255-21.636
		c-1.283-32.47,14.105-85.825,58.991-106.171c7.262,3.665,13.385,9.434,17.805,16.226c18.474,28.993-10.735,49.376-21.181,31.149
		c-1.76-2.959-2.706-6.29-3.792-9.538c-23.83,43.408,47.59,57.029,52.56,9.036c29.165,0.032,236.305,0.043,259.169-0.014
		c2.292,24.729,24.723,34.084,41.339,29.126c13.942-5.363,20.758-21.514,11.136-38.171c-8.093,29.554-29.71,13.744-30.873-0.982
		c-1.249-14.332,10.546-30.333,23.891-36.814c41.754,19.889,61.031,69.66,58.836,106.139c25.191,0.254,47.828,8.533,65.43,21.649
		c-17.601,13.117-40.238,21.395-65.43,21.649c2.195,36.479-17.082,86.25-58.836,106.139c-13.345-6.481-25.14-22.482-23.891-36.814
		c1.163-14.726,22.78-30.536,30.873-0.982c9.622-16.657,2.807-32.808-11.136-38.171c-16.616-4.958-39.047,4.398-41.339,29.126
		c-22.865-0.057-230.005-0.045-259.169-0.014c-4.971-47.992-76.391-34.371-52.56,9.036c1.086-3.249,2.031-6.579,3.792-9.538
		c10.446-18.227,39.655,2.155,21.181,31.149c-4.421,6.792-10.543,12.561-17.805,16.226c-44.886-20.346-60.274-73.701-58.991-106.171
		C471.734,204.461,449.298,195.89,432.051,183.057z M2168.725,183.057c-17.247,12.833-39.683,21.405-65.255,21.636
		c1.283,32.47-14.105,85.825-58.991,106.171c-7.262-3.665-13.385-9.434-17.805-16.226c-18.474-28.993,10.735-49.376,21.181-31.149
		c1.76,2.959,2.706,6.29,3.792,9.538c23.83-43.408-47.59-57.029-52.56-9.036c-29.165-0.032-236.305-0.043-259.169,0.014
		c-2.292-24.729-24.724-34.084-41.339-29.126c-13.942,5.363-20.758,21.514-11.136,38.171c8.093-29.554,29.71-13.744,30.873,0.982
		c1.249,14.332-10.546,30.333-23.891,36.814c-41.754-19.889-61.031-69.66-58.836-106.139c-25.191-0.254-47.828-8.533-65.43-21.649
		c17.601-13.117,40.238-21.395,65.43-21.649c-2.195-36.479,17.082-86.25,58.836-106.139c13.345,6.481,25.14,22.482,23.891,36.814
		c-1.163,14.726-22.78,30.536-30.873,0.982c-9.622,16.657-2.807,32.808,11.136,38.171c16.615,4.958,39.047-4.398,41.339-29.126
		c22.865,0.057,230.005,0.045,259.169,0.014c4.971,47.992,76.391,34.371,52.56-9.036c-1.086,3.249-2.031,6.579-3.792,9.538
		c-10.446,18.227-39.655-2.155-21.181-31.149c4.421-6.792,10.543-12.561,17.805-16.226c44.886,20.346,60.274,73.701,58.991,106.171
		C2129.042,161.652,2151.478,170.224,2168.725,183.057z M288.55,183.057c30.799-7.554,64.876-26.109,100.586-60.319
		c11.705,19.087,16.662,41.179,16.287,60.319c0.375,19.139-4.582,41.232-16.287,60.319
		C353.426,209.165,319.349,190.611,288.55,183.057z M2312.227,183.057c-30.799,7.554-64.876,26.109-100.586,60.319
		c-11.705-19.087-16.662-41.179-16.287-60.319c-0.375-19.139,4.582-41.232,16.287-60.319
		C2247.351,156.948,2281.428,175.502,2312.227,183.057z M2488.019,183.057c-5.893,9.09-12.366,17.805-19.33,26.088
		c-11.87-7.327-21.687-16.209-29.492-26.088c7.805-9.879,17.623-18.761,29.492-26.088
		C2475.652,165.252,2482.126,173.967,2488.019,183.057z M112.758,183.057c5.893-9.09,12.366-17.805,19.33-26.088
		c11.87,7.327,21.687,16.209,29.492,26.088c-7.806,9.879-17.623,18.761-29.492,26.088
		C125.125,200.861,118.651,192.146,112.758,183.057z M1300.388,269.38c23.281,16.471,49.107,29.373,76.438,37.569
		c-0.347,53.792,99.743,60.24,113.904-2.149c8.303-3.502,16.298-7.764,23.66-12.968c7.036,9.823,15.76,18.339,25.298,25.719
		c-9.347,21.519,31.439,38.049,36.393,15.805c3.863-16.579-21.245-31.713-34.176-19.167c-9.597-6.538-17.416-15.276-24.421-24.457
		c8.465-6.689,14.361-11.308,24.371-24.28c67.657,64.046,88.273,54.826,123.487,58.303c16.83,9.36,34.584,18.196,65.235,18.28
		c296.619,0.015,304.036,5.525,340.671-16.878c13.428-7.789,45.829,17.656,125.859-59.769c8.344,10.75,13.479,15.89,24.38,24.334
		c-6.964,9.213-14.805,17.964-24.443,24.457c-13.774-13.967-42.28,6.202-32.787,22.552c9.743,17.64,43.563-0.06,35.076-19.172
		c9.502-7.412,18.258-15.878,25.253-25.728c7.366,5.199,15.371,9.448,23.665,12.977c13.76,58.664,109.57,59.921,114.067,2.027
		c32.38-9.529,62.484-26.022,88.931-46.882c6.763,35.859-19.371,60.52-50.696,46.407c6.401,40.662,66.103,50.745,86.506,10.136
		c31.345,33.863,50.845,13.219,93.33,31.407c-18.219-42.408,2.396-62.498-31.475-93.361c29.708-14.507,32.315-50.615,15.782-71.486
		c16.532-20.871,13.926-56.979-15.782-71.486c33.871-30.863,13.256-50.954,31.475-93.361c-42.484,18.188-61.985-2.456-93.33,31.407
		c-20.403-40.609-80.105-30.527-86.506,10.136c31.326-14.114,57.46,10.548,50.696,46.407c-26.448-20.86-56.552-37.353-88.931-46.882
		c-4.497-57.894-100.307-56.637-114.067,2.027c-8.294,3.529-16.298,7.778-23.665,12.977c-6.995-9.851-15.751-18.317-25.253-25.728
		c8.487-19.112-25.333-36.812-35.076-19.172c-9.493,16.35,19.013,36.519,32.787,22.552c9.638,6.493,17.479,15.244,24.443,24.457
		c-10.901,8.445-16.036,13.584-24.38,24.334c-80.03-77.425-112.431-51.98-125.859-59.769
		c-36.635-22.403-44.052-16.893-340.671-16.878c-30.651,0.085-48.404,8.921-65.235,18.28c-35.214,3.477-55.831-5.743-123.487,58.303
		c-10.01-12.973-15.906-17.591-24.371-24.28c7.005-9.181,14.823-17.918,24.421-24.457c12.931,12.546,38.039-2.589,34.176-19.167
		c-4.954-22.244-45.741-5.714-36.393,15.805c-9.538,7.38-18.262,15.896-25.298,25.719c-7.362-5.204-15.357-9.466-23.66-12.968
		c-14.161-62.389-114.25-55.942-113.904-2.149c-27.33,8.197-53.156,21.099-76.438,37.569
		c-23.281-16.471-49.107-29.373-76.438-37.569c0.347-53.792-99.743-60.24-113.904,2.149c-8.303,3.502-16.298,7.764-23.66,12.968
		c-7.036-9.823-15.76-18.339-25.298-25.719c9.347-21.519-31.439-38.049-36.393-15.805c-3.863,16.579,21.245,31.713,34.176,19.167
		c9.597,6.538,17.416,15.276,24.421,24.457c-8.465,6.689-14.361,11.308-24.371,24.28c-67.657-64.046-88.273-54.826-123.487-58.303
		c-16.831-9.36-34.584-18.196-65.235-18.28c-296.619-0.015-304.036-5.525-340.671,16.878C516.1,48.745,483.699,23.3,403.67,100.725
		c-8.344-10.75-13.479-15.89-24.38-24.334c6.964-9.213,14.805-17.964,24.443-24.457c13.774,13.967,42.28-6.202,32.787-22.552
		c-9.743-17.64-43.564,0.06-35.077,19.172c-9.502,7.412-18.258,15.878-25.253,25.728c-7.366-5.199-15.371-9.448-23.665-12.977
		c-13.76-58.664-109.57-59.921-114.067-2.027c-32.38,9.529-62.483,26.022-88.931,46.882c-6.764-35.859,19.371-60.52,50.696-46.407
		c-6.401-40.662-66.102-50.745-86.506-10.136C82.373,15.754,62.872,36.398,20.388,18.21c18.219,42.408-2.396,62.498,31.475,93.361
		c-29.708,14.507-32.315,50.615-15.782,71.486c-16.533,20.871-13.926,56.979,15.782,71.486
		c-33.871,30.863-13.256,50.954-31.475,93.361c42.484-18.188,61.985,2.456,93.329-31.407c20.403,40.609,80.105,30.527,86.506-10.136
		c-31.326,14.114-57.46-10.548-50.696-46.407c26.448,20.86,56.551,37.353,88.931,46.882c4.497,57.894,100.307,56.637,114.067-2.027
		c8.294-3.529,16.298-7.778,23.665-12.977c6.995,9.851,15.751,18.317,25.253,25.728c-8.487,19.112,25.334,36.812,35.077,19.172
		c9.493-16.35-19.013-36.519-32.787-22.552c-9.638-6.493-17.479-15.244-24.443-24.457c10.901-8.445,16.036-13.584,24.38-24.334
		c80.03,77.425,112.431,51.979,125.858,59.769c36.635,22.403,44.052,16.893,340.671,16.878c30.651-0.085,48.404-8.921,65.235-18.28
		c35.214-3.477,55.83,5.743,123.487-58.303c10.01,12.973,15.906,17.591,24.371,24.28c-7.005,9.181-14.823,17.918-24.421,24.457
		c-12.931-12.546-38.039,2.589-34.176,19.167c4.954,22.244,45.741,5.714,36.393-15.805c9.538-7.38,18.262-15.896,25.298-25.719
		c7.362,5.204,15.357,9.466,23.66,12.968c14.161,62.389,114.25,55.942,113.904,2.149
		C1251.281,298.753,1277.107,285.851,1300.388,269.38z M2542.761,183.057c1.708,24.931-21.943,41.565-50.318,35.731
		c8.863-11.292,16.954-23.235,24.056-35.731c-7.103-12.496-15.194-24.439-24.056-35.731
		C2520.819,141.492,2544.47,158.126,2542.761,183.057z M58.015,183.057c-1.708-24.931,21.943-41.565,50.318-35.731
		c-8.863,11.292-16.954,23.235-24.056,35.731c7.103,12.496,15.194,24.439,24.056,35.731
		C79.958,224.622,56.307,207.988,58.015,183.057z M2557.094,183.057c22.544,24.051,12.77,64.58-29.28,72.396
		c54.957,23.293,28.1,48.637,41.506,81.361c-31.951-13.243-58.618,13.384-81.429-41.538c-8.567,46.202-55.907,52.961-78.28,22.728
		c28.727,4.59,45.264-10.981,47.877-37.706c3.635-36.263-28.398-83.248-80.659-97.241c52.26-13.993,84.294-60.978,80.659-97.241
		c-2.613-26.725-19.15-42.296-47.877-37.706c22.372-30.233,69.713-23.474,78.28,22.728c22.811-54.922,49.479-28.295,81.429-41.538
		c-13.406,32.724,13.451,58.068-41.506,81.361C2569.864,118.477,2579.639,159.005,2557.094,183.057z M43.682,183.057
		c-22.544-24.051-12.77-64.58,29.28-72.396C18.006,87.368,44.862,62.025,31.456,29.3c31.951,13.243,58.618-13.384,81.429,41.538
		c8.567-46.202,55.908-52.961,78.28-22.728c-28.727-4.59-45.264,10.981-47.877,37.706c-3.635,36.263,28.398,83.248,80.659,97.241
		c-52.26,13.993-84.294,60.978-80.659,97.241c2.613,26.725,19.15,42.296,47.877,37.706c-22.372,30.233-69.713,23.474-78.28-22.728
		c-22.811,54.922-49.478,28.295-81.429,41.538c13.406-32.724-13.451-58.068,41.506-81.361
		C30.913,247.637,21.138,207.108,43.682,183.057z M1363.14,183.057c-17.905,4.521-34.731,13.051-49.096,26.143
		c-5.184,4.758-9.731,9.783-13.655,14.96c-3.925-5.176-8.471-10.201-13.655-14.96c-14.366-13.092-31.192-21.622-49.096-26.143
		c17.905-4.521,34.731-13.051,49.096-26.143c5.184-4.758,9.731-9.783,13.655-14.96c3.925,5.176,8.471,10.201,13.655,14.96
		C1328.409,170.006,1345.235,178.536,1363.14,183.057z M1300.388,189.454c1.726-2.065,3.378-4.198,4.954-6.397
		c-1.576-2.198-3.228-4.332-4.954-6.397c-1.726,2.065-3.378,4.198-4.954,6.397C1297.01,185.255,1298.662,187.389,1300.388,189.454z
		 M2433.533,183.057c40.54,55.474,120.582,56.765,117.58,0C2554.115,126.292,2474.073,127.583,2433.533,183.057z M167.243,183.057
		c-40.54-55.474-120.582-56.765-117.58,0C46.662,239.822,126.704,238.531,167.243,183.057z"/>
	<path style="fill:#e3e3e0" d="M1314.065,183.057c-2.686,3.288-5.508,6.364-8.411,9.183c1.35-0.968,5.17-4.666,9.609-9.183
		c-4.439-4.517-8.259-8.216-9.609-9.183C1308.557,176.692,1311.379,179.769,1314.065,183.057z M1286.711,183.057
		c2.686-3.288,5.508-6.364,8.411-9.183c-1.35,0.968-5.17,4.666-9.609,9.183c4.439,4.517,8.259,8.216,9.609,9.183
		C1292.219,189.421,1289.398,186.344,1286.711,183.057z"/>
	<path style="fill:#e3e3e0" d="M2423.212,183.057c3.198,3.104,6.53,6.169,9.997,9.179c-2.928-3.137-5.604-6.195-8.047-9.179
		c2.443-2.984,5.119-6.042,8.047-9.179C2429.741,176.888,2426.409,179.953,2423.212,183.057z M177.565,183.057
		c-3.198-3.104-6.53-6.169-9.997-9.179c2.928,3.137,5.604,6.195,8.047,9.179c-2.443,2.984-5.119,6.042-8.047,9.179
		C171.035,189.226,174.367,186.161,177.565,183.057z"/>
	<path style="fill:#e3e3e0" d="M1322.286,183.057c-6.73,7.011-14.03,14.309-21.898,21.963c-7.868-7.655-15.167-14.953-21.898-21.963
		c6.731-7.011,14.03-14.309,21.898-21.963C1308.257,168.748,1315.556,176.046,1322.286,183.057z M1300.388,207.293
		c8.798-9.158,16.85-17.185,24.243-24.236c-7.393-7.051-15.445-15.078-24.243-24.236c-8.798,9.158-16.849,17.185-24.243,24.236
		C1283.539,190.108,1291.591,198.135,1300.388,207.293z"/>
	<path style="fill:#e3e3e0" d="M2413.983,183.057c7.685,7.243,16.103,15.5,25.353,24.93c0.335-0.462,0.729-0.846,1.104-1.249
		c-8.946-8.611-16.808-16.474-23.733-23.681c6.925-7.207,14.787-15.07,23.733-23.681c-0.375-0.403-0.769-0.787-1.104-1.249
		C2430.086,167.557,2421.668,175.814,2413.983,183.057z M186.794,183.057c-7.685-7.243-16.103-15.5-25.352-24.93
		c-0.335,0.462-0.729,0.846-1.104,1.249c8.946,8.611,16.808,16.474,23.733,23.681c-6.925,7.207-14.787,15.07-23.733,23.681
		c0.375,0.403,0.769,0.787,1.104,1.249C170.691,198.557,179.108,190.3,186.794,183.057z"/>
	<path style="fill:#e3e3e0" d="M1269.311,183.057c6.416-6.021,12.231-12.063,17.21-17.794c-8.426,7.432-16.178,13.264-23.356,17.794
		c7.178,4.53,14.93,10.363,23.356,17.794C1281.541,195.12,1275.727,189.078,1269.311,183.057z M1331.466,183.057
		c-6.416,6.021-12.231,12.063-17.21,17.794c8.426-7.432,16.178-13.264,23.356-17.794c-7.178-4.53-14.93-10.363-23.356-17.794
		C1319.235,170.994,1325.05,177.036,1331.466,183.057z"/>
	<path style="fill:#e3e3e0" d="M200.961,183.057c-6.995-4.168-14.694-9.412-23.225-15.948c3.945,4.934,9.037,10.373,14.944,15.948
		c-5.908,5.575-10.999,11.014-14.944,15.948C186.267,192.469,193.966,187.225,200.961,183.057z M2399.816,183.057
		c6.995,4.168,14.694,9.412,23.226,15.948c-3.945-4.934-9.037-10.373-14.944-15.948c5.907-5.575,10.999-11.014,14.944-15.948
		C2414.51,173.645,2406.811,178.888,2399.816,183.057z"/>
	<path style="fill:#e3e3e0" d="M2515.013,273.909c7.588-15.48-7.512-34.263-24.647-30.511c-5.883,1.19-11.068,5.371-13.362,10.936
		C2466.662,278.349,2504.03,297.411,2515.013,273.909z M2503.38,258.199c2.371,1.335,3.258,4.185,3.045,6.783
		c10.664,4.094-4.738,19.835-8.991,9.023C2482.262,274.637,2492.357,251.712,2503.38,258.199z"/>
	<path style="fill:#e3e3e0" d="M85.763,92.204c-7.588,15.48,7.512,34.263,24.647,30.511c5.882-1.19,11.068-5.371,13.362-10.936
		C134.115,87.764,96.746,68.702,85.763,92.204z M97.397,107.915c-2.371-1.335-3.258-4.185-3.045-6.783
		c-10.663-4.094,4.738-19.835,8.991-9.023C118.514,91.476,108.42,114.401,97.397,107.915z"/>
	<path style="fill:#e3e3e0" d="M85.763,273.909c-7.588-15.48,7.512-34.263,24.647-30.511c5.882,1.19,11.068,5.371,13.362,10.936
		C134.115,278.349,96.746,297.411,85.763,273.909z M97.397,258.199c-2.371,1.335-3.258,4.185-3.045,6.783
		c-10.663,4.094,4.738,19.835,8.991,9.023C118.514,274.637,108.42,251.712,97.397,258.199z"/>
	<path style="fill:#e3e3e0" d="M2515.013,92.204c7.588,15.48-7.512,34.263-24.647,30.511c-5.883-1.19-11.068-5.371-13.362-10.936
		C2466.662,87.764,2504.03,68.702,2515.013,92.204z M2503.38,107.915c2.371-1.335,3.258-4.185,3.045-6.783
		c10.664-4.094-4.738-19.835-8.991-9.023C2482.262,91.476,2492.357,114.401,2503.38,107.915z"/>
</g>
</svg>
