<?xml version="1.0" encoding="UTF-8" standalone="no"?>
<!-- Created with Inkscape (http://www.inkscape.org/) -->

<svg
   width="99.701309mm"
   height="105.76936mm"
   viewBox="15 0 99.70131 105.76936"
   version="1.1"
   id="svg5"
   sodipodi:docname="logotype.svg"
   inkscape:version="1.2.2 (b0a8486541, 2022-12-01, custom)"
   inkscape:export-filename="../9a99b1d6/logotype-exported.svg"
   inkscape:export-xdpi="96"
   inkscape:export-ydpi="96"
   xmlns:inkscape="http://www.inkscape.org/namespaces/inkscape"
   xmlns:sodipodi="http://sodipodi.sourceforge.net/DTD/sodipodi-0.dtd"
   xmlns="http://www.w3.org/2000/svg"
   xmlns:svg="http://www.w3.org/2000/svg">
  <defs
     id="defs2" />
  <g
     inkscape:label="Layer 1"
     inkscape:groupmode="layer"
     id="layer1"
     transform="translate(9.8188939,-25.415171)">
    <g
       aria-label="APHRoconfuso"
       id="text113"
       style="font-size:50.8px;fill:#008000;stroke-width:0.264583"
       transform="matrix(1.6965386,0,0,1.8744005,-68.29294,-64.176876)">
      <path
         d="m 102.07569,101.68607 q -4.346222,2.54 -8.861774,2.54 -4.515553,0 -8.579549,-1.69333 Q 80.626814,100.8394 76.73215,96.606078 72.893931,92.429193 70.410378,86.389642 L 68.886379,82.664311 H 56.807277 l -2.257776,5.24933 q -0.282222,0.733777 -0.282222,1.185332 0,0.451555 0.169333,1.015999 0.225778,0.508 0.846666,0.959555 0.677333,0.395111 1.41111,0.395111 h 0.508 v 0.564444 H 44.615286 v -0.564444 h 0.508 q 1.298221,0 2.539998,-0.733777 1.298221,-0.790222 2.144887,-2.314221 L 61.322829,63.134549 q -1.693332,-4.684886 -2.82222,-6.265329 -1.072444,-1.636888 -1.806221,-2.483554 -1.354665,-1.580443 -3.386664,-2.31422 -0.790221,-0.282222 -1.862665,-0.282222 -1.072444,0 -2.427109,0.508 L 48.905061,51.73278 q 4.515552,-2.652887 8.635993,-2.652887 6.095996,0 11.006658,5.983106 2.483554,3.104442 4.459108,7.507106 L 82.037924,83.2852 q 2.483554,5.700884 3.668886,7.676438 1.185333,1.91911 2.088443,3.273775 0.959555,1.41111 1.862665,2.42711 0.903111,1.015999 1.975554,1.975554 1.862666,1.693323 4.684886,2.539993 1.185332,0.39511 2.596442,0.39511 1.46755,0 3.048,-0.45155 z M 58.049054,79.842091 h 9.708437 L 64.201494,71.093209 Q 63.749938,70.07721 63.12905,68.214545 Z"
         style="font-size:56.4444px;fill:#18130D"
         id="path8012" />
    </g>
  </g>
</svg>
