<?xml version="1.0" encoding="UTF-8" standalone="no"?>
<!-- Created with Inkscape (http://www.inkscape.org/) -->

<svg
   width="470mm"
   height="75mm"
   viewBox="20 14 470 75"
   version="1.1"
   id="svg5"
   sodipodi:docname="logo template - aligned 4 - paths.svg"
   inkscape:version="1.2.1 (8a69933317, 2022-10-28, custom)"
   inkscape:export-filename="../9caa9b22/logo.svg"
   inkscape:export-xdpi="96"
   inkscape:export-ydpi="96"
   xmlns:inkscape="http://www.inkscape.org/namespaces/inkscape"
   xmlns:sodipodi="http://sodipodi.sourceforge.net/DTD/sodipodi-0.dtd"
   xmlns="http://www.w3.org/2000/svg"
   xmlns:svg="http://www.w3.org/2000/svg">
  <defs
     id="defs2" />
  <g
     inkscape:label="Layer 1"
     inkscape:groupmode="layer"
     id="layer1"
     transform="translate(9.8188939,-25.415171)">
    <g
       aria-label="APHRoconfuso"
       id="text113"
       style="font-size:50.8px;fill:#008000;stroke-width:0.264583">
      <path
         d="m 71.023863,102.89298 q -4.346218,2.54 -8.86177,2.54 -4.515553,0 -8.579549,-1.69333 -4.007553,-1.69334 -7.902217,-5.926666 -3.838219,-4.176885 -6.321772,-10.216436 L 37.834556,83.871217 H 25.755454 l -2.257776,5.24933 q -0.282222,0.733777 -0.282222,1.185332 0,0.451555 0.169333,1.015999 0.225778,0.508 0.846666,0.959555 0.677333,0.395111 1.41111,0.395111 h 0.508 v 0.564444 H 13.563463 v -0.564444 h 0.508 q 1.298221,0 2.539998,-0.733777 1.298221,-0.790222 2.144887,-2.314221 L 30.271006,64.341455 Q 28.577674,59.656569 27.448786,58.076126 26.376342,56.439238 25.642565,55.592572 24.2879,54.012129 22.255901,53.278352 21.46568,52.99613 20.393236,52.99613 q -1.072444,0 -2.427109,0.508 l -0.112889,-0.564444 q 4.515552,-2.652887 8.635993,-2.652887 6.095996,0 11.006658,5.983106 2.483554,3.104442 4.459108,7.507106 l 9.031104,20.715095 q 2.483554,5.700884 3.668886,7.676438 1.185333,1.91911 2.088443,3.273775 0.959555,1.41111 1.862665,2.42711 0.903111,1.015999 1.975554,1.975554 1.862666,1.693327 4.684886,2.539997 1.185332,0.39511 2.596442,0.39511 1.467554,0 3.047998,-0.45155 z M 26.997231,81.048997 h 9.708437 l -3.555997,-8.748882 q -0.451556,-1.015999 -1.072444,-2.878664 z"
         style="font-size:56.4444px"
         fill="#17110C"
         id="path8012" />
      <path
         d="m 66.764795,63.050993 q -0.0508,-2.9464 -2.9464,-2.9464 -0.254,0 -0.9144,0.0508 l -0.1016,-0.4572 q 4.2672,-0.3048 10.3124,-1.3208 6.0452,-1.016 7.5692,-1.1684 1.5748,-0.1524 2.8956,-0.1524 4.064,0 6.4008,0.762 2.3876,0.7112 4.1656,1.8796 1.778,1.1684 2.8448,3.2004 1.1684,2.2352 1.1684,4.7752 0,2.4892 -0.6604,4.4196 -0.6604,1.9304 -1.8796,3.302 -3.6576,4.1656 -9.3472,4.1656 -1.9812,0 -3.6068,-0.6096 -2.9972,-1.1176 -3.8608,-3.9624 l 0.508,-0.3048 q 0.7112,1.016 2.3368,1.016 2.4892,0 4.4196,-2.9464 1.1684,-1.8796 1.1684,-4.9784 0,-4.318 -2.1844,-6.4008 -1.6256,-1.5748 -4.1148,-1.5748 -0.6096,0 -1.27,0.1016 l -2.4892,0.3556 v 29.5656 q 0.0508,1.3208 0.9652,2.286 0.9652,0.9144 2.286,0.9144 h 0.6604 v 0.508 h -18.2372 v -0.508 h 0.6604 q 1.3208,0 2.2352,-0.9144 0.9652,-0.9652 1.016,-2.286 z"
         style="font-weight:900;font-family:'Cinzel Decorative';-inkscape-font-specification:'Cinzel Decorative Heavy';fill:#17110C"
         id="path8014" />
      <path
         d="m 124.76591,92.882997 q 1.3716,0 2.286,-0.9144 0.9652,-0.9652 1.016,-2.286 V 76.880998 h -13.6144 v 12.953999 q 0,5.0292 -2.4384,8.9408 -2.54,4.114803 -8.0772,4.724403 -0.5588,0.1016 -1.2192,0.1016 -2.3876,0 -5.333998,-0.9652 v -0.508 q 4.063998,-1.5748 5.384798,-4.368803 0.9144,-1.8796 1.0668,-3.4036 0.2032,-1.9812 0.2032,-4.5212 V 61.488598 q -0.0508,-1.3208 -1.016,-2.2352 -0.9144,-0.9144 -2.2352,-0.9144 h -0.6604 v -0.508 h 18.2372 v 0.508 h -0.6604 q -1.8288,0 -2.7432,1.524 -0.4572,0.7112 -0.508,1.5748 v 12.9032 h 13.6144 v -11.938 q 0,-2.8956 1.2192,-5.588 1.2192,-2.6924 3.4544,-4.6228 3.5052,-3.0988 8.3312,-3.0988 1.8796,0 3.9624,0.508 v 0.508 q -2.4384,0.762 -4.1656,2.4892 -1.0668,1.016 -1.8796,3.6576 -0.4064,1.3208 -0.4572,3.048 -0.0508,1.6764 -0.0508,3.0988 v 27.279599 q 0,1.778 1.5748,2.7432 0.762,0.4572 1.6764,0.4572 h 0.6096 v 0.508 h -18.1864 v -0.508 z"
         style="font-weight:900;font-family:'Cinzel Decorative';-inkscape-font-specification:'Cinzel Decorative Heavy';fill:#17110C"
         id="path8016" />
      <path
         d="m 180.61429,67.787798 q 0,2.7432 -1.524,5.08 -1.4732,2.286 -3.6068,3.2512 -2.1336,0.9144 -4.2164,0.9144 -0.6096,0 -1.1684,-0.0508 3.2004,0.6604 5.842,3.9624 1.2192,1.4732 2.7432,3.81 1.524,2.286 2.1336,3.149599 3.048,4.3688 6.096,7.112 6.5024,5.892803 16.7132,6.502403 v 0.508 q -2.794,1.9812 -7.0104,2.8448 -2.4892,0.508 -4.9784,0.508 -2.4384,0 -5.1816,-0.7112 -2.7432,-0.7112 -5.3848,-2.1336 -2.6416,-1.4224 -5.3848,-4.114803 -2.6924,-2.6924 -4.4196,-5.4864 -1.7272,-2.8448 -2.9972,-5.3848 -1.27,-2.590799 -2.4384,-5.079999 -1.1176,-2.4892 -1.3716,-3.048 -1.4732,-3.048 -2.6416,-3.4036 v -0.508 h 0.8128 q 3.302,0 5.4356,-2.5908 1.2192,-1.4732 1.4224,-3.048 0.2032,-1.6256 0.2032,-2.0828 0,-3.81 -2.2352,-5.5372 -2.2352,-1.778 -5.08,-1.778 h -2.2352 v 29.209999 q 0,1.3208 0.9652,2.286 0.9652,0.9144 2.286,0.9144 h 0.6096 v 0.508 h -18.2372 v -0.508 h 0.6604 q 1.3208,0 2.2352,-0.9144 0.9652,-0.9144 1.016,-2.2352 V 61.539398 q -0.0508,-1.8796 -1.6256,-2.794 -0.762,-0.4064 -1.6256,-0.4064 h -0.6096 v -0.508 h 19.812 q 7.5692,0 11.4808,2.6416 3.5052,2.3876 3.5052,7.3152 z"
         style="font-weight:900;font-family:'Cinzel Decorative';-inkscape-font-specification:'Cinzel Decorative Heavy';fill:#17110C"
         id="path8018" />
      <path
         d="m 204.15483,93.187747 q -5.63055,0 -9.18633,-2.222499 -3.556,-2.296582 -4.96358,-6.29708 -1.3335,-4.000498 -0.4445,-9.186329 0.889,-5.482164 3.70416,-9.334495 2.81517,-3.926415 7.112,-6.074831 4.29683,-2.148416 9.70491,-2.148416 5.55625,0 9.03816,2.222499 3.556,2.148416 4.96358,6.074831 1.48167,3.852331 0.59267,9.112245 -0.81492,5.408081 -3.63008,9.482663 -2.81517,4.000498 -7.112,6.222997 -4.29683,2.148415 -9.77899,2.148415 z m 0.81491,-4.519081 q 1.92617,0 3.556,-1.555749 1.70392,-1.555749 2.96333,-4.444998 1.3335,-2.889249 2.00025,-6.889747 1.03717,-5.926664 -0.14816,-9.630828 -1.18534,-3.704165 -4.29683,-3.704165 -2.81517,0 -5.03767,3.407831 -2.14841,3.407832 -3.18558,8.964079 -0.66675,4.296832 -0.4445,7.40833 0.29633,3.111499 1.48167,4.815414 1.25941,1.629833 3.11149,1.629833 z"
         style="font-style:italic;font-weight:bold;font-size:74.0833px;font-family:vollkorn;-inkscape-font-specification:vollkorn;letter-spacing:0px;fill:#17110C"
         id="path8020" />
      <path
         d="m 241.66211,93.187747 q -4.22275,0 -6.81567,-1.481666 -2.51883,-1.555749 -3.77825,-4.148664 -1.18533,-2.592916 -1.3335,-5.778498 -0.0741,-3.259665 0.66675,-6.667496 0.66675,-3.185582 2.07434,-6.222997 1.40758,-3.111499 3.77824,-5.556248 2.37067,-2.444749 5.7785,-3.926415 3.40783,-1.481666 8.22325,-1.481666 2.51883,0 4.81541,0.66675 2.37067,0.592667 3.85233,1.555749 -0.74083,2.000249 -1.11125,4.074582 -0.37041,2.000249 -0.51858,4.000498 -2.2225,0.888999 -5.03766,0.370416 0.22225,-3.037415 -0.59267,-4.519081 -0.74083,-1.481666 -2.74108,-1.481666 -1.92617,0 -3.40783,1.3335 -1.48167,1.333499 -2.51884,3.704164 -0.96308,2.370666 -1.48166,5.556248 -0.4445,2.518832 -0.59267,4.963581 -0.14816,2.370665 0.29634,4.296831 0.4445,1.926166 1.70391,3.037415 1.3335,1.11125 3.63008,1.11125 2.29659,0 4.37092,-0.963083 2.14841,-0.963083 3.85233,-2.296582 0.66675,0.963082 0.96308,1.926165 0.37042,0.963083 0.4445,2.222499 -3.18558,3.037415 -6.74158,4.370915 -3.48191,1.333499 -7.77874,1.333499 z"
         style="font-style:italic;font-weight:bold;font-size:74.0833px;font-family:vollkorn;-inkscape-font-specification:vollkorn;letter-spacing:0px;fill:#17110C"
         id="path8022" />
      <path
         d="m 276.1108,93.187747 q -5.63055,0 -9.18633,-2.222499 -3.556,-2.296582 -4.96358,-6.29708 -1.3335,-4.000498 -0.4445,-9.186329 0.889,-5.482164 3.70416,-9.334495 2.81517,-3.926415 7.112,-6.074831 4.29683,-2.148416 9.70491,-2.148416 5.55625,0 9.03816,2.222499 3.556,2.148416 4.96358,6.074831 1.48167,3.852331 0.59267,9.112245 -0.81492,5.408081 -3.63008,9.482663 -2.81517,4.000498 -7.112,6.222997 -4.29683,2.148415 -9.77899,2.148415 z m 0.81491,-4.519081 q 1.92617,0 3.556,-1.555749 1.70392,-1.555749 2.96333,-4.444998 1.3335,-2.889249 2.00025,-6.889747 1.03717,-5.926664 -0.14816,-9.630828 -1.18534,-3.704165 -4.29684,-3.704165 -2.81516,0 -5.03766,3.407831 -2.14842,3.407832 -3.18558,8.964079 -0.66675,4.296832 -0.4445,7.40833 0.29633,3.111499 1.48166,4.815414 1.25942,1.629833 3.1115,1.629833 z"
         style="font-style:italic;font-weight:bold;font-size:74.0833px;font-family:vollkorn;-inkscape-font-specification:vollkorn;letter-spacing:0px;fill:#17110C"
         id="path8024" />
      <path
         d="m 301.66949,93.160997 3.85233,-20.44699 q 0.59267,-3.037415 0.59267,-4.519081 0,-1.481666 -1.03717,-1.926166 -0.96308,-0.444499 -3.33375,-0.444499 0,-1.037167 0.14817,-2.148416 0.14817,-1.185333 0.51858,-2.074332 2.14842,-0.07408 4.59317,-0.518584 2.51883,-0.444499 4.88949,-1.111249 2.37067,-0.66675 4.14867,-1.407583 1.3335,0.592667 1.778,1.852083 0.51858,1.185333 0.22225,2.963332 -0.4445,2.741082 -1.11125,4.815414 -0.66675,2.000249 -1.70392,4.370915 l -1.62983,14.075826 -1.18533,6.51933 z m 29.85557,-34.5969 q 1.85208,0 3.40783,0.740833 1.55575,0.740833 2.51883,2.444749 1.03717,1.629833 1.18534,4.444998 0.22225,2.815165 -0.74084,6.889747 l -1.778,7.556496 q -0.66675,2.963332 -0.889,4.370915 -0.22225,1.333499 0,1.703915 0.29634,0.370417 0.81492,0.370417 0.66675,0 1.48167,-0.4445 0.889,-0.518583 1.77799,-1.259416 0.66675,0.66675 1.18534,1.703916 0.59266,0.963083 0.74083,2.000249 -2.44475,2.444749 -5.11175,3.630082 -2.59291,1.111249 -5.25991,1.111249 -3.63008,0 -5.11175,-1.555749 -1.48166,-1.629833 -1.48166,-4.519081 0.0741,-2.889249 0.88899,-6.593414 l 1.55575,-6.74158 q 0.59267,-2.666999 0.59267,-4.296831 0,-1.703916 -0.51858,-2.444749 -0.4445,-0.814916 -1.40759,-0.814916 -1.25941,0 -2.88924,1.333499 -1.62984,1.259416 -3.33375,3.778248 -1.70392,2.444749 -3.18558,6.148914 -1.48167,3.704165 -2.37067,8.519579 l -0.22225,-10.075328 3.1115,-6.445247 q 1.03717,-2.148416 2.667,-4.222748 1.62983,-2.074333 3.63008,-3.704165 2.00025,-1.703916 4.22275,-2.666999 2.29658,-0.963083 4.51908,-0.963083 z"
         style="font-size:74.0833px;fill:#17110C"
         id="path8026" />
      <path
         d="m 370.69668,41.175523 c 2.02494,0 3.77824,0.148167 5.25991,0.4445 1.48167,0.296333 2.59292,0.66675 3.33375,1.111249 -0.34572,0.889 -0.66675,1.926166 -0.96308,3.111499 -0.24695,1.185333 -0.4692,2.39536 -0.66675,3.630081 -0.19756,1.185333 -0.29634,2.247194 -0.29634,3.185582 -0.34572,0.197555 -0.83961,0.370416 -1.48166,0.518583 -0.59267,0.09878 -1.25942,0.172861 -2.00025,0.22225 -0.69145,0.04939 -1.3335,0.07408 -1.92617,0.07408 0,-1.382889 -0.12347,-2.666999 -0.37041,-3.852332 -0.19756,-1.185333 -0.51859,-2.123721 -0.96309,-2.815165 -0.4445,-0.740833 -1.13594,-1.11125 -2.07433,-1.11125 -0.98777,0 -1.85208,0.419805 -2.59291,1.259416 -0.74083,0.839611 -1.43228,2.345971 -2.07434,4.519082 -0.64205,2.17311 -1.35819,5.309303 -2.14841,9.408578 -0.889,4.691943 -1.62983,8.889996 -2.2225,12.594161 -0.59267,3.704165 -1.13594,7.013219 -1.62983,9.927162 -0.59267,4.000498 -1.50636,7.754052 -2.74108,11.260661 -1.18533,3.506609 -2.64231,6.59341 -4.37092,9.26042 -1.67922,2.66699 -3.60539,4.74132 -5.7785,6.22299 -2.17311,1.53106 -4.54377,2.29659 -7.11199,2.29659 -1.3335,0 -2.64231,-0.27164 -3.92642,-0.81492 -1.28411,-0.49389 -2.44474,-1.28411 -3.48191,-2.37067 -0.0494,-0.93839 0.0494,-2.00025 0.29633,-3.18558 0.19755,-1.13594 0.46919,-2.12372 0.81492,-2.96333 1.18533,0.49388 2.46944,0.83961 3.85233,1.03717 1.38289,0.24694 2.79047,0.37041 4.22275,0.37041 1.03717,0 1.90147,-0.14817 2.59291,-0.4445 0.74083,-0.24694 1.35819,-0.83961 1.85208,-1.778 0.49389,-0.889 0.93839,-2.27189 1.3335,-4.148665 0.4445,-1.876777 0.86431,-4.370914 1.25942,-7.482413 0.4445,-3.753554 0.96308,-8.149163 1.55575,-13.186827 0.64205,-5.087053 1.48166,-10.766773 2.51883,-17.039158 0.54328,-3.160888 1.30881,-5.926665 2.29658,-8.29733 1.03717,-2.420054 2.34597,-4.444997 3.92642,-6.07483 1.62983,-1.629833 3.556,-2.83986 5.77849,-3.630082 2.2225,-0.839611 4.86481,-1.259416 7.92692,-1.259416 z M 345.21202,60.88168 h 6.14892 l -0.29634,5.482164 c -1.23472,-0.345722 -2.44475,-0.592666 -3.63008,-0.740833 -1.18533,-0.197555 -2.24719,-0.296333 -3.18558,-0.296333 0,-0.790222 0.0741,-1.580444 0.22225,-2.370665 0.14817,-0.839611 0.39511,-1.531055 0.74083,-2.074333 z m 15.33525,0 8.22324,0.09244 c 0,0.839611 -0.0494,1.586785 -0.14816,2.426396 -0.0494,0.839611 -0.0854,1.158563 -0.33239,1.70184 -1.43228,0 -2.99835,-0.01112 -4.33185,0.334637 -1.28411,0.09878 -2.47245,0.581133 -3.70718,0.926855 z"
         style="font-style:italic;font-weight:bold;font-size:74.0833px;font-family:vollkorn;-inkscape-font-specification:vollkorn;letter-spacing:0px;fill:#17110C"
         id="path8028" />
      <path
         d="m 375.72532,93.187747 q -2.37067,0 -3.77825,-1.111249 -1.40758,-1.11125 -2.00025,-3.259665 -0.59267,-2.148416 -0.37042,-5.185831 0.22225,-3.037415 1.11125,-6.889747 0.96309,-4.148665 1.40759,-6.51933 0.4445,-2.370666 0.14816,-3.407832 -0.22225,-1.037166 -1.25941,-1.333499 -0.96309,-0.296333 -2.88925,-0.370417 0,-0.963083 0.14817,-2.074332 0.14816,-1.185333 0.51858,-2.074332 2.07433,-0.07408 4.51908,-0.518583 2.44475,-0.4445 4.74133,-1.11125 2.37067,-0.66675 4.07458,-1.407583 0.96308,0.592667 1.40758,1.3335 0.51859,0.66675 0.51859,2.148415 0,1.481666 -0.59267,4.444998 -0.59267,2.889249 -1.778,7.926913 -0.889,4.000498 -1.03716,6.371164 -0.0741,2.296582 0.51858,3.333748 0.66675,0.963083 1.778,0.963083 1.55575,0 3.70416,-2.000249 2.14842,-2.000249 4.22275,-6.29708 2.14842,-4.296832 3.40783,-11.260662 l 1.25942,-6.29708 h 10.51983 l -3.48192,18.594908 q -0.81491,4.222748 -1.11125,6.222997 -0.22225,1.926166 0,2.518832 0.29634,0.518583 1.03717,0.518583 1.03716,0 2.88925,-1.703916 0.66675,0.592667 1.18533,1.629833 0.51858,1.037166 0.66675,2.074332 -2.07433,2.148416 -4.81541,3.481915 -2.74109,1.259416 -5.40809,1.259416 -3.03741,0 -4.66724,-1.185333 -1.55575,-1.185332 -1.92617,-3.037415 -0.37042,-1.926166 0.0741,-4.296831 0.14817,-0.814916 0.4445,-1.703916 0.29634,-0.888999 0.74084,-1.852082 h -0.0741 q -1.18533,2.444748 -2.88924,4.593164 -1.70392,2.148416 -3.77825,3.852332 -2.07434,1.703915 -4.445,2.666998 -2.29658,0.963083 -4.74133,0.963083 z"
         style="font-style:italic;font-weight:bold;font-size:74.0833px;font-family:vollkorn;-inkscape-font-specification:vollkorn;letter-spacing:0px;fill:#17110C"
         id="path8030" />
      <path
         d="m 428.78537,57.924097 q 3.1115,0 6.223,0.740833 3.18558,0.740833 5.25991,1.852083 -1.3335,4.000498 -1.40758,9.186329 -1.25942,0.518583 -2.74108,0.740833 -1.48167,0.148166 -2.96333,0.07408 -0.0741,-4.074581 -1.3335,-6.07483 -1.18534,-2.074333 -3.70417,-2.074333 -1.55575,0 -2.51883,0.592667 -0.96308,0.592666 -1.18533,1.852082 -0.37042,1.555749 0.51858,2.963332 0.889,1.333499 2.51883,2.666999 1.62983,1.333499 3.40783,2.741082 1.85209,1.407582 3.33375,3.111498 1.55575,1.703916 2.29658,3.852332 0.81492,2.074332 0.29634,4.889497 -0.59267,3.037416 -2.44475,4.815415 -1.778,1.777999 -4.8895,2.592915 -3.03741,0.740833 -7.63058,0.740833 -4.07458,0 -7.26016,-0.814916 -3.1115,-0.889 -5.03767,-2.148416 0.74084,-2.222499 1.11125,-4.444998 0.37042,-2.296582 0.4445,-4.667247 2.51884,-0.963083 5.70442,-0.66675 0,3.852331 1.25941,6.000747 1.25942,2.074332 4.29683,2.074332 1.70392,0 2.59292,-0.666749 0.96308,-0.66675 1.18533,-1.703916 0.37042,-1.629833 -0.96308,-3.111499 -1.25942,-1.555749 -3.33375,-3.185581 -2.00025,-1.629833 -4.0005,-3.555999 -1.92616,-1.926165 -3.1115,-4.370914 -1.11124,-2.518832 -0.44449,-5.852581 0.59266,-3.037415 2.51883,-4.815414 1.92616,-1.777999 4.96358,-2.518832 3.1115,-0.814917 7.03791,-0.814917 z"
         style="font-style:italic;font-weight:bold;font-size:74.0833px;font-family:vollkorn;-inkscape-font-specification:vollkorn;letter-spacing:0px;fill:#17110C"
         id="path8032" />
      <path
         d="m 457.15918,93.187747 q -5.63055,0 -9.18633,-2.222499 -3.556,-2.296582 -4.96358,-6.29708 -1.3335,-4.000498 -0.4445,-9.186329 0.889,-5.482164 3.70417,-9.334495 2.81516,-3.926415 7.11199,-6.074831 4.29684,-2.148416 9.70492,-2.148416 5.55624,0 9.03816,2.222499 3.556,2.148416 4.96358,6.074831 1.48167,3.852331 0.59267,9.112245 -0.81492,5.408081 -3.63009,9.482663 -2.81516,4.000498 -7.11199,6.222997 -4.29683,2.148415 -9.779,2.148415 z m 0.81492,-4.519081 q 1.92616,0 3.556,-1.555749 1.70391,-1.555749 2.96333,-4.444998 1.3335,-2.889249 2.00025,-6.889747 1.03716,-5.926664 -0.14817,-9.630828 -1.18533,-3.704165 -4.29683,-3.704165 -2.81517,0 -5.03766,3.407831 -2.14842,3.407832 -3.18559,8.964079 -0.66675,4.296832 -0.4445,7.40833 0.29634,3.111499 1.48167,4.815414 1.25942,1.629833 3.1115,1.629833 z"
         style="font-style:italic;font-weight:bold;font-size:74.0833px;font-family:vollkorn;-inkscape-font-specification:vollkorn;letter-spacing:0px;fill:#17110C"
         id="path8034" />
    </g>
  </g>
</svg>
